<svg xmlns="http://www.w3.org/2000/svg" width="1482" height="920" viewBox="0 0 1482 920" opacity="0.34">
  <g fill="#DDD" fill-rule="evenodd">
    <path d="M307.764 776.898c-.689-.682-1.537-1.116-2.373-1.558l-.013-235.624c.178-.094.347-.21.519-.314l203.556 117.583c-.01.18-.103.34-.103.523a9.82 9.82 0 0 0 2.861 6.955c.803.794 1.737 1.384 2.727 1.857l.024 235.024c-.268.129-.475.35-.726.503L310.577 784.209c.006-.121.074-.23.074-.35a9.804 9.804 0 0 0-2.887-6.96zM524.09 901.863l-.035-236.03c.562-.33 1.169-.575 1.662-1.017l.4-.38c1.836-1.864 2.86-4.325 2.856-6.925 0-.066-.036-.12-.038-.183l204.076-117.906c.211.132.387.314.605.43l.013 235.438c-3.073 1.663-5.25 4.808-5.252 8.536 0 .13.068.24.071.368L524.4 902.074c-.106-.07-.203-.147-.31-.21zm-10.708-488.218c1.142.851 2.393 1.53 3.779 1.808.648.13 1.299.195 1.962.193 2.245.014 4.362-.824 6.11-2.217l203.188 117.373c-.006.125-.073.232-.072.356.002.13.07.242.076.372l-204.04 117.893c-1.574-1.018-3.325-1.736-5.208-1.73-1.859-.01-3.515.622-4.97 1.49L310.567 531.54c.005-.12.069-.224.069-.345 0-.13-.068-.248-.075-.38l202.821-117.17zM748 783.83c-.005-3.733-2.183-6.87-5.265-8.532l-.005-235.601c.694-.37 1.414-.697 2.012-1.236a9.909 9.909 0 0 0 3.247-7.31c.011-2.608-1.02-5.078-2.879-6.943a9.827 9.827 0 0 0-6.95-2.862c-1.885.007-3.547.693-5.05 1.628L528.785 404.939c-.213-2.274-1.063-4.415-2.702-6.036-1.856-1.876-4.335-2.864-6.94-2.903-2.79.007-5.125.985-6.943 2.893-1.748 1.757-2.674 4.07-2.79 6.515L305.889 522.993c-1.549-.944-3.238-1.608-5.07-1.632-2.695-.002-5.174 1.027-6.928 2.883-1.862 1.844-2.886 4.307-2.89 6.958.004 2.602 1.037 5.057 2.879 6.931a9.793 9.793 0 0 0 2.391 1.739l-.001 235.44c-.838.453-1.684.908-2.366 1.608a9.632 9.632 0 0 0-2.885 6.92 9.767 9.767 0 0 0 2.874 6.972 9.818 9.818 0 0 0 4.98 2.67c.64.128 1.302.194 1.967.192 1.845-.005 3.544-.667 5.082-1.617l203.547 117.585c-.01.187-.105.353-.105.54.006 4.742 3.4 8.718 7.875 9.622.623.124 1.273.188 1.92.196a9.706 9.706 0 0 0 6.568-2.507l.372-.36c1.857-1.833 2.87-4.308 2.877-6.96.002-.058-.033-.108-.03-.163L733.01 792.08c.996.632 2.057 1.138 3.211 1.37.638.13 1.288.195 1.948.206 2.452-.007 4.783-.893 6.583-2.507l.385-.368a9.836 9.836 0 0 0 2.862-6.952z"/>
    <path stroke="#DDD" d="M10.518 520.541l103.168 59.557-.012-119.051a5.28 5.28 0 0 1-1.246-.902 5.502 5.502 0 0 1-1.603-3.904L7.831 396.783l.006 119.206c.499.27.774.455 1.062.74l.003.002a5.494 5.494 0 0 1 1.616 3.81zm103.265 59.613l.283.163-.102.177h-.278v-.267l.097-.073zM7.603 396.65l-.072-.041-.118-.225.09-.156h.189l.139.229v.054l-.044.027-.012.008a3.355 3.355 0 0 1-.173.104zm111.465 184.108h-.132l-.047-.082.21-.347c.036.022.062.04.109.073l.021.015.043.03-.204.31zm.272-.668l103.156-59.558c.03-1.885 1.059-3.574 2.677-4.558l-.007-119.207-103.339 59.669a5.513 5.513 0 0 1-1.61 3.705l-.214.204c-.186.167-.343.263-.68.441l.017 119.304zm2.459-124.034a.144.144 0 0 0-.003-.01l.001.005.002.005zm-.96.283l.003.01-.002-.009zm.003.01l.001.003-.001-.005zm102.653 64.261a1.421 1.421 0 0 0 0-.004zM113.353 332.585L10.655 391.878l103.148 59.553c.825-.448 1.659-.688 2.53-.682.904-.004 1.786.277 2.666.798l103.34-59.673-102.88-59.395c-.947.672-2.036 1.039-3.15 1.031a5.492 5.492 0 0 1-1.1-.108c-.64-.128-1.249-.405-1.856-.817zM10.508 391.963l-.2.115-.116-.005-.111-.192.115-.2.109-.005.2.115a.712.712 0 0 1 .003.172zm211.977-.173l.202-.117.113.005.111.193-.113.197-.113.005-.198-.115a.737.737 0 0 1-.002-.168zm.992.132zm-213.963-.085zm215.838 133.564l-103.525 59.79a5.45 5.45 0 0 1-1.616 3.708l-.202.195a5.452 5.452 0 0 1-3.689 1.406 5.83 5.83 0 0 1-1.072-.11 5.52 5.52 0 0 1-4.416-5.41L7.61 525.387c-.853.482-1.71.742-2.592.745a5.509 5.509 0 0 1-3.897-1.605 5.474 5.474 0 0 1-1.612-3.905 5.4 5.4 0 0 1 1.613-3.876c.287-.295.57-.491 1.064-.767l.001-119.376a5.465 5.465 0 0 1-1.076-.83A5.528 5.528 0 0 1-.5 391.892 5.442 5.442 0 0 1 1.11 388c.99-1.045 2.385-1.625 3.902-1.624.875.011 1.723.273 2.58.753l103.284-59.636c.12-1.292.65-2.472 1.54-3.365 1.024-1.074 2.346-1.625 3.91-1.629 1.48.022 2.861.592 3.882 1.623.83.82 1.33 1.902 1.494 3.125l103.702 59.87c.852-.486 1.688-.746 2.58-.75 1.466 0 2.848.57 3.897 1.606a5.46 5.46 0 0 1 1.613 3.892 5.548 5.548 0 0 1-1.82 4.095c-.237.213-.441.34-.861.56l.003 119.457c1.645.997 2.681 2.716 2.684 4.637 0 1.466-.57 2.847-1.614 3.904l-.208.199a5.538 5.538 0 0 1-3.698 1.404 5.902 5.902 0 0 1-1.084-.114 5.075 5.075 0 0 1-1.544-.607zM519.502 328.372a.553.553 0 0 1-.002.005v.002l.002-.007zm.023-.379l51.313 29.606-.006-59.171a2.825 2.825 0 0 1-.553-.423 3.009 3.009 0 0 1-.874-1.99l-51.224-29.554.003 59.248c.194.112.323.205.46.34l.002.003c.525.528.833 1.211.879 1.941zm51.762 30.13l-.06.106h-.152l-.182-.299.029-.022a.957.957 0 0 1 .2-.13l.165.346zm-1.852-62.46v-.002zm-51.713-29.833l.046-.078h.094l.211.347-.03.019-.006.004a1.64 1.64 0 0 1-.123.072l-.192-.364zm52.673 30.111zm-51.854 32.152l.003-.009v-.001a.044.044 0 0 0-.003.01zm55.249 30.269h-.067l-.023-.04.233-.388c.043.027.043.027.07.046l.011.008.014.01-.238.364zm.385-.766l51.307-29.607c.06-.929.564-1.757 1.339-2.277l-.003-59.259-51.402 29.664a3.027 3.027 0 0 1-.878 1.892l-.113.107a1.376 1.376 0 0 1-.259.184l.009 59.296zm51.328-29.236a.545.545 0 0 1 0 0zm1.591-62.574h.132l.048.083-.19.36a.954.954 0 0 1-.16-.108l-.004-.003-.023-.017.197-.315zM575.397 295.7c0-.002 0-.002 0 0zm-.96.283l.007.018-.003-.007-.003-.011zm52.04 32.189a1.596 1.596 0 0 0-.001-.01zm-.01-.078c0-.005-.001-.008-.002-.009v.001l.003.008zm-55.555-93.992l-51.063 29.466 51.303 29.604c.41-.202.827-.31 1.263-.308.459-.001.902.127 1.339.363l51.395-29.661-51.153-29.515a2.92 2.92 0 0 1-1.591.473 2.698 2.698 0 0 1-1.493-.422zm-51.794 29.564l-.056-.096.058-.1.387-.022a.382.382 0 0 0-.009-.064l.002.007a.615.615 0 0 1 0 .365.416.416 0 0 0 .009-.072l-.391-.018zm.38-.282v-.001.003zm.001.372a.507.507 0 0 1-.002.006l.002-.006zm106.38-.288l.055.097-.057.098-.388.017c.001.03.006.056.008.068a.616.616 0 0 1 0-.37.422.422 0 0 0-.01.072l.391.018zm-.382.28l.002.006v-.001a.594.594 0 0 1-.002-.005zm0-.37l.002-.005v-.002l-.002.007zm.962.274a.565.565 0 0 1-.002.008v.002l.002-.01zm.001-.175a1.514 1.514 0 0 1 0 0zm-107.924.008l.003-.009s-.002.003-.003.01zm0 .171l.002.009v-.005l-.002-.004zm108.627 67.21l-51.748 29.87a2.98 2.98 0 0 1-.879 1.89l-.108.105a2.988 2.988 0 0 1-2.606.709 3.02 3.02 0 0 1-2.414-2.814l-51.59-29.768a2.818 2.818 0 0 1-1.298.337 3.017 3.017 0 0 1-2.134-.879 2.995 2.995 0 0 1-.881-2.135 2.955 2.955 0 0 1 .88-2.119c.138-.141.27-.24.464-.356v-59.628a2.998 2.998 0 0 1-.468-.38 3.023 3.023 0 0 1-.881-2.124c.001-.81.316-1.568.877-2.123.544-.575 1.311-.894 2.143-.893.44.006.865.125 1.288.342l51.635-29.798a2.955 2.955 0 0 1 .826-1.707c.562-.59 1.29-.893 2.147-.895a3.027 3.027 0 0 1 2.121.887c.43.424.698.973.803 1.589l51.85 29.918c.42-.22.84-.339 1.291-.34a3.02 3.02 0 0 1 2.133.879c.57.571.887 1.331.883 2.13a3.033 3.033 0 0 1-.996 2.239 1.74 1.74 0 0 1-.35.245l.001 59.667c.829.553 1.347 1.457 1.348 2.463 0 .802-.313 1.558-.887 2.14l-.11.105a3.033 3.033 0 0 1-2.028.769 3.212 3.212 0 0 1-.59-.063 2.695 2.695 0 0 1-.722-.263z"/>
    <path stroke="#DDD" stroke-width="1.2" d="M1259.585 119.394a.623.623 0 0 1-.002.006v.003l.002-.01zm.028-.453l61.397 35.57-.008-71.095a3.383 3.383 0 0 1-.662-.509 3.62 3.62 0 0 1-1.046-2.39l-61.29-35.507.005 71.187c.231.133.385.246.55.409l.003.003a3.617 3.617 0 0 1 1.05 2.332zm61.936 36.202l-.072.125h-.183l-.218-.358.033-.026.002-.001c.095-.075.147-.112.239-.156l.2.416zm-2.219-75.046v-.001.001zm1.154.331v0zm-62.052 38.632a.72.72 0 0 1 .003-.01v-.002a.053.053 0 0 0-.003.012zm66.112 36.367h-.08l-.029-.048.282-.465.084.056a9.96 9.96 0 0 1 .03.02l-.287.437zm.462-.92l61.39-35.57c.072-1.117.674-2.112 1.601-2.737l-.003-71.2-61.503 35.639a3.641 3.641 0 0 1-1.05 2.273l-.135.129c-.1.089-.185.149-.31.22l.01 71.245zm61.415-35.128a.026.026 0 0 0 .003.008v-.001a.938.938 0 0 1-.003-.007zM1326.47 80.14zm-1.152.338c.002.011.004.016.007.023l-.003-.01a2.895 2.895 0 0 1-.004-.013zm62.272 38.676V119.143zm-.01-.093l-.003-.01v.001l.003.01zM1321.099 6.13l-61.101 35.403 61.39 35.57c.489-.243.988-.373 1.51-.37.55-.002 1.08.152 1.602.436L1386 41.531 1324.79 6.068a3.487 3.487 0 0 1-1.904.568 3.223 3.223 0 0 1-1.786-.506zm-61.518 35.183v-.001.003zm0 .446a.535.535 0 0 1-.001.006v.001l.002-.007zm127.29-.346l.067.116-.069.119-.465.02a.501.501 0 0 0 .01.08.74.74 0 0 1 0-.442.506.506 0 0 0-.011.086l.467.02zm-.457.336l.002.007v-.002l-.002-.005zm0-.443l.002-.006v-.003l-.002.009zm1.155.328a.674.674 0 0 1-.003.01l-.001.002a.068.068 0 0 0 .004-.012zm0-.21a.032.032 0 0 0-.002-.009v.002l.003.008zm-129.143.01a.608.608 0 0 1 .003-.01l-.003.01zm0 .204a.076.076 0 0 0 .003.01l-.002-.005a.48.48 0 0 1-.001-.005zm129.982 80.752l-61.918 35.888a3.585 3.585 0 0 1-1.051 2.272l-.13.125a3.57 3.57 0 0 1-3.121.853 3.625 3.625 0 0 1-2.89-3.381l-61.73-35.766c-.505.261-1.02.404-1.552.405-.243 0-.486-.023-.723-.07a3.608 3.608 0 0 1-2.887-3.55 3.556 3.556 0 0 1 1.053-2.545c.164-.17.322-.29.555-.428V44.547a3.592 3.592 0 0 1-.56-.456 3.638 3.638 0 0 1-1.054-2.55 3.579 3.579 0 0 1 1.049-2.55c.652-.691 1.57-1.074 2.566-1.074.528.007 1.036.15 1.541.41l61.784-35.8a3.555 3.555 0 0 1 .989-2.051c.672-.708 1.545-1.073 2.57-1.076.967.014 1.873.39 2.54 1.066.514.51.836 1.169.961 1.91l62.04 35.944c.503-.264 1.007-.406 1.546-.408a3.609 3.609 0 0 1 3.61 3.615 3.65 3.65 0 0 1-1.192 2.689c-.13.118-.243.197-.419.295l.002 71.69c.992.666 1.611 1.751 1.613 2.96 0 .962-.374 1.87-1.061 2.569l-.133.127a3.624 3.624 0 0 1-2.427.923 3.832 3.832 0 0 1-.706-.074 3.218 3.218 0 0 1-.865-.316z"/>
    <path stroke="#DDD" stroke-width="1.728" d="M1289.496 626.057v0zm.044-.664l88.59 51.257-.01-102.448a4.88 4.88 0 0 1-.956-.733 5.213 5.213 0 0 1-1.509-3.443l-88.436-51.17.006 102.583c.335.192.557.355.793.59l.005.004a5.208 5.208 0 0 1 1.517 3.36zm89.367 52.166l-.105.181h-.264l-.313-.516.049-.038h.001c.137-.108.213-.161.345-.225l.287.598zm-3.2-108.14v-.002.002zm-89.28-51.654l.077-.135h.165l.364.6-.052.032-.01.007c-.094.059-.142.088-.213.125l-.332-.63zm90.94 52.132v0zm5.86 108.073h-.115l-.041-.07.405-.67c.042.026.074.048.12.08l.02.014.024.017-.413.629zm.665-1.326l88.58-51.258c.104-1.609.973-3.043 2.312-3.942l-.006-102.6-88.743 51.356a5.244 5.244 0 0 1-1.515 3.276l-.195.185a2.377 2.377 0 0 1-.448.319l.015 102.664zm2.11-107.162c0-.003 0-.003 0 0zm-1.657.486a.23.23 0 0 0 .01.033l-.004-.013a4.02 4.02 0 0 1-.006-.02zm89.845 55.733v-.016zm-.018-.148v-.001zm-95.914-162.72l-88.163 51.016 88.578 51.256c.706-.349 1.427-.537 2.18-.532.793-.003 1.558.219 2.312.628l88.735-51.356-88.317-51.102c-.837.535-1.782.825-2.747.82a4.652 4.652 0 0 1-2.578-.73zm-89.421 51.186l-.097-.167.1-.174.669-.037a.462.462 0 0 0-.012-.098 1.047 1.047 0 0 1-.005.641.502.502 0 0 0 .02-.134l-.675-.031zm.657-.487l-.001-.002.001.004zm-.002.652zm183.664-.509l.097.168-.098.171-.67.028c.002.07.009.1.017.127v-.001a1.024 1.024 0 0 1-.052-.314.997.997 0 0 1 .051-.34l.001-.003a.5.5 0 0 0-.02.135l.674.03zm-.654.494v0zm0-.658v-.003.003zm1.657.17v-.002.001zm1.216 116.681l-89.34 51.715a5.162 5.162 0 0 1-1.518 3.275l-.187.18a5.153 5.153 0 0 1-3.49 1.332 5.476 5.476 0 0 1-1.011-.104 5.225 5.225 0 0 1-4.168-4.871l-89.07-51.54c-.73.377-1.47.582-2.24.585a5.206 5.206 0 0 1-3.686-1.522 5.19 5.19 0 0 1-1.52-3.695 5.121 5.121 0 0 1 1.518-3.667 3.57 3.57 0 0 1 .802-.616V518.192a5.18 5.18 0 0 1-.81-.658 5.238 5.238 0 0 1-1.519-3.675 5.154 5.154 0 0 1 1.513-3.672c.94-.997 2.265-1.549 3.702-1.548.76.01 1.494.217 2.223.592l89.147-51.59c.15-1.132.64-2.165 1.426-2.955.97-1.02 2.229-1.546 3.708-1.55 1.394.02 2.7.561 3.663 1.535.741.735 1.205 1.685 1.387 2.752l89.516 51.797c.725-.38 1.452-.585 2.23-.588 1.385 0 2.692.54 3.684 1.522a5.179 5.179 0 0 1 1.524 3.686 5.255 5.255 0 0 1-1.72 3.875c-.188.17-.351.283-.605.425l.003 103.306c1.43.958 2.324 2.522 2.327 4.263v.002c0 1.386-.54 2.695-1.531 3.7l-.191.183a5.231 5.231 0 0 1-3.501 1.331 5.533 5.533 0 0 1-1.018-.108 4.645 4.645 0 0 1-1.248-.455z"/>
  </g>
</svg>
