<svg xmlns="http://www.w3.org/2000/svg" width="43" height="32" viewBox="0 0 43 32">
  <g fill="none" fill-rule="nonzero">
    <path fill="#C81C2E" d="M28.794 0H10.588A1.869 1.869 0 0 0 8.73 1.875V8.25c0 .345.277.625.62.625.341 0 .618-.28.618-.625V1.875c0-.345.278-.625.62-.625h18.206c.342 0 .62.28.62.625v23.25a.623.623 0 0 1-.62.625H10.588a.623.623 0 0 1-.62-.625V13.521a.622.622 0 0 0-.619-.625c-.342 0-.62.28-.62.625v11.604c0 1.034.834 1.875 1.859 1.875h18.206a1.869 1.869 0 0 0 1.858-1.875V1.875A1.869 1.869 0 0 0 28.794 0z"/>
    <path fill="#C81C2E" d="M9.787 10.606a.62.62 0 0 0-.876 0 .635.635 0 0 0-.181.442.621.621 0 0 0 .62.626.621.621 0 0 0 .618-.626.634.634 0 0 0-.181-.442z"/>
    <path fill="#00205B" d="M12.268 28.437a.62.62 0 0 0-.438-.183.62.62 0 0 0-.62.625c0 .165.067.325.182.442a.618.618 0 0 0 1.057-.442.633.633 0 0 0-.181-.442zM32.514 2.504c-.342 0-.62.28-.62.625v24.5a.623.623 0 0 1-.619.625H14.307c-.342 0-.62.28-.62.625s.278.625.62.625h16.968a1.869 1.869 0 0 0 1.858-1.875v-24.5a.622.622 0 0 0-.62-.625z"/>
    <path fill="#00205B" d="M34.995 5c-.342 0-.62.28-.62.625v24.5a.623.623 0 0 1-.619.625H14.311c-.342 0-.62.28-.62.625s.278.625.62.625h19.445a1.869 1.869 0 0 0 1.858-1.875v-24.5a.622.622 0 0 0-.62-.625z"/>
    <path fill="#C81C2E" d="M18.762 4.625h-5.945c-.342 0-.62.28-.62.625v6c0 .345.278.625.62.625h5.945c.342 0 .62-.28.62-.625v-6a.622.622 0 0 0-.62-.625zm-.62 6h-4.706v-4.75h4.707v4.75zM16.77 14.713a.615.615 0 0 0-.876 0l-1.647 1.661-.765-.772a.615.615 0 0 0-.876 0 .63.63 0 0 0 0 .883L13.81 17.7a.617.617 0 0 0 .875 0l2.084-2.103a.63.63 0 0 0 0-.884zM26.916 15.563H19.69c-.342 0-.62.28-.62.624 0 .346.278.625.62.625h7.225c.342 0 .619-.28.619-.625a.622.622 0 0 0-.62-.625zM26.565 4.625H22.23c-.342 0-.62.28-.62.625s.278.625.62.625h4.335c.342 0 .619-.28.619-.625a.622.622 0 0 0-.62-.625zM26.565 7.625H22.23c-.342 0-.62.28-.62.625s.278.625.62.625h4.335c.342 0 .619-.28.619-.625a.622.622 0 0 0-.62-.625zM26.565 10.625H22.23c-.342 0-.62.28-.62.625s.278.625.62.625h4.335c.342 0 .619-.28.619-.625a.622.622 0 0 0-.62-.625zM16.77 19.486a.615.615 0 0 0-.876 0l-1.647 1.661-.765-.773a.615.615 0 0 0-.876 0 .63.63 0 0 0 0 .884l1.204 1.215a.617.617 0 0 0 .875 0l2.084-2.104a.63.63 0 0 0 0-.883zM26.916 20.313H19.69c-.342 0-.62.28-.62.625s.278.625.62.625h7.225c.342 0 .619-.28.619-.625a.622.622 0 0 0-.62-.625z"/>
  </g>
</svg>
