<svg xmlns="http://www.w3.org/2000/svg" width="43" height="32" viewBox="0 0 43 32">
    <g fill="none" fill-rule="nonzero">
        <path fill="#C81C2E" d="M31.048 1.288c-.309 0-.627.039-.944.115l.244.971c1.935-.464 3.623.974 3.623 2.77 0 4.206-4.903 7.305-6.946 7.889l.287.96c2.596-.742 7.683-4.204 7.684-8.849 0-2.127-1.771-3.856-3.948-3.856zM9.028 5.144c0-1.796 1.687-3.236 3.622-2.77l.246-.97c-2.562-.615-4.892 1.313-4.892 3.74 0 4.645 5.088 8.107 7.683 8.848l.287-.96c-2.044-.584-6.946-3.682-6.946-7.888zM23.275 18.613h-3.55a.506.506 0 0 0-.512.5v1.897c0 .15.07.294.19.389a.518.518 0 0 0 .43.1 8.41 8.41 0 0 1 3.334 0 .525.525 0 0 0 .43-.1.495.495 0 0 0 .19-.389v-1.898c0-.276-.23-.5-.512-.5zm-.512 1.801a9.626 9.626 0 0 0-2.526 0v-.802h2.526v.802z"/>
        <path fill="#00205B" d="M28.408 29.153H14.591a.506.506 0 0 0-.512.5V31.5c0 .276.23.5.512.5h13.817a.506.506 0 0 0 .512-.5v-1.847c0-.276-.229-.5-.512-.5zM27.896 31H15.103v-.847h12.793V31zM25.475 24.108h-7.95a.506.506 0 0 0-.512.5v3.044c0 .277.23.5.512.5h7.95a.506.506 0 0 0 .512-.5v-3.044c0-.277-.229-.5-.512-.5zm-.512 3.044h-6.926v-2.044h6.926v2.044z"/>
        <path fill="#C81C2E" d="M30.52.252A.868.868 0 0 0 29.907 0H13.094a.87.87 0 0 0-.614.25.834.834 0 0 0-.252.602c.004.34.018.676.033 1.057.013.308.031.613.052.916.256 3.704 1.1 7.087 2.443 9.785.198.398.411.787.634 1.155 1.026 1.702 2.2 2.922 3.493 3.629a.522.522 0 0 0 .438.029c.119.004.253.004.403.004h3.963a.527.527 0 0 0 .43-.032c1.292-.706 2.467-1.928 3.493-3.629.22-.368.434-.757.632-1.155 1.344-2.7 2.189-6.084 2.444-9.785.02-.304.038-.607.051-.918.015-.35.03-.7.033-1.053a.826.826 0 0 0-.25-.603zm-.806 1.616c-.013.3-.03.595-.05.89-.245 3.575-1.056 6.83-2.342 9.416-.187.373-.387.739-.595 1.085-.873 1.448-1.887 2.539-2.943 3.167h-4.06-.508c-1.056-.628-2.07-1.719-2.943-3.168a15.376 15.376 0 0 1-.595-1.084c-1.286-2.585-2.096-5.84-2.343-9.415-.02-.295-.037-.591-.051-.936-.012-.273-.023-.547-.029-.823h16.489c-.006.292-.018.58-.03.868z"/>
        <path fill="#C81C2E" d="M27.65 2.165c-.01.157-.018.305-.029.451-.213 3.099-.935 6.018-2.032 8.223-.154.307-.32.612-.496.904-.607 1.006-1.286 1.787-1.965 2.26l.594.815c.795-.553 1.574-1.441 2.253-2.567.19-.316.37-.643.535-.975 1.153-2.317 1.91-5.369 2.133-8.593.01-.153.02-.304.029-.466l-1.023-.052zM23.275 16.427h-3.573c-.862 0-.947 1.631-.947 1.648 0 .015.1 1.538.97 1.538h3.573c.847 0 .947-1.523.947-1.538 0-.017-.085-1.648-.97-1.648zm-.187 2.186h-3.177a2.141 2.141 0 0 1-.133-.538c.001-.122.076-.456.149-.648h3.146c.073.192.147.526.149.647a2.11 2.11 0 0 1-.134.539zM23.383 20.521a9.476 9.476 0 0 0-3.766 0c-1.696.358-2.709 1.139-2.709 2.087 0 .276.23.5.512.5h8.16a.506.506 0 0 0 .511-.5c0-.948-1.012-1.729-2.708-2.087zm-5.09 1.587c.317-.233.836-.46 1.54-.61a8.408 8.408 0 0 1 3.333 0c.705.15 1.224.377 1.54.61h-6.412z"/>
        <path fill="#00205B" d="M27.522 22.108H15.477a.506.506 0 0 0-.512.5v7.045c0 .277.23.5.512.5h12.045a.506.506 0 0 0 .512-.5v-7.044c0-.277-.229-.5-.512-.5zm-.512 7.045H15.99v-6.044h11.02v6.044z"/>
    </g>
</svg>
