<svg xmlns="http://www.w3.org/2000/svg" width="24" height="24" viewBox="0 0 24 24">
  <path fill="#FFFFFF" fill-rule="nonzero" d="M20.49 3.51c-4.679-4.68-12.295-4.68-16.975 0A11.932 11.932 0 0 0 0 12c0 3.207 1.249 6.222 3.515 8.49A11.964 11.964 0 0 0 12.003 24c3.074 0 6.147-1.17 8.487-3.51 4.68-4.681 4.68-12.298 0-16.98zm-1.314 15.664c-3.955 3.956-10.39 3.956-14.346 0A10.081 10.081 0 0 1 1.86 12c0-2.71 1.055-5.258 2.97-7.175C8.785.87 15.22.87 19.176 4.825c3.954 3.957 3.954 10.394 0 14.35zm-3.167-4.603l-2.632-2.63 2.632-2.628a.93.93 0 1 0-1.315-1.316l-2.633 2.63-2.634-2.63a.93.93 0 1 0-1.315 1.316l2.632 2.629-2.632 2.629a.93.93 0 1 0 1.315 1.316l2.634-2.631 2.634 2.63a.93.93 0 1 0 1.315-1.316z"/>
</svg>
