<svg xmlns="http://www.w3.org/2000/svg" width="24" height="24" viewBox="0 0 24 24">
  <path fill="#00C139" fill-rule="nonzero" d="M12 0C5.383 0 0 5.383 0 12s5.383 12 12 12 12-5.384 12-12S18.617 0 12 0zm0 22.141C6.409 22.141 1.859 17.592 1.859 12S6.409 1.859 12 1.859c5.592 0 10.141 4.549 10.141 10.141S17.591 22.141 12 22.141zm5.506-14.315a.93.93 0 0 0-1.313.064l-5.67 6.243-2.74-2.785a.929.929 0 1 0-1.325 1.304l3.43 3.485a.928.928 0 0 0 .662.278l.018.001a.93.93 0 0 0 .67-.305l6.33-6.971a.93.93 0 0 0-.062-1.314z"/>
</svg>
