<svg xmlns="http://www.w3.org/2000/svg" width="43" height="32" viewBox="0 0 43 32">
  <g fill="none" fill-rule="nonzero">
    <path fill="#00205B" d="M37.937 14.405c-1.463-.741-4.206-.75-4.322-.75a.634.634 0 0 0-.63.639c0 .352.282.638.63.638.708 0 2.763.11 3.76.615a.63.63 0 0 0 .845-.285.642.642 0 0 0-.283-.857z"/>
    <path fill="#00205B" d="M41.078 23.487l-2.602-.753a.267.267 0 0 1-.19-.256v-.88a4.727 4.727 0 0 0 2.02-3.898v-1.214l.252-.51c.276-.56.422-1.186.422-1.811v-3.29a.634.634 0 0 0-.63-.638h-6.062c-2.204 0-3.997 1.817-3.997 4.05 0 .56.121 1.08.35 1.545l.323.654v1.043c0 1.652.804 3.134 2.02 4.026l.001.923c0 .142 0 .2-.52.351l-1.27.368-3.671-1.353a.643.643 0 0 0-.172-.489l-1.173-1.249v-2.097c.124-.104.246-.21.365-.323a7.539 7.539 0 0 0 2.329-5.446v-1.674a7.461 7.461 0 0 0 .673-3.103V.638a.634.634 0 0 0-.63-.638h-9.429C16.17 0 13.47 2.736 13.47 6.098v1.365c0 1.074.226 2.117.673 3.103v1.44c0 2.387 1.047 4.536 2.694 5.954v2.146l-1.173 1.25a.643.643 0 0 0-.172.488l-3.875 1.428c-.281.103-.542.244-.779.413l-.609-.308c1.812-.799 2.386-1.923 2.413-1.979a.646.646 0 0 0 0-.57c-.454-.92-.509-2.608-.553-3.963a34.983 34.983 0 0 0-.055-1.257c-.215-3.062-2.512-5.37-5.343-5.37-2.83 0-5.128 2.308-5.342 5.37-.027.38-.041.806-.056 1.257-.044 1.355-.099 3.042-.553 3.962a.646.646 0 0 0 0 .571c.028.056.6 1.178 2.415 1.978l-1.69.856A2.676 2.676 0 0 0 0 26.634v4.716c0 .353.282.638.63.638.348 0 .63-.285.63-.638v-4.716c0-.537.294-1.02.768-1.26l2.105-1.067.732.706a2.624 2.624 0 0 0 3.652 0l.732-.705.686.347a3.394 3.394 0 0 0-.506 1.782v4.913c0 .353.282.639.63.639.348 0 .63-.286.63-.639v-4.913c0-.876.546-1.666 1.358-1.965l4.086-1.506 1.701 2.586a1.296 1.296 0 0 0 2.006.201l1.038-1.052v6.65c0 .352.282.638.63.638.348 0 .63-.286.63-.639v-6.649l1.037 1.052a1.29 1.29 0 0 0 1.05.38c.39-.039.74-.25.957-.581l1.7-2.586 4.087 1.506c.812.3 1.358 1.09 1.358 1.966v4.912c0 .353.282.639.63.639.348 0 .63-.286.63-.639v-4.912c0-.888-.348-1.72-.932-2.336l.156-.045c.157-.045.371-.107.586-.214l1.608 1.63v5.877c0 .353.282.639.63.639.348 0 .63-.286.63-.639v-5.878l1.597-1.618c.085.044.174.08.268.108l2.602.753c.593.172 1.008.73 1.008 1.355v5.28c0 .353.282.639.63.639.348 0 .63-.286.63-.639v-5.28c0-1.193-.79-2.255-1.922-2.583zM4.04 22.36c-1.178-.43-1.77-1.003-2.022-1.315.172-.456.284-.978.36-1.529.347.844.929 1.565 1.662 2.079v.765zm3.608 1.727a1.377 1.377 0 0 1-1.916 0l-.585-.564c.098-.188.153-.4.153-.623v-.68a4.599 4.599 0 0 0 2.78 0v.68c0 .223.055.436.154.623l-.586.564zm-.957-2.93c-1.881 0-3.411-1.55-3.411-3.456a.634.634 0 0 0-.734-.63l.006-.164c.014-.439.027-.853.052-1.209.08-1.147.533-2.203 1.274-2.976a3.868 3.868 0 0 1 2.812-1.208c1.067 0 2.066.43 2.813 1.208.74.773 1.193 1.83 1.274 2.976.024.356.038.77.052 1.21l.004.113c-.685-1.07-1.744-1.859-3.111-2.304a7.808 7.808 0 0 0-2.396-.384.626.626 0 0 0-.436.194l-1.136 1.195a.644.644 0 0 0 .016.902c.25.245.649.238.89-.016l.946-.994c.815.04 3.435.35 4.454 2.623-.257 1.676-1.678 2.92-3.37 2.92zm2.65 1.205v-.761a4.71 4.71 0 0 0 1.663-2.081c.075.55.187 1.07.358 1.525-.25.31-.844.888-2.022 1.317zm6.061-10.355v-1.584a.645.645 0 0 0-.063-.277 6.19 6.19 0 0 1-.61-2.683V6.098c0-2.658 2.134-4.821 4.757-4.821h8.8v6.186a6.19 6.19 0 0 1-.611 2.683.645.645 0 0 0-.063.277v1.818a6.166 6.166 0 0 1-2.414 4.93l-.011.007a6 6 0 0 1-4.088 1.236c-3.194-.21-5.697-3.024-5.697-6.407zM18.95 24.85c-.005.005-.015.015-.036.013a.04.04 0 0 1-.032-.02l-1.958-2.977.63-.672 2.972 2.059-1.576 1.597zm2.558-2.463l-3.411-2.363v-1.191a7.022 7.022 0 0 0 3.417.87 7.219 7.219 0 0 0 3.405-.845v1.166l-3.411 2.363zm2.625 2.457a.04.04 0 0 1-.031.02c-.021.002-.031-.01-.036-.014l-1.576-1.597 2.972-2.058.63.67-1.959 2.979zm11.502-.539l-1.43-1.448c.026-.115.04-.24.04-.38v-.269a4.364 4.364 0 0 0 1.392.226c.478 0 .945-.074 1.389-.213v.257c0 .127.016.252.045.372l-1.436 1.455zm2.376-4.124a3.361 3.361 0 0 1-2.481.974c-1.823-.055-3.306-1.682-3.306-3.626v-1.194c0-.099-.023-.196-.066-.285l-.39-.789a2.126 2.126 0 0 1-.217-.935v-.038c0-1.53 1.228-2.774 2.737-2.774h5.432v2.65c0 .43-.1.858-.29 1.242l-.317.644a.645.645 0 0 0-.067.285V17.7c0 .943-.367 1.824-1.035 2.481z"/>
    <path fill="#00205B" d="M39.676 26.622a.634.634 0 0 0-.63.639v4.095c0 .352.282.638.63.638.348 0 .63-.286.63-.638V27.26a.634.634 0 0 0-.63-.639zM3.324 27.466a.634.634 0 0 0-.63.639v3.25c0 .353.282.639.63.639.348 0 .63-.286.63-.638v-3.251a.634.634 0 0 0-.63-.639z"/>
    <path fill="#000" d="M26.504 7.896c-2.382-2.415-7.367-1.953-9.4-1.643A1.305 1.305 0 0 0 16 7.56v1.47c0 .353.282.639.63.639.348 0 .63-.286.63-.639V7.56c0-.022.014-.04.033-.043.812-.124 2.423-.316 4.092-.203 1.964.133 3.387.632 4.228 1.485.246.25.645.25.891 0a.644.644 0 0 0 0-.902zM13.63 28a.634.634 0 0 0-.63.638v2.73c0 .353.282.639.63.639.348 0 .63-.286.63-.639v-2.73a.634.634 0 0 0-.63-.638zM28.63 28a.634.634 0 0 0-.63.638v2.73c0 .353.282.639.63.639.348 0 .63-.286.63-.639v-2.73a.634.634 0 0 0-.63-.638z"/>
    <path fill="#C81C2E" d="M31.197 23.197l-3.672-1.353a.643.643 0 0 0-.172-.489l-1.173-1.249v-2.097c.124-.104.246-.21.365-.323a7.539 7.539 0 0 0 2.329-5.446v-1.674a7.461 7.461 0 0 0 .673-3.103V.638a.634.634 0 0 0-.63-.638H19.49C16.17 0 13.47 2.736 13.47 6.098v1.365c0 1.074.226 2.117.673 3.103v1.44c0 2.387 1.047 4.536 2.694 5.954v2.146l-1.173 1.25a.643.643 0 0 0-.172.488l-3.875 1.428c-.28.103-.542.244-.779.413-.386.298-.687.621-.902.97a3.394 3.394 0 0 0-.507 1.782v4.913c0 .353.282.639.63.639.348 0 .63-.286.63-.639v-4.913c0-.876.546-1.666 1.358-1.965l4.086-1.506 1.701 2.586a1.296 1.296 0 0 0 2.007.201l1.037-1.052v6.65c0 .352.282.638.63.638.348 0 .63-.286.63-.639v-6.649l1.038 1.052a1.29 1.29 0 0 0 1.05.38c.39-.039.738-.25.956-.581l1.7-2.586 4.087 1.506c.812.3 1.359 1.09 1.359 1.966v4.912c0 .353.282.639.63.639.347 0 .63-.286.63-.639v-4.912c0-.888-.349-1.72-.932-2.336a3.475 3.475 0 0 0-1.46-.905zm-15.793-11.19v-1.584a.645.645 0 0 0-.062-.277 6.19 6.19 0 0 1-.611-2.683V6.098c0-2.658 2.134-4.821 4.758-4.821h8.799v6.186a6.19 6.19 0 0 1-.611 2.683.645.645 0 0 0-.063.277v1.818a6.166 6.166 0 0 1-2.414 4.93l-.011.007a6 6 0 0 1-4.087 1.236c-3.195-.21-5.698-3.024-5.698-6.407zm3.547 12.843c-.005.005-.015.015-.035.013a.04.04 0 0 1-.032-.02l-1.96-2.977.631-.672 2.972 2.059-1.576 1.597zm2.558-2.463l-3.41-2.363v-1.191a7.022 7.022 0 0 0 3.417.87 7.219 7.219 0 0 0 3.404-.845v1.166l-3.41 2.363zm2.626 2.457a.04.04 0 0 1-.032.02c-.02.002-.03-.01-.035-.014l-1.576-1.597 2.971-2.058.63.67-1.958 2.979zm2.37-16.948a.644.644 0 0 1 0 .902.624.624 0 0 1-.89 0c-.842-.853-2.265-1.352-4.229-1.485-1.67-.113-3.28.079-4.092.203-.019.003-.033.021-.033.043v1.47a.634.634 0 0 1-.63.639.634.634 0 0 1-.63-.639V7.56c0-.659.465-1.208 1.105-1.306 2.033-.31 7.017-.772 9.4 1.643zM13.631 28c.348 0 .63.286.63.638v2.73a.634.634 0 0 1-.63.639.634.634 0 0 1-.63-.639v-2.73c0-.352.282-.638.63-.638zm15 0c.348 0 .63.286.63.638v2.73a.634.634 0 0 1-.63.639.634.634 0 0 1-.63-.639v-2.73c0-.352.282-.638.63-.638z"/>
  </g>
</svg>
