<svg xmlns="http://www.w3.org/2000/svg" width="43" height="32" viewBox="0 0 43 32">
  <g fill="none" fill-rule="nonzero">
    <path fill="#C81C2E" d="M19.653 8.908a.683.683 0 0 0 0 .954c.26.264.68.264.939 0a.682.682 0 0 0 0-.954.656.656 0 0 0-.94 0z"/>
    <path fill="#C81C2E" d="M37.979 21.798l-9.908-8.305a2.046 2.046 0 0 0-.435-2.199 1.974 1.974 0 0 0-.55-.394l.803-.817a2.625 2.625 0 0 0 2.564-.698 2.736 2.736 0 0 0 0-3.82L25.757.793a2.623 2.623 0 0 0-3.756 0 2.734 2.734 0 0 0-.686 2.606l-6.14 6.242a2.62 2.62 0 0 0-2.566.7 2.736 2.736 0 0 0 0 3.819l4.696 4.774a2.629 2.629 0 0 0 3.756 0c.502-.51.778-1.189.778-1.91 0-.24-.03-.474-.09-.7l.801-.813c.096.204.227.393.39.558.58.59 1.429.742 2.149.448l8.2 10.052a3.279 3.279 0 0 0 4.737.047 3.412 3.412 0 0 0 0-4.774.673.673 0 0 0-.047-.043zM22.94 1.746a1.312 1.312 0 0 1 1.878 0l4.696 4.775a1.368 1.368 0 0 1 0 1.91 1.314 1.314 0 0 1-1.877 0l-.006-.006-4.698-4.776a1.369 1.369 0 0 1 .007-1.903zm-2.818 16.232a1.312 1.312 0 0 1-1.878 0l-4.696-4.774a1.368 1.368 0 0 1 0-1.91 1.311 1.311 0 0 1 1.878 0l4.696 4.774a1.367 1.367 0 0 1 0 1.91zm.94-2.864h-.001l-4.695-4.774L22 4.61l.94.955-1.41 1.433a.683.683 0 0 0 0 .955c.26.263.68.263.94 0l1.408-1.433 2.818 2.865-1.863 1.893-.016.017-1.878 1.91-1.879 1.909zm2.817 0a.682.682 0 0 1 0-.955l1.868-1.9a.658.658 0 0 1 .95-.01.681.681 0 0 1-.006.961l-1.873 1.904a.306.306 0 0 1-.021.02l-.005.004a.655.655 0 0 1-.913-.024zM37.087 25.66a1.967 1.967 0 0 1-2.796.02l-8.156-9.996 1.113-1.131 9.86 8.265a2.046 2.046 0 0 1-.021 2.842z"/>
    <path fill="#00205B" d="M5.664 31.992h15.938a.664.664 0 0 0 .658-.675v-2.025c0-.88-.549-1.631-1.322-1.91v-.116c0-1.861-1.49-3.375-3.32-3.375h-7.97c-1.83 0-3.32 1.514-3.32 3.375v.116A2.027 2.027 0 0 0 5 29.292v2.025a.67.67 0 0 0 .664.675zm3.985-6.751h7.969c1.098 0 1.992.908 1.992 2.025H7.657c0-1.117.893-2.025 1.992-2.025zm-3.327 4.05c0-.372.304-.674.67-.674h13.282a.67.67 0 0 1 .664.675v1.35H6.322v-1.35z"/>
    <path fill="#C81C2E" d="M5.664 17.139H8.72a.67.67 0 0 0 .664-.675.67.67 0 0 0-.664-.675H5.664a.67.67 0 0 0-.664.675.67.67 0 0 0 .664.675zM9.189 13.845c.259.264.68.264.939 0a.683.683 0 0 0 0-.955l-1.88-1.909a.656.656 0 0 0-.938 0 .683.683 0 0 0 0 .955l1.879 1.91zM9.189 19.083l-1.88 1.909a.683.683 0 0 0 0 .955c.26.263.68.264.94 0l1.879-1.91a.683.683 0 0 0 0-.954.656.656 0 0 0-.94 0z"/>
  </g>
</svg>
