<svg xmlns="http://www.w3.org/2000/svg" width="40" height="20" viewBox="0 0 40 20">
  <path fill="#ffffff" fill-rule="nonzero" d="M8.76 19.02C9 19.26 9.33 19.4 9.66 19.39C10 19.39 10.32 19.26 10.56 19.02C10.64 18.94 11.25 18.33 11.32 18.26C11.56 18.02 11.7 17.7 11.7 17.35C11.7 17.01 11.56 16.68 11.33 16.44C11 16.11 9.37 14.47 6.43 11.52C25.82 11.52 36.59 11.52 38.75 11.52C39.45 11.52 40 10.97 40 10.26C40 10.16 40 9.29 40 9.18C40 8.48 39.45 7.87 38.75 7.87C36.59 7.87 25.8 7.87 6.37 7.87C9.34 4.9 10.99 3.25 11.32 2.92C11.56 2.69 11.7 2.37 11.7 2.03C11.7 1.69 11.56 1.37 11.32 1.13C11.25 1.06 10.64 0.45 10.56 0.37C10.32 0.13 10 0 9.66 0C9.32 0 9 0.13 8.76 0.37C7.92 1.21 1.21 7.95 0.37 8.79C0.13 9.03 0 9.36 0 9.7C0 10.04 0.13 10.36 0.37 10.6C2.05 12.29 7.92 18.18 8.76 19.02Z"/>
</svg>
