<?xml version="1.0" encoding="iso-8859-1"?>
<!-- Generator: Adobe Illustrator 19.0.0, SVG Export Plug-In . SVG Version: 6.00 Build 0)  -->
<svg version="1.1" id="Layer_1" xmlns="http://www.w3.org/2000/svg" xmlns:xlink="http://www.w3.org/1999/xlink" x="0px" y="0px"
	 viewBox="0 0 512 512" style="enable-background:new 0 0 512 512;" xml:space="preserve">
<path style="fill:#FF9C9F;" d="M467.674,351.194v-30.791c0-10.017,8.122-18.143,18.142-18.143c10.02,0,18.141,8.126,18.141,18.143
	v30.791c0,10.022-8.122,18.143-18.141,18.143C475.796,369.338,467.674,361.215,467.674,351.194z"/>
<g>
	<path style="fill:#4D3D2D;" d="M467.674,320.403c0-34.419-28.002-62.422-62.422-62.422c-34.422,0-62.425,28.003-62.425,62.422
		v41.367c0,10.017-8.122,18.141-18.141,18.141s-18.142-8.124-18.142-18.141v-41.367c0-54.428,44.281-98.707,98.709-98.707
		s98.705,44.279,98.705,98.707H467.674z"/>
	<path style="fill:#4D3D2D;" d="M238.86,419.383h-63.228c-41.665,0-75.565-33.899-75.565-75.564v-41.076
		c0-17.764-14.452-32.217-32.216-32.217c-17.763,0-32.216,14.454-32.216,32.217c0,7.621-6.179,13.795-13.796,13.795
		s-13.795-6.174-13.795-13.795c0-32.978,26.83-59.808,59.808-59.808s59.808,26.83,59.808,59.808v41.077
		c0,26.454,21.521,47.973,47.973,47.973h63.228c7.618,0,13.795,6.179,13.795,13.797C252.655,413.208,246.476,419.383,238.86,419.383
		z"/>
</g>
<path style="fill:#DB8689;" d="M435.005,422.255c7.107,0,12.867,5.759,12.867,12.865c0,7.106-5.759,12.868-12.867,12.868h-39.934
	c-7.106,0-12.868-5.761-12.868-12.868s5.761-12.865,12.868-12.865H435.005z"/>
<path style="fill:#4D3D2D;" d="M339.774,317.031c-36.163,0-65.478,29.315-65.478,65.478s29.316,65.48,65.478,65.48h65.478v-65.48
	C405.252,346.345,375.937,317.031,339.774,317.031z"/>
<g>
	<path style="fill:#65513C;" d="M179.294,299.669c0-51.571,41.808-93.38,93.38-93.38c51.575,0,93.382,41.809,93.382,93.38v54.936
		c0,51.573-41.807,93.383-93.382,93.383c-51.572,0-93.38-41.809-93.38-93.383V299.669z"/>
	<path style="fill:#65513C;" d="M338.097,64.011c55.216,0,99.979,44.762,99.979,99.979c0,55.215-44.763,99.979-99.979,99.979
		h-55.694c-55.216,0-99.978-44.764-99.978-99.979c0-55.217,44.762-99.979,99.978-99.979L338.097,64.011L338.097,64.011z"/>
</g>
<path style="fill:#FF9C9F;" d="M432.563,196.741c3.559-10.26,5.515-21.274,5.515-32.749c0-13.697-2.76-26.746-7.746-38.634
	c-7.851-5.854-16.857-10.242-26.611-12.769c-12.285,3.966-22.522,12.499-28.665,23.624c-7.857-14.229-22.397-24.234-39.381-25.827
	c-39.708,3.03-70.991,36.182-70.991,76.67c0,41.308,32.581,74.969,73.444,76.789c0.95,0.075,1.924,0.128,2.953,0.128h60.684
	c22.465,0,40.677-18.212,40.677-40.679C442.44,213.143,438.712,203.865,432.563,196.741z"/>
<path style="fill:#65513C;" d="M206.104,126.452c-20.733,0-37.539,16.809-37.539,37.539c0,20.734,16.806,37.541,37.539,37.541
	V126.452z"/>
<g>
	<path style="fill:#FF9C9F;" d="M206.104,140.957c-12.725,0-23.036,10.312-23.036,23.033c0,12.723,10.311,23.037,23.036,23.037
		V140.957z"/>
	<path style="fill:#FF9C9F;" d="M323.548,422.255c7.107,0,12.868,5.759,12.868,12.865c0,7.106-5.76,12.868-12.868,12.868h-39.935
		c-7.107,0-12.866-5.761-12.866-12.868s5.758-12.865,12.866-12.865H323.548z"/>
</g>
<path style="fill:#65513C;" d="M228.318,317.031c-36.163,0-65.478,29.315-65.478,65.478s29.316,65.48,65.478,65.48h65.477v-65.48
	C293.794,346.345,264.478,317.031,228.318,317.031z"/>
<path style="fill:#FF9C9F;" d="M210.143,131.812h-30.791c-10.021,0-18.141-8.122-18.141-18.141s8.121-18.141,18.141-18.141h30.791
	c10.02,0,18.143,8.122,18.143,18.141S220.162,131.812,210.143,131.812z"/>
<path style="fill:#65513C;" d="M179.352,131.812c-34.421,0-62.424,28.003-62.424,62.422c0,34.421,28.003,62.424,62.424,62.424
	h41.366c10.019,0,18.141,8.124,18.141,18.143s-8.123,18.139-18.141,18.139h-41.366c-54.429,0-98.709-44.276-98.709-98.707
	c0-54.428,44.28-98.704,98.709-98.704V131.812z"/>
<path style="fill:#1E252B;" d="M493.225,259.994c-10.862-15.775-25.566-28.211-42.753-36.266c0.001-0.146,0.011-0.29,0.011-0.434
	c0-10.11-3.153-19.938-8.956-28.132c3.049-10.104,4.592-20.569,4.592-31.169c0-14.454-2.817-28.5-8.373-41.745
	c-0.028-0.068-0.069-0.13-0.099-0.198l0.019-0.009c-16.927-40.137-56.012-66.072-99.57-66.072h-55.694
	c-28.525,0-56.079,11.444-76.243,31.518h-26.808c-58.863,0-106.751,47.886-106.751,106.747c0,14.902,3.074,29.099,8.614,41.995
	c-4.377-0.878-8.852-1.335-13.365-1.335C30.437,234.893,0,265.33,0,302.743c0,12.041,9.797,21.837,21.837,21.837
	s21.839-9.797,21.839-21.837c0-13.331,10.844-24.175,24.174-24.175s24.174,10.844,24.174,24.175v41.077
	c0,22.025,8.523,42.828,23.998,58.573c14.505,14.76,33.554,23.492,54.004,24.846c13.453,17.489,34.571,28.791,58.29,28.791h95.23
	c1.938,0,3.807-0.286,5.588-0.782c3.506,0.509,7.075,0.782,10.64,0.782h95.23c11.529,0,20.909-9.38,20.909-20.91
	c0-11.528-9.379-20.908-20.909-20.908h-21.711V382.51c0-27.396-15.219-52.369-39.196-65.031v-17.808
	c0-9.446-1.292-18.7-3.838-27.656h31.502c6.67,0,13.027-1.35,18.822-3.785c23.122,6.771,39.047,27.853,39.047,52.175v30.791
	c0,14.439,11.746,26.186,26.185,26.186c14.437,0,26.183-11.747,26.183-26.186v-30.791C512,298.719,505.507,277.83,493.225,259.994z
	 M187.395,103.572h22.749c5.57,0,10.101,4.53,10.101,10.099c0,5.568-4.532,10.099-10.101,10.099h-22.749V103.572z M181.385,202.259
	c3.972,10.491,9.479,20.208,16.469,28.97c-4.883,5.328-9.157,11.15-12.8,17.386h-5.704c-29.986,0-54.382-24.396-54.382-54.382
	c0-25.584,17.765-47.085,41.605-52.848c-3.889,6.801-6.053,14.585-6.053,22.606C160.523,180.019,168.844,194.13,181.385,202.259z
	 M108.109,343.82v-41.077c0-22.199-18.06-40.26-40.259-40.26s-40.259,18.061-40.259,40.26c0,3.172-2.581,5.753-5.754,5.753
	c-3.172,0-5.753-2.581-5.753-5.753c0-28.544,23.222-51.765,51.765-51.765c9.127,0,18.047,2.405,25.897,6.962
	c5.61,7.52,12.188,14.278,19.545,20.09c4.124,7.555,6.322,16.06,6.322,24.713v41.077c0,23.547,14.768,44.42,36.5,52.501
	c0.867,4.542,2.157,8.934,3.821,13.142C130.321,402.307,108.109,375.411,108.109,343.82z M154.951,377.974
	c-11.71-7.106-19.25-19.949-19.25-34.155v-41.076c0-3.889-0.34-7.756-0.999-11.56c11.268,5.209,23.589,8.516,36.551,9.494v35.544
	C161.866,347.768,155.915,362.206,154.951,377.974z M285.752,439.946h-57.435c-31.67,0-57.436-25.766-57.436-57.438
	c0-31.669,25.765-57.436,57.436-57.436c31.669,0,57.435,25.765,57.435,57.436V439.946z M323.548,439.946h-21.711v-9.649h21.711
	c2.66,0,4.825,2.164,4.825,4.823C328.373,437.782,326.208,439.946,323.548,439.946z M331.952,415.99
	c-2.575-1.137-5.415-1.778-8.405-1.778h-21.711v-31.704c0-40.539-32.981-73.52-73.519-73.52c-15.161,0-29.264,4.615-40.981,12.512
	v-20.519h33.382c4.443,0,8.042-3.6,8.042-8.042c0-4.443-3.6-8.042-8.042-8.042h-41.366c-49.993,0-90.666-40.672-90.666-90.664
	c0-47.279,36.386-86.2,82.624-90.286v20.294c-35.08,4.005-62.424,33.858-62.424,69.991c0,38.855,31.61,70.466,70.466,70.466h41.366
	c4.443,0,8.042-3.6,8.042-8.042c0-4.443-3.6-8.042-8.042-8.042H204.32c2.979-3.978,6.3-7.704,9.955-11.138
	c3.213-3.017,3.398-8.058,0.416-11.303c-4.741-5.159-8.804-10.771-12.212-16.757c1.197,0.094,2.403,0.157,3.624,0.157
	c4.441,0,8.042-3.6,8.042-8.042s-3.601-8.042-8.042-8.042c-16.265,0-29.497-13.233-29.497-29.499
	c0-9.734,4.653-18.609,12.542-24.138h8.214c-9.629,3.792-16.466,13.179-16.466,24.138c0,14.303,11.638,25.94,25.94,25.94
	c4.443,0,8.042-3.6,8.042-8.042c0-4.443-3.6-8.042-8.042-8.042c-5.434,0-9.856-4.421-9.856-9.856c0-5.432,4.421-9.852,9.856-9.852
	c4.443,0,8.042-3.6,8.042-8.042c0-2.557-1.197-4.83-3.056-6.303c13.657-0.87,24.505-12.251,24.505-26.123
	c0-8.902-4.47-16.776-11.28-21.509c16.189-12.896,36.465-20.108,57.353-20.108h55.697c28.131,0,54.061,12.716,71.234,33.773
	c-1.189-0.365-2.386-0.711-3.595-1.024c-1.478-0.384-3.036-0.339-4.488,0.132c-10.26,3.312-19.266,9.305-26.197,17.301
	c-9.749-11.233-23.52-18.44-38.625-19.858c-0.455-0.044-0.913-0.048-1.363-0.013c-21.296,1.626-41.064,11.152-55.66,26.827
	c-14.678,15.762-22.761,36.31-22.761,57.863c0,45.491,35.565,82.721,80.99,84.817c1.256,0.098,2.355,0.143,3.45,0.143h12.309
	c3.056,8.884,4.626,18.152,4.626,27.656v54.936C358.014,377.886,348.58,399.938,331.952,415.99z M413.294,430.297h21.711
	c2.659,0,4.824,2.164,4.824,4.823c0,2.66-2.165,4.825-4.824,4.825h-21.711V430.297z M374.099,354.605V336.45
	c14.339,10.697,23.111,27.677,23.111,46.058v57.438h-53.336c0.369-1.552,0.584-3.162,0.584-4.825c0-2.641-0.513-5.159-1.41-7.487
	C362.858,408.552,374.099,382.312,374.099,354.605z M401.763,255.929h-60.684c-0.699,0-1.436-0.032-2.316-0.103
	c-0.093-0.008-0.186-0.013-0.279-0.017c-36.875-1.643-65.76-31.843-65.76-68.755c0-35.544,27.557-65.54,62.868-68.594
	c13.663,1.5,25.747,9.551,32.421,21.639c1.415,2.564,4.112,4.155,7.041,4.155c2.927,0,5.624-1.591,7.04-4.154
	c4.86-8.8,12.585-15.51,21.911-19.088c7.062,2.092,13.685,5.282,19.742,9.51c4.173,10.66,6.287,21.908,6.287,33.469
	c0,10.284-1.706,20.416-5.07,30.113c-0.94,2.711-0.365,5.719,1.51,7.89c5.111,5.919,7.924,13.483,7.924,21.297
	C434.397,241.289,419.757,255.929,401.763,255.929z M436.618,257.286c4.72-4.84,8.451-10.651,10.843-17.108
	c27.349,14.361,45.394,41.404,48.09,72.182H475.25C472.541,288.426,457.881,267.801,436.618,257.286z M495.915,351.194
	c0,5.57-4.53,10.101-10.099,10.101c-5.568,0-10.1-4.532-10.1-10.101v-22.749h20.199V351.194z M392.878,184.628l-4.772,4.771
	c-3.142,3.141-3.142,8.232-0.001,11.374c1.571,1.571,3.629,2.356,5.687,2.356c2.058,0,4.117-0.785,5.686-2.355l4.772-4.771
	c3.142-3.141,3.142-8.232,0.001-11.373C401.11,181.488,396.018,181.487,392.878,184.628z M370.083,184.628
	c-3.142-3.14-8.233-3.14-11.374,0c-3.141,3.142-3.141,8.233,0,11.374l4.771,4.771c1.571,1.57,3.63,2.355,5.687,2.355
	c2.058,0,4.117-0.785,5.687-2.355c3.141-3.142,3.141-8.233,0-11.374L370.083,184.628z M321.541,154.91
	c-4.684,0-8.475,3.793-8.475,8.478c0,4.683,3.792,8.478,8.475,8.478c4.682,0,8.478-3.795,8.478-8.478
	C330.019,158.703,326.223,154.91,321.541,154.91z M429.472,163.388c0-4.685-3.791-8.478-8.475-8.478
	c-4.682,0-8.475,3.793-8.475,8.478c0,4.683,3.794,8.478,8.475,8.478C425.681,171.865,429.472,168.071,429.472,163.388z"/>
<g>
</g>
<g>
</g>
<g>
</g>
<g>
</g>
<g>
</g>
<g>
</g>
<g>
</g>
<g>
</g>
<g>
</g>
<g>
</g>
<g>
</g>
<g>
</g>
<g>
</g>
<g>
</g>
<g>
</g>
</svg>
