<?xml version="1.0" encoding="UTF-8" standalone="no"?>
<!DOCTYPE svg PUBLIC "-//W3C//DTD SVG 1.1//EN" "http://www.w3.org/Graphics/SVG/1.1/DTD/svg11.dtd">
<svg version="1.1" xmlns="http://www.w3.org/2000/svg" xmlns:xlink="http://www.w3.org/1999/xlink" preserveAspectRatio="xMidYMid meet" viewBox="0 0 640 640" width="640" height="640"><defs><path d="M496.17 379.7C506.27 379.7 514.47 390.18 514.47 403.11C514.47 407.09 514.47 438.88 514.47 442.85C514.47 455.78 506.27 466.26 496.17 466.26C486.06 466.27 477.86 455.78 477.86 442.85C477.86 434.9 477.86 407.09 477.86 403.11C477.86 390.18 486.06 379.7 496.17 379.7Z" id="d1IBa7tdiw"></path><path d="M496.17 379.7C506.27 379.7 514.47 390.18 514.47 403.11C514.47 407.09 514.47 438.88 514.47 442.85C514.47 455.78 506.27 466.26 496.17 466.26C486.06 466.27 477.86 455.78 477.86 442.85C477.86 434.9 477.86 407.09 477.86 403.11C477.86 390.18 486.06 379.7 496.17 379.7Z" id="c1FcKuOXwW"></path><path d="M351.92 403.11C351.92 408.45 351.92 451.16 351.92 456.5C351.92 469.43 343.73 479.91 333.62 479.91C323.51 479.91 315.32 469.43 315.32 456.5C315.32 451.16 315.32 408.45 315.32 403.11C315.32 332.87 359.99 275.73 414.89 275.73C469.8 275.73 514.47 332.87 514.47 403.11C512.03 403.11 499.83 403.11 477.86 403.11C477.86 403.11 477.86 403.11 477.86 403.11C459.03 349.41 438.04 322.56 414.89 322.56C380.17 322.56 351.92 358.69 351.92 403.11Z" id="b6VzsnZuw"></path><path d="M351.92 403.11C351.92 408.45 351.92 451.16 351.92 456.5C351.92 469.43 343.73 479.91 333.62 479.91C323.51 479.91 315.32 469.43 315.32 456.5C315.32 451.16 315.32 408.45 315.32 403.11C315.32 332.87 359.99 275.73 414.89 275.73C469.8 275.73 514.47 332.87 514.47 403.11C512.03 403.11 499.83 403.11 477.86 403.11C477.86 403.11 477.86 403.11 477.86 403.11C459.03 349.41 438.04 322.56 414.89 322.56C380.17 322.56 351.92 358.69 351.92 403.11Z" id="g9CMTyWEKG"></path><path d="M107.02 433.33C107.02 428.03 107.02 385.62 107.02 380.32C107.02 357.4 92.44 338.75 74.52 338.75C56.6 338.75 42.02 357.4 42.02 380.32C42.02 390.16 35.79 398.13 28.1 398.13C20.42 398.13 14.18 390.16 14.18 380.32C14.18 337.76 41.25 303.14 74.52 303.14C107.79 303.14 134.85 337.76 134.85 380.32C134.85 385.62 134.85 428.03 134.85 433.33C134.85 467.47 156.57 495.25 183.25 495.25C189.63 495.25 240.66 495.25 247.04 495.25C254.72 495.25 260.95 503.22 260.95 513.05C260.95 522.88 254.72 530.85 247.04 530.85C234.28 530.85 189.63 530.85 183.25 530.85C141.22 530.85 107.02 487.11 107.02 433.33Z" id="fKwZQaHNR"></path><path d="M107.02 433.33C107.02 428.03 107.02 385.62 107.02 380.32C107.02 357.4 92.44 338.75 74.52 338.75C56.6 338.75 42.02 357.4 42.02 380.32C42.02 390.16 35.79 398.13 28.1 398.13C20.42 398.13 14.18 390.16 14.18 380.32C14.18 337.76 41.25 303.14 74.52 303.14C107.79 303.14 134.85 337.76 134.85 380.32C134.85 385.62 134.85 428.03 134.85 433.33C134.85 467.47 156.57 495.25 183.25 495.25C189.63 495.25 240.66 495.25 247.04 495.25C254.72 495.25 260.95 503.22 260.95 513.05C260.95 522.88 254.72 530.85 247.04 530.85C234.28 530.85 189.63 530.85 183.25 530.85C141.22 530.85 107.02 487.11 107.02 433.33Z" id="deiUNwiQh"></path><path d="M444.91 567.77C440.88 567.77 408.65 567.77 404.62 567.77C397.45 567.77 391.64 560.33 391.64 551.16C391.64 541.99 397.45 534.56 404.62 534.56C407.31 534.56 420.74 534.56 444.91 534.56C453.56 539.51 457.89 545.05 457.89 551.16C457.89 560.33 452.08 567.77 444.91 567.77Z" id="a23qlgHlL"></path><path d="M444.91 567.77C440.88 567.77 408.65 567.77 404.62 567.77C397.45 567.77 391.64 560.33 391.64 551.16C391.64 541.99 397.45 534.56 404.62 534.56C407.31 534.56 420.74 534.56 444.91 534.56C453.56 539.51 457.89 545.05 457.89 551.16C457.89 560.33 452.08 567.77 444.91 567.77Z" id="alEiM9lUl"></path><path d="M348.84 567.77C353.24 567.77 375.26 567.77 414.89 567.77C414.89 517.07 414.89 488.9 414.89 483.26C414.89 436.6 385.32 398.76 348.84 398.76C312.36 398.76 282.78 436.6 282.78 483.26C282.78 529.93 312.36 567.77 348.84 567.77Z" id="aNxnJQUEU"></path><path d="M348.84 567.77C353.24 567.77 375.26 567.77 414.89 567.77C414.89 517.07 414.89 488.9 414.89 483.26C414.89 436.6 385.32 398.76 348.84 398.76C312.36 398.76 282.78 436.6 282.78 483.26C282.78 529.93 312.36 567.77 348.84 567.77Z" id="cRpr6av8S"></path><path d="M375.35 376.35C375.35 383.44 375.35 440.16 375.35 447.25C375.35 513.81 333.18 567.77 281.15 567.77C229.12 567.77 186.95 513.81 186.95 447.25C186.95 442.53 186.95 418.89 186.95 376.35C215.06 296.01 246.46 255.84 281.15 255.84C333.18 255.84 375.35 309.8 375.35 376.35Z" id="c1ygqy5eK0"></path><path d="M375.35 376.35C375.35 383.44 375.35 440.16 375.35 447.25C375.35 513.81 333.18 567.77 281.15 567.77C229.12 567.77 186.95 513.81 186.95 447.25C186.95 442.53 186.95 418.89 186.95 376.35C215.06 296.01 246.46 255.84 281.15 255.84C333.18 255.84 375.35 309.8 375.35 376.35Z" id="cVDUCYJGf"></path><path d="M347.15 330.29C341.53 330.29 296.58 330.29 290.96 330.29C235.26 330.29 190.1 272.52 190.1 201.26C190.1 130 235.26 72.23 290.96 72.23C290.96 72.23 347.15 72.23 347.15 72.23C402.85 72.23 448.01 130 448.01 201.26C448.01 272.52 402.85 330.29 347.15 330.29Z" id="lzWRzJQeS"></path><path d="M347.15 330.29C341.53 330.29 296.58 330.29 290.96 330.29C235.26 330.29 190.1 272.52 190.1 201.26C190.1 130 235.26 72.23 290.96 72.23C290.96 72.23 347.15 72.23 347.15 72.23C402.85 72.23 448.01 130 448.01 201.26C448.01 272.52 402.85 330.29 347.15 330.29Z" id="aSwnPqr65"></path><path d="M440.19 151.4C432.27 143.85 423.19 138.18 413.35 134.92C400.95 140.04 390.63 151.05 384.43 165.41C376.5 147.04 361.83 134.13 344.7 132.07C304.64 135.99 273.08 178.77 273.08 231.02C273.08 284.33 305.95 327.77 347.18 330.12C348.13 330.22 349.12 330.29 350.16 330.29C356.28 330.29 405.25 330.29 411.37 330.29C434.04 330.29 452.41 306.78 452.41 277.79C452.41 264.69 448.65 252.72 442.44 243.52C446.03 230.28 448.01 216.07 448.01 201.26C448.01 183.58 445.22 166.74 440.19 151.4Z" id="bgLTQHcdb"></path><path d="M440.19 151.4C432.27 143.85 423.19 138.18 413.35 134.92C400.95 140.04 390.63 151.05 384.43 165.41C376.5 147.04 361.83 134.13 344.7 132.07C304.64 135.99 273.08 178.77 273.08 231.02C273.08 284.33 305.95 327.77 347.18 330.12C348.13 330.22 349.12 330.29 350.16 330.29C356.28 330.29 405.25 330.29 411.37 330.29C434.04 330.29 452.41 306.78 452.41 277.79C452.41 264.69 448.65 252.72 442.44 243.52C446.03 230.28 448.01 216.07 448.01 201.26C448.01 183.58 445.22 166.74 440.19 151.4Z" id="apcKSCI0Y"></path><path d="M321.89 200.48C321.89 206.52 325.72 211.42 330.45 211.42C335.17 211.42 339 206.52 339 200.48C339 194.44 335.17 189.54 330.45 189.54C325.72 189.54 321.89 194.44 321.89 200.48Z" id="f15ajO9uYQ"></path><path d="M321.89 200.48C321.89 206.52 325.72 211.42 330.45 211.42C335.17 211.42 339 206.52 339 200.48C339 194.44 335.17 189.54 330.45 189.54C325.72 189.54 321.89 194.44 321.89 200.48Z" id="a20przFDf6"></path><path d="M422.22 200.48C422.22 206.52 426.05 211.42 430.78 211.42C435.5 211.42 439.33 206.52 439.33 200.48C439.33 194.44 435.5 189.54 430.78 189.54C426.05 189.54 422.22 194.44 422.22 200.48Z" id="bAe9xLkDb"></path><path d="M422.22 200.48C422.22 206.52 426.05 211.42 430.78 211.42C435.5 211.42 439.33 206.52 439.33 200.48C439.33 194.44 435.5 189.54 430.78 189.54C426.05 189.54 422.22 194.44 422.22 200.48Z" id="a5EHsnP8f8"></path><path d="M371.26 237.76C370.03 236.18 370.03 233.63 371.26 232.06C372.49 230.48 374.48 230.48 375.72 232.06C376.24 232.72 380.39 238.04 380.91 238.7C382.14 240.27 382.14 242.83 380.91 244.4C380.29 245.19 379.48 245.58 378.68 245.58C377.87 245.58 377.06 245.19 376.45 244.4C375.93 243.74 371.78 238.42 371.26 237.76Z" id="cu3YDuypP"></path><path d="M371.26 237.76C370.03 236.18 370.03 233.63 371.26 232.06C372.49 230.48 374.48 230.48 375.72 232.06C376.24 232.72 380.39 238.04 380.91 238.7C382.14 240.27 382.14 242.83 380.91 244.4C380.29 245.19 379.48 245.58 378.68 245.58C377.87 245.58 377.06 245.19 376.45 244.4C375.93 243.74 371.78 238.42 371.26 237.76Z" id="aiGMZteJH"></path><path d="M400.99 238.7C401.51 238.04 405.66 232.72 406.18 232.06C407.41 230.48 409.4 230.48 410.64 232.06C411.87 233.63 411.87 236.18 410.64 237.76C410.12 238.42 405.97 243.74 405.45 244.4C404.83 245.19 404.02 245.58 403.22 245.58C402.41 245.58 401.6 245.19 400.99 244.4C399.76 242.83 399.76 240.27 400.99 238.7Z" id="a2Uss4cFrw"></path><path d="M400.99 238.7C401.51 238.04 405.66 232.72 406.18 232.06C407.41 230.48 409.4 230.48 410.64 232.06C411.87 233.63 411.87 236.18 410.64 237.76C410.12 238.42 405.97 243.74 405.45 244.4C404.83 245.19 404.02 245.58 403.22 245.58C402.41 245.58 401.6 245.19 400.99 244.4C399.76 242.83 399.76 240.27 400.99 238.7Z" id="adIax2pmu"></path><path d="M213.99 249.71C213.99 243.25 213.99 210.95 213.99 152.81C188.74 167.28 176.12 183.42 176.12 201.26C176.12 228.02 193.08 249.71 213.99 249.71Z" id="c18ap7tdZ"></path><path d="M213.99 249.71C213.99 243.25 213.99 210.95 213.99 152.81C188.74 167.28 176.12 183.42 176.12 201.26C176.12 228.02 193.08 249.71 213.99 249.71Z" id="bRCuACCTN"></path><path d="M213.99 230.99C213.99 227.03 213.99 207.21 213.99 171.53C198.5 180.4 190.75 190.31 190.75 201.26C190.75 217.68 201.15 230.99 213.99 230.99Z" id="a1xloi1XuM"></path><path d="M213.99 230.99C213.99 227.03 213.99 207.21 213.99 171.53C198.5 180.4 190.75 190.31 190.75 201.26C190.75 217.68 201.15 230.99 213.99 230.99Z" id="a15IJLpWcW"></path><path d="M332.47 567.77C328.44 567.77 296.21 567.77 292.18 567.77C285.01 567.77 279.2 560.33 279.2 551.16C279.2 541.99 285.01 534.56 292.18 534.56C294.87 534.56 308.3 534.56 332.47 534.56C341.12 539.51 345.45 545.05 345.45 551.16C345.45 560.33 339.64 567.77 332.47 567.77Z" id="bpCwXhktu"></path><path d="M332.47 567.77C328.44 567.77 296.21 567.77 292.18 567.77C285.01 567.77 279.2 560.33 279.2 551.16C279.2 541.99 285.01 534.56 292.18 534.56C294.87 534.56 308.3 534.56 332.47 534.56C341.12 539.51 345.45 545.05 345.45 551.16C345.45 560.33 339.64 567.77 332.47 567.77Z" id="c5u01TZOlW"></path><path d="M236.4 567.77C240.8 567.77 262.82 567.77 302.45 567.77C302.45 517.07 302.45 488.9 302.45 483.26C302.45 436.6 272.88 398.76 236.4 398.76C199.92 398.76 170.34 436.6 170.34 483.26C170.34 529.93 199.92 567.77 236.4 567.77Z" id="an298sDUo"></path><path d="M236.4 567.77C240.8 567.77 262.82 567.77 302.45 567.77C302.45 517.07 302.45 488.9 302.45 483.26C302.45 436.6 272.88 398.76 236.4 398.76C199.92 398.76 170.34 436.6 170.34 483.26C170.34 529.93 199.92 567.77 236.4 567.77Z" id="a9pgK5yLZ"></path><path d="M168.7 136.32C168.7 123.38 176.89 112.91 187 112.91C190.11 112.91 214.96 112.91 218.06 112.91C228.17 112.91 236.37 123.38 236.37 136.32C236.37 149.25 228.17 159.73 218.07 159.73C211.85 159.73 190.11 159.73 187 159.73C176.89 159.73 168.7 149.25 168.7 136.32Z" id="cksF0q62z"></path><path d="M168.7 136.32C168.7 123.38 176.89 112.91 187 112.91C190.11 112.91 214.96 112.91 218.06 112.91C228.17 112.91 236.37 123.38 236.37 136.32C236.37 149.25 228.17 159.73 218.07 159.73C211.85 159.73 190.11 159.73 187 159.73C176.89 159.73 168.7 149.25 168.7 136.32Z" id="b4dulApwEU"></path><path d="M187 320.85C191.18 320.85 224.56 320.85 228.73 320.85C238.84 320.85 247.03 331.33 247.03 344.26C247.03 357.19 238.84 367.67 228.73 367.67C224.56 367.67 191.18 367.67 187 367.67C132.09 367.67 87.42 310.53 87.42 240.28C87.42 170.04 132.09 112.9 187 112.9C187 116.02 187 131.63 187 159.73C145.02 183.82 124.03 210.67 124.03 240.29C124.03 284.71 152.28 320.85 187 320.85Z" id="a68eJ31YC"></path><path d="M187 320.85C191.18 320.85 224.56 320.85 228.73 320.85C238.84 320.85 247.03 331.33 247.03 344.26C247.03 357.19 238.84 367.67 228.73 367.67C224.56 367.67 191.18 367.67 187 367.67C132.09 367.67 87.42 310.53 87.42 240.28C87.42 170.04 132.09 112.9 187 112.9C187 116.02 187 131.63 187 159.73C145.02 183.82 124.03 210.67 124.03 240.29C124.03 284.71 152.28 320.85 187 320.85Z" id="k3lUZuIoJH"></path><path d="M560.06 412.18C553.93 423.11 545.89 432.79 536.16 440.96C507.85 464.72 470.57 470.82 443.91 463.12C443.55 463.01 443.2 462.91 442.85 462.8C436.14 460.72 430.61 457.55 426.38 453.4C426.27 453.29 425.73 452.76 424.77 451.81L425.38 440.85C425.77 434 425.99 430.2 426.03 429.43C429.62 429.03 434.18 428.63 442.85 426.63C455.1 423.85 474.77 417.95 491.8 406.4C504.54 397.76 513.79 387.34 519.29 375.41C519.3 375.4 519.34 375.31 519.35 375.29C520.78 372.39 524.68 363.64 525.58 358.01C526.57 351.79 529.99 342.31 535.16 336.21C536.9 334.15 539.07 332.58 541.51 331.6C541.51 329.75 541.51 320.51 541.51 303.87L564.34 303.87C564.34 321.63 564.34 331.5 564.34 333.47C572.94 343.05 574.15 361.22 572.44 374.46C570.71 387.92 566.54 400.61 560.06 412.18Z" id="h3qkH6u7rt"></path><path d="M560.06 412.18C553.93 423.11 545.89 432.79 536.16 440.96C507.85 464.72 470.57 470.82 443.91 463.12C443.55 463.01 443.2 462.91 442.85 462.8C436.14 460.72 430.61 457.55 426.38 453.4C426.27 453.29 425.73 452.76 424.77 451.81C425.14 445.24 425.34 441.58 425.38 440.85C572.62 462.8 553.62 303.87 553.62 303.87C554.33 303.87 557.9 303.87 564.34 303.87C564.34 321.63 564.34 331.5 564.34 333.47C572.94 343.05 574.15 361.22 572.44 374.46C570.71 387.92 566.54 400.61 560.06 412.18Z" id="amKAEaNen"></path><path d="M442.85 462.8C436.14 460.72 430.61 457.55 426.38 453.4C426.27 453.29 425.73 452.76 424.77 451.81L425.38 440.85C425.77 434 425.99 430.2 426.03 429.43C429.62 429.03 434.18 428.63 442.85 426.63C442.85 433.87 442.85 459.18 442.85 462.8Z" id="alyue3c5y"></path><path d="M442.85 462.8C436.14 460.72 430.61 457.55 426.38 453.4C426.27 453.29 425.73 452.76 424.77 451.81C425.14 445.24 425.34 441.58 425.38 440.85C431.49 441.76 437.3 442.36 442.85 442.67C442.85 446.7 442.85 460.78 442.85 462.8Z" id="b25WjoSnVZ"></path><path d="M404.73 283.96C404.73 292.52 398.87 299.47 391.64 299.47C384.41 299.47 378.55 292.52 378.55 283.96C378.55 275.39 384.41 268.44 391.64 268.44C398.87 268.44 404.73 275.39 404.73 283.96Z" id="h8Dbn7XNc"></path></defs><g><g><g><use xlink:href="#d1IBa7tdiw" opacity="1" fill="#ff9c9f" fill-opacity="1"></use><g><use xlink:href="#d1IBa7tdiw" opacity="1" fill-opacity="0" stroke="#000000" stroke-width="1" stroke-opacity="0"></use></g></g><g><use xlink:href="#c1FcKuOXwW" opacity="1" fill="#000000" fill-opacity="0"></use><g><use xlink:href="#c1FcKuOXwW" opacity="1" fill-opacity="0" stroke="#000000" stroke-width="1" stroke-opacity="0"></use></g></g><g><use xlink:href="#b6VzsnZuw" opacity="1" fill="#4d3d2d" fill-opacity="1"></use><g><use xlink:href="#b6VzsnZuw" opacity="1" fill-opacity="0" stroke="#000000" stroke-width="1" stroke-opacity="0"></use></g></g><g><use xlink:href="#g9CMTyWEKG" opacity="1" fill="#000000" fill-opacity="0"></use><g><use xlink:href="#g9CMTyWEKG" opacity="1" fill-opacity="0" stroke="#000000" stroke-width="1" stroke-opacity="0"></use></g></g><g><use xlink:href="#fKwZQaHNR" opacity="1" fill="#4d3d2d" fill-opacity="1"></use><g><use xlink:href="#fKwZQaHNR" opacity="1" fill-opacity="0" stroke="#000000" stroke-width="1" stroke-opacity="0"></use></g></g><g><use xlink:href="#deiUNwiQh" opacity="1" fill="#000000" fill-opacity="0"></use><g><use xlink:href="#deiUNwiQh" opacity="1" fill-opacity="0" stroke="#000000" stroke-width="1" stroke-opacity="0"></use></g></g><g><use xlink:href="#a23qlgHlL" opacity="1" fill="#db8689" fill-opacity="1"></use><g><use xlink:href="#a23qlgHlL" opacity="1" fill-opacity="0" stroke="#000000" stroke-width="1" stroke-opacity="0"></use></g></g><g><use xlink:href="#alEiM9lUl" opacity="1" fill="#000000" fill-opacity="0"></use><g><use xlink:href="#alEiM9lUl" opacity="1" fill-opacity="0" stroke="#000000" stroke-width="1" stroke-opacity="0"></use></g></g><g><use xlink:href="#aNxnJQUEU" opacity="1" fill="#4d3d2d" fill-opacity="1"></use><g><use xlink:href="#aNxnJQUEU" opacity="1" fill-opacity="0" stroke="#000000" stroke-width="1" stroke-opacity="0"></use></g></g><g><use xlink:href="#cRpr6av8S" opacity="1" fill="#000000" fill-opacity="0"></use><g><use xlink:href="#cRpr6av8S" opacity="1" fill-opacity="0" stroke="#000000" stroke-width="1" stroke-opacity="0"></use></g></g><g><use xlink:href="#c1ygqy5eK0" opacity="1" fill="#65513c" fill-opacity="1"></use><g><use xlink:href="#c1ygqy5eK0" opacity="1" fill-opacity="0" stroke="#000000" stroke-width="1" stroke-opacity="0"></use></g></g><g><use xlink:href="#cVDUCYJGf" opacity="1" fill="#000000" fill-opacity="0"></use><g><use xlink:href="#cVDUCYJGf" opacity="1" fill-opacity="0" stroke="#000000" stroke-width="1" stroke-opacity="0"></use></g></g><g><use xlink:href="#lzWRzJQeS" opacity="1" fill="#65513c" fill-opacity="1"></use><g><use xlink:href="#lzWRzJQeS" opacity="1" fill-opacity="0" stroke="#000000" stroke-width="1" stroke-opacity="0"></use></g></g><g><use xlink:href="#aSwnPqr65" opacity="1" fill="#000000" fill-opacity="0"></use><g><use xlink:href="#aSwnPqr65" opacity="1" fill-opacity="0" stroke="#000000" stroke-width="1" stroke-opacity="0"></use></g></g><g><use xlink:href="#bgLTQHcdb" opacity="1" fill="#ff9c9f" fill-opacity="1"></use><g><use xlink:href="#bgLTQHcdb" opacity="1" fill-opacity="0" stroke="#000000" stroke-width="1" stroke-opacity="0"></use></g></g><g><use xlink:href="#apcKSCI0Y" opacity="1" fill="#000000" fill-opacity="0"></use><g><use xlink:href="#apcKSCI0Y" opacity="1" fill-opacity="0" stroke="#000000" stroke-width="1" stroke-opacity="0"></use></g></g><g><use xlink:href="#f15ajO9uYQ" opacity="1" fill="#333e48" fill-opacity="1"></use><g><use xlink:href="#f15ajO9uYQ" opacity="1" fill-opacity="0" stroke="#000000" stroke-width="1" stroke-opacity="0"></use></g></g><g><use xlink:href="#a20przFDf6" opacity="1" fill="#000000" fill-opacity="0"></use><g><use xlink:href="#a20przFDf6" opacity="1" fill-opacity="0" stroke="#000000" stroke-width="1" stroke-opacity="0"></use></g></g><g><use xlink:href="#bAe9xLkDb" opacity="1" fill="#333e48" fill-opacity="1"></use><g><use xlink:href="#bAe9xLkDb" opacity="1" fill-opacity="0" stroke="#000000" stroke-width="1" stroke-opacity="0"></use></g></g><g><use xlink:href="#a5EHsnP8f8" opacity="1" fill="#000000" fill-opacity="0"></use><g><use xlink:href="#a5EHsnP8f8" opacity="1" fill-opacity="0" stroke="#000000" stroke-width="1" stroke-opacity="0"></use></g></g><g><use xlink:href="#cu3YDuypP" opacity="1" fill="#333e48" fill-opacity="1"></use><g><use xlink:href="#cu3YDuypP" opacity="1" fill-opacity="0" stroke="#000000" stroke-width="1" stroke-opacity="0"></use></g></g><g><use xlink:href="#aiGMZteJH" opacity="1" fill="#000000" fill-opacity="0"></use><g><use xlink:href="#aiGMZteJH" opacity="1" fill-opacity="0" stroke="#000000" stroke-width="1" stroke-opacity="0"></use></g></g><g><use xlink:href="#a2Uss4cFrw" opacity="1" fill="#333e48" fill-opacity="1"></use><g><use xlink:href="#a2Uss4cFrw" opacity="1" fill-opacity="0" stroke="#000000" stroke-width="1" stroke-opacity="0"></use></g></g><g><use xlink:href="#adIax2pmu" opacity="1" fill="#000000" fill-opacity="0"></use><g><use xlink:href="#adIax2pmu" opacity="1" fill-opacity="0" stroke="#000000" stroke-width="1" stroke-opacity="0"></use></g></g><g><use xlink:href="#c18ap7tdZ" opacity="1" fill="#65513c" fill-opacity="1"></use><g><use xlink:href="#c18ap7tdZ" opacity="1" fill-opacity="0" stroke="#000000" stroke-width="1" stroke-opacity="0"></use></g></g><g><use xlink:href="#bRCuACCTN" opacity="1" fill="#000000" fill-opacity="0"></use><g><use xlink:href="#bRCuACCTN" opacity="1" fill-opacity="0" stroke="#000000" stroke-width="1" stroke-opacity="0"></use></g></g><g><use xlink:href="#a1xloi1XuM" opacity="1" fill="#ff9c9f" fill-opacity="1"></use><g><use xlink:href="#a1xloi1XuM" opacity="1" fill-opacity="0" stroke="#000000" stroke-width="1" stroke-opacity="0"></use></g></g><g><use xlink:href="#a15IJLpWcW" opacity="1" fill="#000000" fill-opacity="0"></use><g><use xlink:href="#a15IJLpWcW" opacity="1" fill-opacity="0" stroke="#000000" stroke-width="1" stroke-opacity="0"></use></g></g><g><use xlink:href="#bpCwXhktu" opacity="1" fill="#ff9c9f" fill-opacity="1"></use><g><use xlink:href="#bpCwXhktu" opacity="1" fill-opacity="0" stroke="#000000" stroke-width="1" stroke-opacity="0"></use></g></g><g><use xlink:href="#c5u01TZOlW" opacity="1" fill="#000000" fill-opacity="0"></use><g><use xlink:href="#c5u01TZOlW" opacity="1" fill-opacity="0" stroke="#000000" stroke-width="1" stroke-opacity="0"></use></g></g><g><use xlink:href="#an298sDUo" opacity="1" fill="#65513c" fill-opacity="1"></use><g><use xlink:href="#an298sDUo" opacity="1" fill-opacity="0" stroke="#000000" stroke-width="1" stroke-opacity="0"></use></g></g><g><use xlink:href="#a9pgK5yLZ" opacity="1" fill="#000000" fill-opacity="0"></use><g><use xlink:href="#a9pgK5yLZ" opacity="1" fill-opacity="0" stroke="#000000" stroke-width="1" stroke-opacity="0"></use></g></g><g><use xlink:href="#cksF0q62z" opacity="1" fill="#ff9c9f" fill-opacity="1"></use><g><use xlink:href="#cksF0q62z" opacity="1" fill-opacity="0" stroke="#000000" stroke-width="1" stroke-opacity="0"></use></g></g><g><use xlink:href="#b4dulApwEU" opacity="1" fill="#000000" fill-opacity="0"></use><g><use xlink:href="#b4dulApwEU" opacity="1" fill-opacity="0" stroke="#000000" stroke-width="1" stroke-opacity="0"></use></g></g><g><use xlink:href="#a68eJ31YC" opacity="1" fill="#65513c" fill-opacity="1"></use><g><use xlink:href="#a68eJ31YC" opacity="1" fill-opacity="0" stroke="#000000" stroke-width="1" stroke-opacity="0"></use></g></g><g><use xlink:href="#k3lUZuIoJH" opacity="1" fill="#000000" fill-opacity="0"></use><g><use xlink:href="#k3lUZuIoJH" opacity="1" fill-opacity="0" stroke="#000000" stroke-width="1" stroke-opacity="0"></use></g></g><g><use xlink:href="#h3qkH6u7rt" opacity="1" fill="#ffdf48" fill-opacity="1"></use><g><use xlink:href="#h3qkH6u7rt" opacity="1" fill-opacity="0" stroke="#000000" stroke-width="1" stroke-opacity="0"></use></g></g><g><use xlink:href="#amKAEaNen" opacity="1" fill="#ffd400" fill-opacity="1"></use><g><use xlink:href="#amKAEaNen" opacity="1" fill-opacity="0" stroke="#000000" stroke-width="1" stroke-opacity="0"></use></g></g><g><use xlink:href="#alyue3c5y" opacity="1" fill="#c27b48" fill-opacity="1"></use><g><use xlink:href="#alyue3c5y" opacity="1" fill-opacity="0" stroke="#000000" stroke-width="1" stroke-opacity="0"></use></g></g><g><use xlink:href="#b25WjoSnVZ" opacity="1" fill="#a66235" fill-opacity="1"></use><g><use xlink:href="#b25WjoSnVZ" opacity="1" fill-opacity="0" stroke="#000000" stroke-width="1" stroke-opacity="0"></use></g></g><g><use xlink:href="#h8Dbn7XNc" opacity="1" fill="#333e48" fill-opacity="1"></use></g></g></g></svg>