<?xml version="1.0" encoding="UTF-8" standalone="no"?>
<!DOCTYPE svg PUBLIC "-//W3C//DTD SVG 1.1//EN" "http://www.w3.org/Graphics/SVG/1.1/DTD/svg11.dtd">
<svg version="1.1" xmlns="http://www.w3.org/2000/svg" xmlns:xlink="http://www.w3.org/1999/xlink" preserveAspectRatio="xMidYMid meet" viewBox="0 0 668.16 645.12" width="668.16" height="645.12"><defs><path d="M593.17 403.11C593.17 390.18 603.66 379.7 616.59 379.7C629.52 379.7 640 390.18 640 403.11C640 407.09 640 438.88 640 442.85C640 455.78 629.52 466.26 616.59 466.26C603.66 466.27 593.17 455.78 593.17 442.85C593.17 434.9 593.17 407.09 593.17 403.11Z" id="a2mGr3Yttq"></path><path d="M512.62 322.56C468.19 322.56 432.05 358.69 432.05 403.11C432.05 408.45 432.05 451.16 432.05 456.5C432.05 469.43 421.57 479.91 408.64 479.91C395.71 479.91 385.23 469.43 385.23 456.5C385.23 451.16 385.23 408.45 385.23 403.11C385.23 332.87 442.37 275.73 512.62 275.73C582.86 275.73 640 332.87 640 403.11C636.88 403.11 621.27 403.11 593.17 403.11L593.17 403.11C569.08 349.41 542.23 322.56 512.62 322.56Z" id="b1qsxq0NAV"></path><path d="M216.28 530.85C162.51 530.85 118.76 487.11 118.76 433.33C118.76 428.03 118.76 385.62 118.76 380.32C118.76 357.4 100.11 338.75 77.18 338.75C54.26 338.75 35.61 357.4 35.61 380.32C35.61 390.16 27.63 398.13 17.8 398.13C7.97 398.13 0 390.16 0 380.32C0 337.76 34.63 303.14 77.19 303.14C119.75 303.14 154.37 337.76 154.37 380.32C154.37 385.62 154.37 428.03 154.37 433.33C154.37 467.47 182.14 495.25 216.28 495.25C224.44 495.25 289.72 495.25 297.88 495.25C307.71 495.25 315.69 503.22 315.69 513.05C315.68 522.88 307.71 530.85 297.88 530.85C281.56 530.85 224.44 530.85 216.28 530.85Z" id="aTLhsqSHh"></path><path d="M567.62 551.16C567.62 560.33 560.18 567.77 551.01 567.77C545.86 567.77 504.63 567.77 499.48 567.77C490.31 567.77 482.87 560.33 482.87 551.16C482.87 541.99 490.31 534.56 499.48 534.56C502.91 534.56 520.09 534.56 551.01 534.56C562.08 539.51 567.62 545.05 567.62 551.16Z" id="a4DOrEKbEM"></path><path d="M343.61 483.26C343.61 529.93 381.45 567.77 428.11 567.77C433.75 567.77 461.92 567.77 512.62 567.77C512.62 517.07 512.62 488.9 512.62 483.26C512.62 436.6 474.78 398.76 428.11 398.76C381.44 398.76 343.61 436.6 343.61 483.26Z" id="b7k70hXLCA"></path><path d="M341.52 255.84C408.08 255.84 462.03 309.8 462.03 376.35C462.03 383.44 462.03 440.16 462.03 447.25C462.03 513.81 408.08 567.77 341.52 567.77C274.97 567.77 221.01 513.81 221.01 447.25C221.01 442.53 221.01 418.89 221.01 376.35C256.98 296.01 297.15 255.84 341.52 255.84Z" id="cxfmjo9Kv"></path><path d="M554.98 201.26C554.98 272.52 497.21 330.29 425.95 330.29C418.76 330.29 361.26 330.29 354.07 330.29C282.82 330.29 225.05 272.52 225.05 201.26C225.05 130 282.82 72.23 354.07 72.23C354.07 72.23 425.95 72.23 425.95 72.23C497.21 72.23 554.98 130 554.98 201.26Z" id="b1LtaPcRpp"></path><path d="M554.98 201.26C554.98 183.58 551.41 166.74 544.98 151.4C534.85 143.85 523.23 138.18 510.64 134.92C494.78 140.04 481.57 151.05 473.64 165.41C463.5 147.04 444.74 134.13 422.82 132.07C371.58 135.99 331.2 178.77 331.2 231.02C331.2 284.33 373.25 327.77 425.99 330.12C427.21 330.22 428.47 330.29 429.8 330.29C437.63 330.29 500.28 330.29 508.11 330.29C537.11 330.29 560.61 306.78 560.61 277.79C560.61 264.69 555.8 252.72 547.86 243.52C552.45 230.28 554.98 216.07 554.98 201.26Z" id="c1zwwSRUDm"></path><path d="M404.59 211.42C398.54 211.42 393.65 206.52 393.65 200.48C393.65 194.44 398.54 189.54 404.59 189.54C410.63 189.54 415.52 194.44 415.52 200.48C415.52 206.52 410.63 211.42 404.59 211.42Z" id="a1D3n1koHN"></path><path d="M532.93 211.42C526.89 211.42 522 206.52 522 200.48C522 194.44 526.89 189.54 532.93 189.54C538.98 189.54 543.87 194.44 543.87 200.48C543.87 206.52 538.98 211.42 532.93 211.42Z" id="f1Iob4SFt4"></path><path d="M463.44 244.4C462.77 243.74 457.46 238.42 456.8 237.76C455.22 236.18 455.22 233.63 456.8 232.06C458.37 230.48 460.92 230.48 462.5 232.06C463.16 232.72 468.47 238.04 469.14 238.7C470.71 240.27 470.71 242.83 469.14 244.4C468.35 245.19 467.32 245.58 466.29 245.58C465.26 245.58 464.22 245.19 463.44 244.4Z" id="c44mhcuzzU"></path><path d="M494.83 244.4C493.26 242.83 493.26 240.27 494.83 238.7C495.5 238.04 500.81 232.72 501.47 232.06C503.04 230.48 505.6 230.48 507.17 232.06C508.75 233.63 508.75 236.18 507.17 237.76C506.51 238.42 501.2 243.74 500.53 244.4C499.74 245.19 498.71 245.58 497.68 245.58C496.65 245.58 495.62 245.19 494.83 244.4Z" id="bZDuquncS"></path><path d="M207.16 201.26C207.16 228.02 228.85 249.71 255.61 249.71C255.61 243.25 255.61 210.95 255.61 152.81C223.31 167.28 207.16 183.42 207.16 201.26Z" id="gfmtAdEgC"></path><path d="M225.88 201.26C225.88 217.68 239.18 230.99 255.61 230.99C255.61 227.03 255.61 207.21 255.61 171.53C235.79 180.4 225.88 190.31 225.88 201.26Z" id="icfR7lIn9K"></path><path d="M423.78 551.16C423.78 560.33 416.35 567.77 407.17 567.77C402.02 567.77 360.79 567.77 355.64 567.77C346.46 567.77 339.03 560.33 339.03 551.16C339.03 541.99 346.46 534.56 355.64 534.56C359.07 534.56 376.25 534.56 407.17 534.56C418.24 539.51 423.78 545.05 423.78 551.16Z" id="coahPd0LJ"></path><path d="M199.77 483.26C199.77 529.93 237.61 567.77 284.27 567.77C289.91 567.77 318.07 567.77 368.78 567.77C368.78 517.07 368.78 488.9 368.78 483.26C368.78 436.6 330.94 398.76 284.27 398.76C237.6 398.76 199.77 436.6 199.77 483.26Z" id="jhlAO0mq8"></path><path d="M221.08 159.73C208.15 159.73 197.67 149.25 197.67 136.32C197.67 123.38 208.15 112.91 221.08 112.91C225.06 112.91 256.84 112.91 260.82 112.91C273.75 112.91 284.23 123.38 284.23 136.32C284.23 149.25 273.75 159.73 260.82 159.73C252.87 159.73 225.06 159.73 221.08 159.73Z" id="gE5cVQfC"></path><path d="M140.52 240.29C140.52 284.71 176.66 320.85 221.08 320.85C226.42 320.85 269.13 320.85 274.47 320.85C287.4 320.85 297.88 331.33 297.88 344.26C297.88 357.19 287.4 367.67 274.47 367.67C269.13 367.67 226.42 367.67 221.08 367.67C150.84 367.67 93.69 310.53 93.69 240.28C93.69 170.04 150.84 112.9 221.08 112.9C221.08 116.02 221.08 131.63 221.08 159.73C167.38 183.82 140.52 210.67 140.52 240.29Z" id="b1G4BMLM9u"></path><path d="M658.27 426.11C652.76 436.64 645.53 445.97 636.78 453.83C611.32 476.72 577.81 482.59 553.84 475.18C553.51 475.08 553.2 474.98 552.88 474.87C546.85 472.86 541.87 469.82 538.07 465.82C537.97 465.71 537.49 465.21 536.62 464.29L537.18 453.73C537.53 447.13 537.72 443.47 537.76 442.74C540.99 442.35 545.09 441.96 552.88 440.04C563.89 437.35 581.58 431.67 596.9 420.55C608.35 412.23 616.67 402.19 621.61 390.7C621.62 390.69 621.66 390.6 621.67 390.59C622.95 387.79 626.46 379.36 627.27 373.94C628.16 367.95 631.23 358.82 635.88 352.94C637.44 350.96 639.4 349.45 641.59 348.51C641.59 346.72 641.59 337.82 641.59 321.8L662.12 321.8C662.12 338.9 662.12 348.41 662.12 350.31C669.85 359.53 670.94 377.03 669.4 389.79C667.84 402.75 664.1 414.97 658.27 426.11Z" id="a6IGnlZ8Xj"></path><path d="M658.27 426.11C652.76 436.64 645.53 445.97 636.78 453.83C611.32 476.72 577.81 482.59 553.84 475.18C553.51 475.08 553.2 474.98 552.88 474.87C546.85 472.86 541.87 469.82 538.07 465.82C537.97 465.71 537.49 465.21 536.62 464.29C536.95 457.96 537.14 454.44 537.18 453.73C669.57 474.87 652.48 321.8 652.48 321.8C653.12 321.8 656.33 321.8 662.12 321.8C662.12 338.9 662.12 348.41 662.12 350.31C669.85 359.53 670.94 377.03 669.4 389.79C667.84 402.75 664.1 414.97 658.27 426.11Z" id="b46aBPz2gw"></path><path d="M552.88 474.87C546.85 472.86 541.87 469.82 538.07 465.82C537.97 465.71 537.49 465.2 536.62 464.29L537.18 453.73C537.53 447.13 537.72 443.47 537.76 442.73C540.99 442.35 545.09 441.96 552.88 440.04C552.88 447 552.88 471.38 552.88 474.87Z" id="c53Bi4VQgq"></path><path d="M552.88 474.87C546.85 472.86 541.87 469.82 538.07 465.82C537.97 465.71 537.49 465.21 536.62 464.29C536.95 457.96 537.14 454.44 537.18 453.73C542.67 454.61 547.9 455.19 552.88 455.49C552.88 459.36 552.88 472.93 552.88 474.87Z" id="b9EcPwVuk"></path><path d="M482.87 297.12C474.66 297.12 468.01 290.81 468.01 283.03C468.01 275.25 474.66 268.94 482.87 268.94C491.08 268.94 497.74 275.25 497.74 283.03C497.74 290.81 491.08 297.12 482.87 297.12Z" id="a2hM66waQJ"></path></defs><g><g><g><use xlink:href="#a2mGr3Yttq" opacity="1" fill="#ff9c9f" fill-opacity="1"></use><g><use xlink:href="#a2mGr3Yttq" opacity="1" fill-opacity="0" stroke="#000000" stroke-width="1" stroke-opacity="0"></use></g></g><g><use xlink:href="#b1qsxq0NAV" opacity="1" fill="#4d3d2d" fill-opacity="1"></use><g><use xlink:href="#b1qsxq0NAV" opacity="1" fill-opacity="0" stroke="#000000" stroke-width="1" stroke-opacity="0"></use></g></g><g><use xlink:href="#aTLhsqSHh" opacity="1" fill="#4d3d2d" fill-opacity="1"></use><g><use xlink:href="#aTLhsqSHh" opacity="1" fill-opacity="0" stroke="#000000" stroke-width="1" stroke-opacity="0"></use></g></g><g><use xlink:href="#a4DOrEKbEM" opacity="1" fill="#db8689" fill-opacity="1"></use><g><use xlink:href="#a4DOrEKbEM" opacity="1" fill-opacity="0" stroke="#000000" stroke-width="1" stroke-opacity="0"></use></g></g><g><use xlink:href="#b7k70hXLCA" opacity="1" fill="#4d3d2d" fill-opacity="1"></use><g><use xlink:href="#b7k70hXLCA" opacity="1" fill-opacity="0" stroke="#000000" stroke-width="1" stroke-opacity="0"></use></g></g><g><use xlink:href="#cxfmjo9Kv" opacity="1" fill="#65513c" fill-opacity="1"></use><g><use xlink:href="#cxfmjo9Kv" opacity="1" fill-opacity="0" stroke="#000000" stroke-width="1" stroke-opacity="0"></use></g></g><g><use xlink:href="#b1LtaPcRpp" opacity="1" fill="#65513c" fill-opacity="1"></use><g><use xlink:href="#b1LtaPcRpp" opacity="1" fill-opacity="0" stroke="#000000" stroke-width="1" stroke-opacity="0"></use></g></g><g><use xlink:href="#c1zwwSRUDm" opacity="1" fill="#ff9c9f" fill-opacity="1"></use><g><use xlink:href="#c1zwwSRUDm" opacity="1" fill-opacity="0" stroke="#000000" stroke-width="1" stroke-opacity="0"></use></g></g><g><use xlink:href="#a1D3n1koHN" opacity="1" fill="#333e48" fill-opacity="1"></use><g><use xlink:href="#a1D3n1koHN" opacity="1" fill-opacity="0" stroke="#000000" stroke-width="1" stroke-opacity="0"></use></g></g><g><use xlink:href="#f1Iob4SFt4" opacity="1" fill="#333e48" fill-opacity="1"></use><g><use xlink:href="#f1Iob4SFt4" opacity="1" fill-opacity="0" stroke="#000000" stroke-width="1" stroke-opacity="0"></use></g></g><g><use xlink:href="#c44mhcuzzU" opacity="1" fill="#333e48" fill-opacity="1"></use><g><use xlink:href="#c44mhcuzzU" opacity="1" fill-opacity="0" stroke="#000000" stroke-width="1" stroke-opacity="0"></use></g></g><g><use xlink:href="#bZDuquncS" opacity="1" fill="#333e48" fill-opacity="1"></use><g><use xlink:href="#bZDuquncS" opacity="1" fill-opacity="0" stroke="#000000" stroke-width="1" stroke-opacity="0"></use></g></g><g><use xlink:href="#gfmtAdEgC" opacity="1" fill="#65513c" fill-opacity="1"></use><g><use xlink:href="#gfmtAdEgC" opacity="1" fill-opacity="0" stroke="#000000" stroke-width="1" stroke-opacity="0"></use></g></g><g><use xlink:href="#icfR7lIn9K" opacity="1" fill="#ff9c9f" fill-opacity="1"></use><g><use xlink:href="#icfR7lIn9K" opacity="1" fill-opacity="0" stroke="#000000" stroke-width="1" stroke-opacity="0"></use></g></g><g><use xlink:href="#coahPd0LJ" opacity="1" fill="#ff9c9f" fill-opacity="1"></use><g><use xlink:href="#coahPd0LJ" opacity="1" fill-opacity="0" stroke="#000000" stroke-width="1" stroke-opacity="0"></use></g></g><g><use xlink:href="#jhlAO0mq8" opacity="1" fill="#65513c" fill-opacity="1"></use><g><use xlink:href="#jhlAO0mq8" opacity="1" fill-opacity="0" stroke="#000000" stroke-width="1" stroke-opacity="0"></use></g></g><g><use xlink:href="#gE5cVQfC" opacity="1" fill="#ff9c9f" fill-opacity="1"></use><g><use xlink:href="#gE5cVQfC" opacity="1" fill-opacity="0" stroke="#000000" stroke-width="1" stroke-opacity="0"></use></g></g><g><use xlink:href="#b1G4BMLM9u" opacity="1" fill="#65513c" fill-opacity="1"></use><g><use xlink:href="#b1G4BMLM9u" opacity="1" fill-opacity="0" stroke="#000000" stroke-width="1" stroke-opacity="0"></use></g></g><g><use xlink:href="#a6IGnlZ8Xj" opacity="1" fill="#ffdf48" fill-opacity="1"></use><g><use xlink:href="#a6IGnlZ8Xj" opacity="1" fill-opacity="0" stroke="#000000" stroke-width="1" stroke-opacity="0"></use></g></g><g><use xlink:href="#b46aBPz2gw" opacity="1" fill="#ffd400" fill-opacity="1"></use><g><use xlink:href="#b46aBPz2gw" opacity="1" fill-opacity="0" stroke="#000000" stroke-width="1" stroke-opacity="0"></use></g></g><g><use xlink:href="#c53Bi4VQgq" opacity="1" fill="#c27b48" fill-opacity="1"></use><g><use xlink:href="#c53Bi4VQgq" opacity="1" fill-opacity="0" stroke="#000000" stroke-width="1" stroke-opacity="0"></use></g></g><g><use xlink:href="#b9EcPwVuk" opacity="1" fill="#a66235" fill-opacity="1"></use><g><use xlink:href="#b9EcPwVuk" opacity="1" fill-opacity="0" stroke="#000000" stroke-width="1" stroke-opacity="0"></use></g></g><g><use xlink:href="#a2hM66waQJ" opacity="1" fill="#333e48" fill-opacity="1"></use><g><use xlink:href="#a2hM66waQJ" opacity="1" fill-opacity="0" stroke="#000000" stroke-width="1" stroke-opacity="0"></use></g></g></g></g></svg>