<svg xmlns="http://www.w3.org/2000/svg" width="56" height="49" viewBox="0 0 56 49">
  <path fill="#F1F2F6" fill-rule="nonzero" d="M7.183 48.762a2.856 2.856 0 0 1-3.72-1.39l-2.045-4.316c-.683-1.447-.05-3.178 1.413-3.821 3.184-1.407 5.565-3.19 7.137-5.342 1.994-2.727 3.048-4.355 3.156-8.887H2.848A2.849 2.849 0 0 1 0 22.158V2.848A2.849 2.849 0 0 1 2.848 0h19.304A2.849 2.849 0 0 1 25 2.847v13.61c0 6.714-.587 11.981-1.76 15.802-1.173 3.821-3.355 7.26-6.55 10.318-2.615 2.5-5.782 4.562-9.507 6.185zm31 0a2.856 2.856 0 0 1-3.72-1.39l-2.045-4.316c-.683-1.447-.05-3.178 1.413-3.821 3.184-1.407 5.565-3.19 7.137-5.342 1.994-2.727 3.048-4.355 3.156-8.887H33.848A2.849 2.849 0 0 1 31 22.158V2.848A2.849 2.849 0 0 1 33.848 0h19.304A2.849 2.849 0 0 1 56 2.847v13.61c0 6.714-.587 11.981-1.76 15.802-1.173 3.821-3.355 7.26-6.55 10.318-2.615 2.5-5.782 4.562-9.507 6.185z"/>
</svg>
