<svg xmlns="http://www.w3.org/2000/svg" width="40" height="20" viewBox="0 0 40 20">
  <path fill="#FFFFFF" fill-rule="nonzero" d="M39.629 8.808L31.237.388a1.26 1.26 0 0 0-.9-.372c-.34 0-.66.132-.9.373l-.761.764c-.24.24-.371.56-.371.902 0 .342.131.673.37.913l4.897 4.922H1.255C.555 7.89 0 8.441 0 9.145v1.08c0 .704.554 1.31 1.255 1.31h32.372l-4.951 4.95a1.25 1.25 0 0 0-.371.894c0 .341.132.658.371.898l.762.762c.24.24.559.371.9.371.34 0 .66-.132.899-.373l8.392-8.418A1.27 1.27 0 0 0 40 9.714a1.27 1.27 0 0 0-.371-.906z"/>
</svg>
