<svg xmlns="http://www.w3.org/2000/svg" xmlns:xlink="http://www.w3.org/1999/xlink" width="260.247" height="169.788" viewBox="0 0 260.247 169.788" >
  <defs>
    <linearGradient id="linear-gradient" x1="0.455" y1="0.028" x2="0.854" y2="0.219" gradientUnits="objectBoundingBox">
      <stop offset="0" stop-color="#e85260"/>
      <stop offset="1" stop-color="#af1228"/>
    </linearGradient>
    <linearGradient id="linear-gradient-2" x1="1.793" y1="-0.443" x2="0.924" y2="-0.346" xlink:href="#linear-gradient"/>
    <linearGradient id="linear-gradient-3" x1="-1.822" y1="-3.066" x2="-1.822" y2="-1.988" xlink:href="#linear-gradient"/>
  </defs>
  <g id="Rocket" transform="translate(-55.64 -312)">
    <g id="Group_235" data-name="Group 235">
      <path id="Path_819" data-name="Path 819" d="M188.791,424.685l-12.055-17.809-8.089,6.353c-1.229.956-1.874,2.775-1.639,5.226.47,4.9,4.3,10.563,8.517,12.581,2.107,1.009,3.923.92,5.152-.037l.023.034Z" fill="#babdff"/>
      <path id="Path_820" data-name="Path 820" d="M181.876,430.468,205.949,420a259.3,259.3,0,0,0,45.791-25.557q1.431-1.006,2.813-2c23.119-16.648,41.826-39.425,54.685-65.884l6.649-13.682L315.3,312,301.1,314.538a161.284,161.284,0,0,0-75.371,35.327q-1.31,1.1-2.647,2.248a275.016,275.016,0,0,0-36.855,38.758l-16.742,21.3Z" fill="#ccc9ff"/>
      <path id="Path_821" data-name="Path 821" d="M211.723,364.633l-27.333-6.807L125.5,389.974l51.9,14.133,34-37.318Z" fill="#c61e3a"/>
      <path id="Path_822" data-name="Path 822" d="M211.4,366.789l-27.333-6.807L125.5,389.974l51.575,16.288Z" fill="url(#linear-gradient)"/>
      <path id="Path_823" data-name="Path 823" d="M236.846,401.746l-2.435,29.973-46.758,50.069,3.552-57.285,43.629-23.1Z" fill="#c61e3a"/>
      <path id="Path_824" data-name="Path 824" d="M234.835,401.408,232.4,431.38l-44.746,50.407,1.54-57.623Z" fill="url(#linear-gradient-2)"/>
      <path id="Path_825" data-name="Path 825" d="M298.45,345.778a185.9,185.9,0,0,0,10.788-19.221l6.649-13.682L315.3,312,301.1,314.538a160.985,160.985,0,0,0-20.41,5.048A60.4,60.4,0,0,0,298.45,345.778Z" fill="url(#linear-gradient-3)"/>
      <g id="Group_232" data-name="Group 232">
        <path id="Path_826" data-name="Path 826" d="M217.51,358.285c-.039-.4-.05-.781-.066-1.165-.894.816-1.778,1.646-2.661,2.475.974,7.995,4.473,16.485,9.463,23.856,5.005,7.393,11.483,13.624,18.313,17.118,1.009-.644,2.019-1.288,3.021-1.947-.355-.144-.709-.283-1.071-.456C231.118,391.753,219,373.864,217.51,358.285Z" fill="#af1228"/>
      </g>
      <path id="Path_827" data-name="Path 827" d="M265.13,368.967c-5.767,3.268-12.887,1.148-16.6-4.34s-3.388-13.4,1.3-18.269c5.456-5.665,14.557-5.122,19.458,2.117S271.845,365.161,265.13,368.967Z" fill="#af1228"/>
      <path id="Path_828" data-name="Path 828" d="M264.093,366.9a10.5,10.5,0,0,1-13.837-3.617,12.381,12.381,0,0,1,1.081-15.226c4.547-4.721,12.133-4.269,16.217,1.765S269.689,363.727,264.093,366.9Z" fill="#dcd9ee"/>
      <path id="Path_829" data-name="Path 829" d="M55.64,388.3" fill="none" stroke="#dcd9ee" stroke-miterlimit="10" stroke-width="1"/>
      <g id="Group_233" data-name="Group 233">
        <path id="Path_830" data-name="Path 830" d="M267.583,349.868l-15.407-2.592a10.951,10.951,0,0,0-.839.78,11.521,11.521,0,0,0-3.039,6.283l21.373,3.6A12.426,12.426,0,0,0,267.583,349.868Z" fill="#ebf0ff"/>
        <path id="Path_831" data-name="Path 831" d="M268.366,362.41a11.863,11.863,0,0,0,.988-2.607l-21.2-3.566a12.856,12.856,0,0,0,.309,2.825Z" fill="#ebf0ff"/>
      </g>
      <g id="Group_234" data-name="Group 234">
        <path id="Path_832" data-name="Path 832" d="M189.329,427.227a9.231,9.231,0,0,1-3.638-.981c-5.995-2.87-11.419-10.879-12.088-17.855a13.749,13.749,0,0,1-.06-1.383l-1.35,1.717a25.11,25.11,0,0,0,4.306,11.027,23.051,23.051,0,0,0,8.6,7.9,12.691,12.691,0,0,0,1.716.665Z" fill="#af1228"/>
      </g>
    </g>
  </g>
</svg>
