<svg xmlns="http://www.w3.org/2000/svg" width="43" height="32" viewBox="0 0 43 32">
  <g fill="none" fill-rule="nonzero">
    <path fill="#00205B" d="M17.733 19.733c0 .295.24.534.534.534H20.4a.534.534 0 0 0 .533-.534v-3.2A.534.534 0 0 0 20.4 16h-2.133a.534.534 0 0 0-.534.533v3.2zm1.067-2.666h1.067V19.2H18.8v-2.133zM18.267 13.867H20.4a.534.534 0 0 0 .533-.534v-3.2A.534.534 0 0 0 20.4 9.6h-2.133a.534.534 0 0 0-.534.533v3.2c0 .295.24.534.534.534zm.533-3.2h1.067V12.8H18.8v-2.133z"/>
    <path fill="#C81C2E" d="M14.275 10.057L22 5.422l7.725 4.635a.53.53 0 0 0 .732-.182.533.533 0 0 0-.182-.732l-7.742-4.645V1.067H25.2v1.066h-1.6a.534.534 0 0 0 0 1.067h2.133a.534.534 0 0 0 .534-.533V.533A.534.534 0 0 0 25.733 0H22a.534.534 0 0 0-.533.533v3.965l-7.742 4.645a.533.533 0 1 0 .55.914z"/>
    <path fill="#00205B" d="M11.867 20.267a.534.534 0 0 0 .533-.534v-3.2a.534.534 0 0 0-.533-.533H9.733a.534.534 0 0 0-.533.533V17.6a.534.534 0 0 0 1.067 0v-.533h1.066v2.666c0 .295.24.534.534.534z"/>
    <path fill="#C81C2E" d="M15.6 27.2V11.733a.534.534 0 0 0-1.067 0V27.2a.534.534 0 0 0 1.067 0z"/>
    <path fill="#C81C2E" d="M12.933 29.867h18.134a.534.534 0 0 0 0-1.067h-4.8v-5.333h.533a.534.534 0 0 0 0-1.067h-9.6a.534.534 0 0 0 0 1.067h.533V28.8h-4.8a.534.534 0 0 0 0 1.067zm9.6-3.2a.534.534 0 0 0 0-1.067v-2.133H25.2V28.8h-2.667v-2.133zm-3.733-3.2h2.667V25.6a.534.534 0 0 0 0 1.067V28.8H18.8v-5.333z"/>
    <path fill="#00205B" d="M34.267 22.933h-2.134a.534.534 0 0 0-.533.534v3.2c0 .294.239.533.533.533h2.134a.534.534 0 0 0 .533-.533v-3.2a.534.534 0 0 0-.533-.534zm-.534 3.2h-1.066V24h1.066v2.133zM34.267 16.533h-2.134a.534.534 0 0 0-.533.534v3.2c0 .294.239.533.533.533h2.134a.534.534 0 0 0 .533-.533v-3.2a.534.534 0 0 0-.533-.534zm-.534 3.2h-1.066V17.6h1.066v2.133z"/>
    <path fill="#C81C2E" d="M33.2 30.933H10.8a.534.534 0 0 0 0 1.067h22.4a.534.534 0 0 0 0-1.067zM37.467 11.733a.534.534 0 0 0-.534.534v.533h-5.866a.534.534 0 0 0 0 1.067h5.866v17.6a.534.534 0 0 0 1.067 0v-19.2a.534.534 0 0 0-.533-.534z"/>
    <path fill="#00205B" d="M23.067 19.733c0 .295.239.534.533.534h2.133a.534.534 0 0 0 .534-.534v-3.2a.534.534 0 0 0-.534-.533H23.6a.534.534 0 0 0-.533.533v3.2zm1.066-2.666H25.2V19.2h-1.067v-2.133z"/>
    <path fill="#C81C2E" d="M11.333 26.133c0-.069-.03-6.933-2.666-6.933C6.03 19.2 6 26.064 6 26.133c0 1.288.918 2.365 2.133 2.613v2.72a.534.534 0 0 0 1.067 0v-2.72a2.671 2.671 0 0 0 2.133-2.613zm-2.666 1.6c-.882 0-1.6-.718-1.6-1.6 0-2.657.713-5.866 1.6-5.866.886 0 1.6 3.21 1.6 5.866 0 .882-.718 1.6-1.6 1.6zM29.467 27.2v-16a.534.534 0 0 0-1.067 0v16a.534.534 0 0 0 1.067 0z"/>
    <path fill="#00205B" d="M23.6 13.867h2.133a.534.534 0 0 0 .534-.534v-3.2a.534.534 0 0 0-.534-.533H23.6a.534.534 0 0 0-.533.533v3.2c0 .295.239.534.533.534zm.533-3.2H25.2V12.8h-1.067v-2.133z"/>
    <path fill="#C81C2E" d="M6.533 18.667a.534.534 0 0 0 .534-.534v-4.266h5.866a.534.534 0 0 0 0-1.067H7.067v-.533a.534.534 0 0 0-1.067 0v5.866c0 .295.239.534.533.534z"/>
  </g>
</svg>
