<svg xmlns="http://www.w3.org/2000/svg" width="28" height="28" viewBox="0 0 28 28">
  <g fill="none" fill-rule="evenodd">
    <path d="M0 0h28v28H0z"/>
    <path fill="#E3E3E3" fill-rule="nonzero" d="M14 26.727c7.03 0 12.727-5.698 12.727-12.727C26.727 6.97 21.03 1.273 14 1.273 6.97 1.273 1.273 6.97 1.273 14c0 7.03 5.698 12.727 12.727 12.727zM14 28C6.268 28 0 21.732 0 14S6.268 0 14 0s14 6.268 14 14-6.268 14-14 14zm-2.267-5.727h3.103v-7.32h2.071l.275-2.521h-2.346l.004-1.263c0-.657.064-1.01 1.033-1.01h1.295V7.636h-2.072c-2.488 0-3.363 1.224-3.363 3.282v1.514h-1.551v2.522h1.55v7.319z"/>
  </g>
</svg>
