<svg xmlns="http://www.w3.org/2000/svg" width="28" height="28" viewBox="0 0 28 28">
  <g fill="none" fill-rule="evenodd">
    <path d="M0 0h28v28H0z"/>
    <path fill="#E3E3E3" fill-rule="nonzero" d="M14 26.727c7.03 0 12.727-5.698 12.727-12.727C26.727 6.97 21.03 1.273 14 1.273 6.97 1.273 1.273 6.97 1.273 14c0 7.03 5.698 12.727 12.727 12.727zM14 28C6.268 28 0 21.732 0 14S6.268 0 14 0s14 6.268 14 14-6.268 14-14 14zm5.426-17.28a2.87 2.87 0 0 0 1.205-1.6 5.317 5.317 0 0 1-1.742.702 2.669 2.669 0 0 0-2-.913c-1.515 0-2.741 1.295-2.741 2.891 0 .227.022.448.07.659-2.278-.12-4.298-1.27-5.651-3.021a3.006 3.006 0 0 0-.371 1.454c0 1.003.484 1.888 1.22 2.407a2.644 2.644 0 0 1-1.243-.361v.036c0 1.4.944 2.57 2.2 2.835-.23.067-.472.101-.723.101-.177 0-.35-.017-.515-.05.348 1.147 1.36 1.985 2.56 2.007a5.323 5.323 0 0 1-4.059 1.198 7.476 7.476 0 0 0 4.203 1.299c5.044 0 7.8-4.406 7.8-8.228 0-.125-.001-.25-.007-.374A5.731 5.731 0 0 0 21 10.265c-.492.23-1.02.386-1.574.455z"/>
  </g>
</svg>
