<svg xmlns="http://www.w3.org/2000/svg" width="28" height="28" viewBox="0 0 28 28">
  <g fill="none" fill-rule="evenodd">
    <path d="M0 0h28v28H0z"/>
    <path fill="#E3E3E3" d="M8.344 11.992a3.733 3.733 0 0 1-.914-.82c-.287-.349-.43-.672-.43-.97 0-.37.108-.677.324-.924.216-.246.525-.369.926-.369h11.5c.338 0 .631.111.879.334.247.222.371.49.371.803 0 .374-.128.731-.383 1.072a3.56 3.56 0 0 1-.953.873 6552.894 6552.894 0 0 0-3.656 2.309 34.89 34.89 0 0 0-.332.216c-.17.112-.31.202-.422.27a8.373 8.373 0 0 1-.406.231 2.48 2.48 0 0 1-.45.192 1.35 1.35 0 0 1-.39.064h-.016c-.12 0-.25-.021-.39-.064a2.476 2.476 0 0 1-.45-.192 8.262 8.262 0 0 1-.406-.23 16.317 16.317 0 0 1-.422-.27l-.332-.217c-.474-.303-1.156-.735-2.047-1.296-.89-.561-1.424-.899-1.601-1.012zm11.875.737c.297-.19.557-.403.781-.638v5.826c0 .323-.122.599-.367.829-.245.23-.54.345-.883.345H8.25c-.344 0-.638-.115-.883-.345a1.097 1.097 0 0 1-.367-.83v-5.825c.23.24.492.452.79.638 1.884 1.204 3.179 2.047 3.882 2.532.297.205.538.365.723.48.184.115.43.233.738.352.307.12.594.18.86.18h.015c.266 0 .552-.06.86-.18.307-.12.553-.237.737-.352.185-.115.426-.275.723-.48a163.07 163.07 0 0 1 3.89-2.532zM14 26.727c7.03 0 12.727-5.698 12.727-12.727C26.727 6.97 21.03 1.273 14 1.273 6.97 1.273 1.273 6.97 1.273 14c0 7.03 5.698 12.727 12.727 12.727zM14 28C6.268 28 0 21.732 0 14S6.268 0 14 0s14 6.268 14 14-6.268 14-14 14z"/>
  </g>
</svg>
