<svg xmlns="http://www.w3.org/2000/svg" width="23" height="24" viewBox="0 0 23 24">
  <g fill="#000" fill-rule="nonzero">
    <path d="M5.273 17.033c-.599 0-1.107.21-1.526.63-.419.42-.628.93-.628 1.53s.209 1.109.628 1.529c.419.42.927.63 1.526.63.588 0 1.094-.21 1.518-.63.424-.42.636-.93.636-1.53s-.212-1.109-.636-1.53c-.424-.419-.93-.63-1.518-.63zM4.794 12.475c0-.66-.234-1.224-.703-1.695a2.302 2.302 0 0 0-1.69-.704c-.658 0-1.222.235-1.69.704a2.313 2.313 0 0 0-.704 1.695c0 .66.235 1.224.703 1.694.47.47 1.033.705 1.69.705.659 0 1.222-.235 1.691-.705.469-.47.703-1.035.703-1.694zM18.675 6.957c.33 0 .611-.117.845-.352.235-.235.352-.518.352-.847 0-.33-.117-.613-.352-.847a1.15 1.15 0 0 0-.845-.353c-.329 0-.61.118-.845.353a1.157 1.157 0 0 0-.352.847c0 .33.118.612.352.847.234.235.516.352.845.352zM5.273 3.119c-.728 0-1.349.257-1.863.772a2.546 2.546 0 0 0-.77 1.867c0 .73.257 1.352.77 1.866a2.534 2.534 0 0 0 1.863.773c.728 0 1.349-.258 1.862-.773.514-.514.77-1.137.77-1.866 0-.73-.256-1.352-.77-1.867a2.534 2.534 0 0 0-1.862-.772zM22.564 11.455c-.279-.28-.618-.42-1.017-.42-.399 0-.738.14-1.017.42a1.39 1.39 0 0 0-.418 1.02c0 .4.14.74.418 1.02.28.28.618.42 1.017.42.4 0 .738-.14 1.017-.42.28-.28.419-.62.419-1.02s-.14-.74-.419-1.02zM18.675 17.513a1.61 1.61 0 0 0-1.182.495c-.329.33-.493.724-.493 1.184 0 .46.164.855.493 1.185.33.33.723.495 1.182.495.459 0 .853-.165 1.182-.495.33-.33.494-.725.494-1.185 0-.46-.165-.854-.494-1.184a1.61 1.61 0 0 0-1.182-.495zM11.974 20.151c-.529 0-.98.188-1.354.563-.374.375-.56.827-.56 1.357s.186.982.56 1.357c.374.375.825.562 1.354.562.529 0 .98-.187 1.354-.562a1.85 1.85 0 0 0 .56-1.357c0-.53-.186-.982-.56-1.357a1.843 1.843 0 0 0-1.354-.563zM11.974 0c-.798 0-1.476.28-2.035.84a2.78 2.78 0 0 0-.837 2.039c0 .8.279 1.48.837 2.039.559.56 1.237.84 2.035.84s1.476-.28 2.034-.84a2.78 2.78 0 0 0 .838-2.04c0-.799-.28-1.478-.838-2.038A2.766 2.766 0 0 0 11.974 0z"/>
  </g>
</svg>
