<?xml version="1.0" encoding="iso-8859-1"?>
<!-- Generator: Adobe Illustrator 19.0.0, SVG Export Plug-In . SVG Version: 6.00 Build 0)  -->
<svg version="1.1" id="Layer_1" xmlns="http://www.w3.org/2000/svg" xmlns:xlink="http://www.w3.org/1999/xlink" x="0px" y="0px"
	 viewBox="0 0 512 512" style="enable-background:new 0 0 512 512;" xml:space="preserve">
<path style="fill:#CEA05D;" d="M406.905,61.979v21.558c0,11.906-9.651,21.558-21.558,21.558l0,0
	c-5.953,0-10.779,4.826-10.779,10.779v86.232H94.316v-86.232c0-5.953-4.826-10.779-10.779-10.779l0,0
	c-11.906,0-21.558-9.651-21.558-21.558V61.979c0-11.906,9.651-21.558,21.558-21.558h10.779h280.253h10.779
	C397.254,40.421,406.905,50.073,406.905,61.979z"/>
<path style="fill:#99774F;" d="M331.453,148.211v21.558c0,35.718-28.955,64.674-64.674,64.674h-64.674
	c-35.718,0-64.674-28.955-64.674-64.674v-21.558c0-35.718,28.955-64.674,64.674-64.674h64.674
	C302.497,83.537,331.453,112.492,331.453,148.211z"/>
<path style="fill:#E55D30;" d="M61.979,417.684h64.674v53.895c0,17.86-14.477,32.337-32.337,32.337s-32.337-14.477-32.337-32.337
	V417.684z M342.232,471.579c0,17.86,14.477,32.337,32.337,32.337c17.86,0,32.337-14.477,32.337-32.337v-53.895h-64.674V471.579z
	 M482.358,223.663h-43.116v86.232h43.116c11.906,0,21.558-9.651,21.558-21.558v-43.116
	C503.916,233.315,494.264,223.663,482.358,223.663z"/>
<path style="fill:#FF8D40;" d="M460.8,212.884v215.579c0,23.812-19.304,43.116-43.116,43.116H51.2
	c-23.812,0-43.116-19.304-43.116-43.116V212.884c0-23.812,19.304-43.116,43.116-43.116h366.484
	C441.496,169.768,460.8,189.072,460.8,212.884z"/>
<path style="fill:#FFC248;" d="M460.8,212.884v59.284H8.084v-59.284c0-23.812,19.304-43.116,43.116-43.116h366.484
	C441.496,169.768,460.8,189.072,460.8,212.884z"/>
<path style="fill:#FFEE92;" d="M288.337,293.726H180.547c-11.906,0-21.558-9.651-21.558-21.558v-10.779
	c0-11.906,9.651-21.558,21.558-21.558h107.789c11.906,0,21.558,9.651,21.558,21.558v10.779
	C309.895,284.075,300.243,293.726,288.337,293.726z"/>
<path d="M226.358,105.095V8.084c0-4.465,3.62-8.084,8.084-8.084c4.465,0,8.084,3.62,8.084,8.084v97.011
	c0,4.465-3.62,8.084-8.084,8.084C229.977,113.179,226.358,109.559,226.358,105.095z M277.558,113.179
	c4.466,0,8.084-3.62,8.084-8.084V8.084c0-4.465-3.618-8.084-8.084-8.084s-8.084,3.62-8.084,8.084v97.011
	C269.474,109.559,273.092,113.179,277.558,113.179z M309.895,48.505h75.453c7.43,0,13.474,6.044,13.474,13.474v21.558
	c0,7.43-6.044,13.474-13.474,13.474c-10.401,0-18.863,8.463-18.863,18.863v21.558c0,4.465,3.618,8.084,8.084,8.084
	c4.466,0,8.084-3.62,8.084-8.084v-21.558c0-1.485,1.208-2.695,2.695-2.695c16.344,0,29.642-13.297,29.642-29.642V61.979
	c0-16.345-13.298-29.642-29.642-29.642h-75.453c-4.466,0-8.084,3.62-8.084,8.084S305.429,48.505,309.895,48.505z M191.326,113.179
	c4.465,0,8.084-3.62,8.084-8.084V8.084c0-4.465-3.62-8.084-8.084-8.084c-4.465,0-8.084,3.62-8.084,8.084v97.011
	C183.242,109.559,186.862,113.179,191.326,113.179z M180.547,301.811c-16.345,0-29.642-13.297-29.642-29.642v-10.779
	c0-16.345,13.297-29.642,29.642-29.642h107.789c16.344,0,29.642,13.297,29.642,29.642v10.779c0,16.345-13.298,29.642-29.642,29.642
	H180.547z M180.547,285.642h107.789c7.43,0,13.474-6.044,13.474-13.474v-10.779c0-7.43-6.044-13.474-13.474-13.474H180.547
	c-7.43,0-13.474,6.044-13.474,13.474v10.779C167.074,279.598,173.117,285.642,180.547,285.642z M512,245.221v43.116
	c0,16.345-13.298,29.642-29.642,29.642h-13.474v24.253c0,4.465-3.618,8.084-8.084,8.084s-8.084-3.62-8.084-8.084v-61.979H342.232
	c-4.466,0-8.084-3.62-8.084-8.084c0-4.465,3.618-8.084,8.084-8.084h110.484v-51.2c0-19.316-15.715-35.032-35.032-35.032H51.2
	c-19.316,0-35.032,15.716-35.032,35.032v51.2h110.484c4.465,0,8.084,3.62,8.084,8.084c0,4.465-3.62,8.084-8.084,8.084H16.168v51.2
	c0,4.465-3.62,8.084-8.084,8.084S0,335.917,0,331.453V212.884c0-28.231,22.969-51.2,51.2-51.2h366.484
	c28.231,0,51.2,22.969,51.2,51.2v2.695h13.474C498.702,215.579,512,228.876,512,245.221z M495.832,245.221
	c0-7.43-6.044-13.474-13.474-13.474h-13.474v70.063h13.474c7.43,0,13.474-6.044,13.474-13.474V245.221z M83.537,113.179
	c1.485,0,2.695,1.209,2.695,2.695v21.558c0,4.465,3.62,8.084,8.084,8.084s8.084-3.62,8.084-8.084v-21.558
	c0-10.401-8.463-18.863-18.863-18.863c-7.43,0-13.474-6.044-13.474-13.474V61.979c0-7.43,6.044-13.474,13.474-13.474h75.453
	c4.465,0,8.084-3.62,8.084-8.084s-3.62-8.084-8.084-8.084H83.537c-16.345,0-29.642,13.297-29.642,29.642v21.558
	C53.895,99.882,67.192,113.179,83.537,113.179z M468.884,374.568v53.895c0,28.231-22.969,51.2-51.2,51.2h-3.506
	C410.421,498.09,394.088,512,374.568,512c-19.52,0-35.853-13.91-39.609-32.337H133.925C130.169,498.09,113.836,512,94.316,512
	s-35.853-13.91-39.609-32.337H51.2c-28.231,0-51.2-22.969-51.2-51.2v-64.674c0-4.465,3.62-8.084,8.084-8.084s8.084,3.62,8.084,8.084
	v64.674c0,19.316,15.716,35.032,35.032,35.032h366.484c19.317,0,35.032-15.716,35.032-35.032v-53.895
	c0-4.465,3.618-8.084,8.084-8.084S468.884,370.104,468.884,374.568z M117.183,479.663H71.448
	c3.336,9.41,12.328,16.168,22.868,16.168S113.847,489.073,117.183,479.663z M397.436,479.663h-45.735
	c3.337,9.41,12.328,16.168,22.868,16.168C385.108,495.832,394.099,489.073,397.436,479.663z"/>
<g>
</g>
<g>
</g>
<g>
</g>
<g>
</g>
<g>
</g>
<g>
</g>
<g>
</g>
<g>
</g>
<g>
</g>
<g>
</g>
<g>
</g>
<g>
</g>
<g>
</g>
<g>
</g>
<g>
</g>
</svg>
