<?xml version="1.0" encoding="UTF-8" standalone="no"?>
<!DOCTYPE svg PUBLIC "-//W3C//DTD SVG 1.1//EN" "http://www.w3.org/Graphics/SVG/1.1/DTD/svg11.dtd">
<svg version="1.1" xmlns="http://www.w3.org/2000/svg" xmlns:xlink="http://www.w3.org/1999/xlink" preserveAspectRatio="xMidYMid meet" viewBox="0 0 640 640" width="640" height="640"><defs><path d="M420 0C464.18 0 500 35.82 500 80C500 102.1 482.08 140 460 140C459.96 146.67 459.78 180 459.46 240L140.38 240C140.14 180 140.01 146.67 139.98 140C117.88 140 99.98 102.1 99.98 80C100 35.82 135.82 0 180 0C228 0 396 0 420 0Z" id="e6MpgQRSS"></path><path d="M426.56 0.27L429.79 0.59L432.98 1.05L436.12 1.63L439.22 2.33L442.28 3.14L445.28 4.08L448.24 5.13L451.14 6.29L453.98 7.56L456.76 8.93L459.48 10.41L462.14 11.99L464.73 13.66L467.25 15.44L469.69 17.3L472.06 19.26L474.35 21.3L476.57 23.43L478.7 25.65L480.74 27.94L482.7 30.31L484.56 32.75L486.34 35.27L488.01 37.86L489.59 40.52L491.07 43.24L492.44 46.02L493.71 48.86L494.87 51.76L495.92 54.71L496.85 57.72L497.67 60.78L498.37 63.88L498.95 67.02L499.41 70.21L499.73 73.44L499.93 76.7L500 80L499.97 81.69L499.87 83.43L499.7 85.22L499.47 87.05L499.19 88.92L498.84 90.83L498.43 92.77L497.96 94.73L497.43 96.7L496.85 98.7L496.22 100.7L495.53 102.71L494.79 104.71L494 106.71L493.16 108.7L492.28 110.67L491.34 112.62L490.37 114.54L489.34 116.43L488.28 118.29L487.17 120.1L486.03 121.87L484.84 123.58L483.62 125.24L482.36 126.84L481.06 128.37L479.74 129.83L478.38 131.22L476.99 132.52L475.56 133.73L474.11 134.85L472.64 135.88L471.14 136.8L469.61 137.62L468.06 138.33L466.48 138.92L464.89 139.38L463.28 139.72L461.65 139.93L460 140L459.46 240L140.4 240L140 140L138.35 139.93L136.72 139.72L135.1 139.38L133.51 138.92L131.94 138.33L130.38 137.62L128.86 136.8L127.35 135.88L125.88 134.85L124.43 133.73L123 132.52L121.61 131.22L120.25 129.83L118.93 128.37L117.63 126.84L116.37 125.24L115.15 123.58L113.96 121.87L112.82 120.1L111.71 118.29L110.65 116.43L109.63 114.54L108.65 112.62L107.71 110.67L106.83 108.7L105.99 106.71L105.2 104.71L104.46 102.71L103.78 100.7L103.14 98.7L102.56 96.7L102.04 94.73L101.57 92.77L101.16 90.83L100.81 88.92L100.52 87.05L100.3 85.22L100.13 83.43L100.03 81.69L100 80L100.07 76.7L100.26 73.44L100.59 70.21L101.05 67.02L101.63 63.88L102.32 60.78L103.14 57.72L104.08 54.71L105.13 51.76L106.29 48.86L107.56 46.02L108.93 43.24L110.41 40.52L111.99 37.86L113.66 35.27L115.44 32.75L117.3 30.31L119.26 27.94L121.3 25.65L123.43 23.43L125.65 21.3L127.94 19.26L130.31 17.3L132.75 15.44L135.27 13.66L137.86 11.99L140.52 10.41L143.24 8.93L146.02 7.56L148.86 6.29L151.76 5.13L154.71 4.08L157.72 3.14L160.78 2.33L163.88 1.63L167.02 1.05L170.21 0.59L173.44 0.27L176.7 0.07L180 0L420 0L423.3 0.07L426.56 0.27ZM177.53 20.05L175.09 20.2L172.67 20.45L170.28 20.79L167.93 21.22L165.6 21.75L163.31 22.36L161.06 23.07L158.84 23.85L156.67 24.72L154.54 25.68L152.45 26.71L150.41 27.82L148.42 29L146.48 30.26L144.59 31.59L142.76 32.99L140.98 34.46L139.26 36L137.6 37.6L136 39.26L134.46 40.98L132.99 42.76L131.59 44.59L130.26 46.48L129 48.42L127.82 50.41L126.71 52.45L125.68 54.54L124.72 56.67L123.85 58.84L123.06 61.06L122.36 63.31L121.75 65.6L121.22 67.93L120.79 70.28L120.45 72.67L120.2 75.09L120.05 77.53L120 80L120.03 81.25L120.1 82.51L120.22 83.79L120.39 85.09L120.6 86.41L120.85 87.73L121.14 89.06L121.46 90.39L121.82 91.73L122.22 93.07L122.65 94.4L123.1 95.73L123.59 97.05L124.1 98.36L124.63 99.66L125.19 100.94L125.76 102.2L126.36 103.44L126.96 104.66L127.59 105.85L128.22 107.01L128.87 108.14L129.52 109.23L130.18 110.29L130.85 111.31L131.51 112.28L132.18 113.21L132.85 114.1L133.51 114.93L134.17 115.71L134.82 116.43L135.46 117.1L136.09 117.7L136.7 118.24L137.31 118.71L137.89 119.12L138.46 119.45L139 119.71L139.52 119.9L140.02 120L159.96 120L160.3 220L439.58 220L440.12 120L460 120L460.49 119.89L461.01 119.71L461.55 119.45L462.11 119.11L462.69 118.7L463.29 118.22L463.9 117.68L464.53 117.07L465.17 116.41L465.82 115.68L466.47 114.9L467.13 114.07L467.8 113.18L468.46 112.25L469.13 111.28L469.8 110.26L470.46 109.2L471.11 108.1L471.76 106.97L472.39 105.81L473.02 104.62L473.63 103.41L474.22 102.16L474.8 100.9L475.35 99.62L475.89 98.33L476.4 97.02L476.89 95.7L477.34 94.37L477.77 93.04L478.17 91.7L478.53 90.37L478.86 89.03L479.15 87.71L479.4 86.39L479.61 85.08L479.78 83.78L479.9 82.5L479.97 81.24L480 80L479.95 77.53L479.8 75.09L479.55 72.67L479.21 70.28L478.78 67.93L478.25 65.6L477.64 63.31L476.93 61.06L476.15 58.84L475.27 56.67L474.32 54.54L473.29 52.45L472.18 50.41L470.99 48.42L469.73 46.48L468.4 44.59L467 42.76L465.53 40.98L464 39.26L462.4 37.6L460.74 36L459.02 34.46L457.24 32.99L455.4 31.59L453.51 30.26L451.57 29L449.58 27.82L447.54 26.71L445.45 25.68L443.32 24.72L441.15 23.85L438.93 23.07L436.68 22.36L434.39 21.75L432.07 21.22L429.71 20.79L427.33 20.45L424.91 20.2L422.47 20.05L420 20L180 20L177.53 20.05Z" id="a6apPhDhrg"></path><path d="M620 300C631.06 300 640 308.98 640 320C640 322 640 338 640 340C640 351.06 631.06 360 620 360C617.33 360 604 360 580 360L580 300C604 300 617.33 300 620 300Z" id="alMoRf7IL"></path><path d="M480 200C535.24 200 580 244.8 580 300C580 320 580 420 580 600L20 600C20 420 20 320 20 300C20 244.8 64.74 200 120 200C192 200 444 200 480 200Z" id="bfBOQgXZu"></path><path d="M120 200C64.76 200 20 244.8 20 300C20 320 20 420 20 600L80 600C80 420 80 320 80 300C80 244.8 124.74 200 180 200C168 200 126 200 120 200Z" id="g4Rj2XkC5e"></path><path d="M580 540C591.06 540 600 548.98 600 560C600 562 600 578 600 580C600 591.06 591.06 600 580 600C524 600 76 600 20 600C8.94 600 0 591.06 0 580C0 578 0 562 0 560C0 548.98 8.92 540 20 540C132 540 524 540 580 540Z" id="c2WMxt9LaJ"></path></defs><g><g><g><use xlink:href="#e6MpgQRSS" opacity="1" fill="#f6c37a" fill-opacity="1"></use><g><use xlink:href="#e6MpgQRSS" opacity="1" fill-opacity="0" stroke="#000000" stroke-width="1" stroke-opacity="0"></use></g></g><g><use xlink:href="#a6apPhDhrg" opacity="1" fill="#f4b459" fill-opacity="1"></use><g><use xlink:href="#a6apPhDhrg" opacity="1" fill-opacity="0" stroke="#000000" stroke-width="1" stroke-opacity="0"></use></g></g><g><use xlink:href="#alMoRf7IL" opacity="1" fill="#324d5b" fill-opacity="1"></use><g><use xlink:href="#alMoRf7IL" opacity="1" fill-opacity="0" stroke="#000000" stroke-width="1" stroke-opacity="0"></use></g></g><g><use xlink:href="#bfBOQgXZu" opacity="1" fill="#e4e7e7" fill-opacity="1"></use><g><use xlink:href="#bfBOQgXZu" opacity="1" fill-opacity="0" stroke="#000000" stroke-width="1" stroke-opacity="0"></use></g></g><g><use xlink:href="#g4Rj2XkC5e" opacity="1" fill="#cdd0d0" fill-opacity="1"></use><g><use xlink:href="#g4Rj2XkC5e" opacity="1" fill-opacity="0" stroke="#000000" stroke-width="1" stroke-opacity="0"></use></g></g><g><use xlink:href="#c2WMxt9LaJ" opacity="1" fill="#32444a" fill-opacity="1"></use><g><use xlink:href="#c2WMxt9LaJ" opacity="1" fill-opacity="0" stroke="#000000" stroke-width="1" stroke-opacity="0"></use></g></g></g></g></svg>