<svg xmlns="http://www.w3.org/2000/svg" width="340.822" height="219" viewBox="0 0 340.822 219"><path fill="#4285F4" d="M83.711 99.812h-39.73v11.785h28.177c-1.392 16.527-15.146 23.574-28.13 23.574-16.61 0-31.105-13.065-31.105-31.377 0-17.838 13.817-31.577 31.142-31.577 13.366 0 21.243 8.519 21.243 8.519l8.255-8.546s-10.596-11.792-29.92-11.792C19.037 60.397 0 81.158 0 103.584c0 21.973 17.907 43.399 44.27 43.399 23.187 0 40.16-15.879 40.16-39.359 0-4.954-.72-7.816-.72-7.816l.001.004z"/><path fill="#EA4335" d="M116.257 91.274c-16.302 0-27.985 12.742-27.985 27.601 0 15.081 11.332 28.059 28.177 28.059 15.25 0 27.742-11.651 27.742-27.733 0-18.432-14.532-27.927-27.934-27.927zm.162 10.932c8.017 0 15.614 6.479 15.614 16.921 0 10.219-7.565 16.882-15.651 16.882-8.885 0-15.894-7.112-15.894-16.964 0-9.639 6.923-16.839 15.931-16.839z"/><path fill="#FBBC05" d="M177.121 91.274c-16.302 0-27.985 12.742-27.985 27.601 0 15.081 11.333 28.059 28.177 28.059 15.25 0 27.743-11.651 27.743-27.733.001-18.432-14.532-27.927-27.935-27.927zm.163 10.932c8.017 0 15.614 6.479 15.614 16.921 0 10.219-7.565 16.882-15.651 16.882-8.885 0-15.893-7.112-15.893-16.964 0-9.639 6.922-16.839 15.93-16.839z"/><path fill="#4285F4" d="M236.821 91.305c-14.964 0-26.726 13.102-26.726 27.808 0 16.75 13.637 27.857 26.468 27.857 7.935 0 12.152-3.148 15.268-6.762v5.487c0 9.602-5.832 15.352-14.634 15.352-8.503 0-12.768-6.32-14.251-9.907l-10.699 4.471c3.796 8.022 11.438 16.39 25.039 16.39 14.877 0 26.217-9.368 26.217-29.015V92.978h-11.672v4.715c-3.589-3.867-8.495-6.387-15.01-6.388zm1.083 10.909c7.337 0 14.87 6.263 14.87 16.957 0 10.87-7.518 16.861-15.031 16.861-7.979 0-15.401-6.476-15.401-16.758 0-10.684 7.709-17.06 15.562-17.06z"/><path fill="#EA4335" d="M315.399 91.238c-14.114 0-25.967 11.227-25.967 27.792 0 17.528 13.211 27.925 27.322 27.925 11.778 0 19.007-6.44 23.321-12.213l-9.623-6.401c-2.497 3.874-6.671 7.661-13.64 7.661-7.826 0-11.424-4.283-13.653-8.435l37.327-15.482-1.938-4.539c-3.604-8.885-12.016-16.307-23.149-16.308zm.487 10.704c5.087 0 8.746 2.701 10.302 5.943l-24.928 10.416c-1.075-8.063 6.566-16.359 14.626-16.359z"/><path fill="#34A853" d="M271.637 145.303h12.261V63.275h-12.261v82.028z"/></svg>
