<svg xmlns="http://www.w3.org/2000/svg" viewBox="0 0 207.3 44.200001" width="207.3" height="44.2"><path d="M0 0h21.1v21.1H0z" fill="#f05225"/><path d="M23.2 0h21.1v21.1H23.2z" fill="#80bb41"/><path d="M92.4 8.2c.9-.2 2 .2 2.6.9.8.8.9 2 .3 2.9-.6 1.1-1.8 1.5-3 1.2-1.2-.2-2.1-1.4-2.1-2.6-.2-1 1-2.3 2.2-2.4zm-35 .6h6.7c2.1 5.3 4.1 10.5 6.2 15.7.6 1.4 1.1 2.6 1.5 4 2.7-6.5 5.3-13.1 7.9-19.6h6.4v26.6h-4.6V15c-.2.2-.2.3-.3.5-2.6 6.7-5.3 13.4-7.9 20.1H70c-2.5-6.9-5.3-13.7-8-20.4 0-.2-.2-.3-.2-.5v20.4h-4.3c-.1-8.7-.1-17.5-.1-26.3zm47.4 7.4c2.1-.6 4.6-.6 6.7 0 .5.2.9.3 1.2.6v4.4c-1.5-1.1-3.3-1.8-5.2-1.7-1.5.2-2.9.9-3.8 2.1-1.2 1.5-1.4 3.5-1.2 5.3.2 1.4.8 2.9 1.8 3.8 1.2 1.1 2.7 1.4 4.3 1.2 1.5-.2 2.9-.8 4.1-1.7v4.1c-1.8 1.1-4.1 1.4-6.2 1.2-2.1-.2-4.4-.9-5.9-2.4-1.7-1.7-2.6-4-2.7-6.4-.2-2.4.5-5 1.8-7.1 1.4-1.5 3.2-2.7 5.1-3.4zm49.9-.3c2.1-.3 4.3-.2 6.4.6v4.3c-1.4-.9-3-1.5-4.9-1.4-.9 0-1.8.5-2.1 1.2-.3.8-.2 1.8.6 2.3 1.2.9 2.9 1.2 4.3 2 1.1.6 2.1 1.4 2.6 2.4 1.1 2.1.6 4.9-1.2 6.4-1.7 1.5-4.1 2-6.4 2-1.5-.2-3.2-.5-4.6-1.1v-4.4c1.2.9 2.6 1.5 4.1 1.8 1.1.2 2.1.2 3.2-.3.9-.5 1.1-1.8.6-2.6-.5-.6-1.2-.9-2-1.2-1.4-.6-2.7-1.1-4-2-.8-.6-1.5-1.5-1.7-2.6-.3-1.5-.3-3.2.6-4.6 1-1.4 2.7-2.5 4.5-2.8zm-31.6.7c1.2-.8 2.9-.8 4.3-.3v4.6c-.9-.6-2-.9-3-.8-1.2.2-2.3 1.2-2.9 2.3-.6 1.2-.6 2.6-.6 3.8v9.1h-4.6v-19h4.6v3.3c.4-1.2 1.1-2.3 2.2-3zm-32.7-.4H95v19h-4.6zm55.9 4.6c-.8-1.8-2.3-3.2-4-4-2-.9-4.3-1.1-6.5-.8-2.3.3-4.6 1.4-5.9 3.2-1.4 1.7-2 3.8-2.1 5.8-.2 2.4.2 5 1.7 7.1 1.2 1.8 3.2 3 5.3 3.5 1.7.3 3.6.3 5.3 0 2-.5 4-1.5 5.2-3.2 1.2-1.5 1.8-3.5 2-5.6-.1-2-.2-4.2-1-6zm-4.4 8.7c-.5.9-1.2 1.8-2.3 2.1-1.2.5-2.4.5-3.6.2-1.2-.3-2.3-1.2-2.9-2.4-.8-1.5-.9-3.2-.8-4.7.2-1.5.6-3 1.8-4 .8-.8 2-1.1 3-1.2 1.4-.2 2.9.3 3.8 1.2 1.1 1.1 1.5 2.6 1.5 4 .1 1.7.1 3.4-.5 4.8zm40.9-8.2c-.8-1.8-2.1-3.5-4-4.4-2.1-1.1-4.6-1.2-6.7-.9-1.8.2-3.6.9-5 2.1-1.7 1.5-2.7 3.6-3 5.8-.3 2.3-.2 4.6.8 6.7.9 2 2.6 3.6 4.6 4.6 2 .8 4.3.9 6.4.6 2.1-.3 4.3-1.5 5.6-3.3 1.3-1.8 2.1-4.3 2-6.5-.1-1.7-.2-3.2-.7-4.7zm-4.3 6.5c-.2 1.1-.6 2-1.2 2.7-.6.8-1.7 1.2-2.7 1.4-1.1.2-2.3.2-3.2-.3-1.1-.5-2-1.4-2.4-2.6-.6-1.4-.6-2.7-.6-4.1.2-1.4.5-2.7 1.4-3.8.8-.9 2.1-1.5 3.3-1.7 1.2-.2 2.7.2 3.6 1.1.9.8 1.4 1.8 1.7 3 .5 1.6.5 2.9.1 4.3zm28.8-7.8v-3.6h-4.6v-5.6c-1.5.5-3 .9-4.6 1.4v4.3h-6.7c0-1.1-.2-2.3.2-3.5.2-.9.6-1.8 1.5-2.1 1.1-.5 2.3-.2 3.3.3v-4c-2.1-.6-4.7-.5-6.7.8-1.2.8-2.1 2.1-2.6 3.5-.5 1.5-.2 3.2-.3 4.9h-3.2V20h3.2v15.3h4.6V20h6.7v9.7c0 1.5.3 3.2 1.2 4.4.9 1.1 2.3 1.5 3.6 1.7 1.4.2 2.9-.2 4.1-.6v-3.8c-1.1.6-2.4.9-3.5.3-.6-.3-.9-1.1-.9-1.8-.2-1.2 0-2.4-.2-3.5V20c1.8 0 3.3-.1 4.9 0z" fill="#000000"/><path d="M0 23.1h21.1v21.1H0z" fill="#35a0da"/><path d="M23.2 23.1h21.1v21.1H23.2z" fill="#fdb813"/></svg>
