<?xml version="1.0" encoding="UTF-8"?>
<svg width="187px" height="70px" viewBox="0 0 187 70" version="1.1" xmlns="http://www.w3.org/2000/svg" xmlns:xlink="http://www.w3.org/1999/xlink">
    <!-- Generator: Sketch 52.2 (67145) - http://www.bohemiancoding.com/sketch -->
    <title>Untitled</title>
    <desc>Created with Sketch.</desc>
    <g id="Page-1" stroke="none" stroke-width="1" fill="none" fill-rule="evenodd">
        <g id="igan">
            <g id="XMLID_51_" transform="translate(0.000000, 14.000000)">
                <g id="Rectangle_3" transform="translate(132.000000, 0.000000)" fill="#17385F">
                    <g id="XMLID_42_">
                        <rect id="XMLID_43_" x="0.8" y="0.9" width="53.6" height="53.7"></rect>
                    </g>
                </g>
                <g id="Shape_11" transform="translate(132.000000, 2.000000)" fill="#FFFFFF">
                    <g id="XMLID_168_">
                        <path d="M30.5,9.9 C29.2,9.6 26.1,9.9 25.7,12.6 C28.2,14.2 30,12.2 30.5,9.9 Z M34.1,25.5 C35.3,27.3 39.2,26.2 39.6,24.7 C39.8,23.7 38,23.7 36.9,23.8 C34.4,24.3 34.3,25.9 34.1,25.5 Z M27.7,18.4 C30.7,18.4 31.2,17.1 32,14.6 C30.8,15 28.8,13.9 27.7,18.4 Z M17.9,14.8 C19.8,14.7 22.2,13.4 23.2,11.6 C24.2,9.7 24.8,6.1 23.9,6.1 C19.6,7.2 17.7,9.6 17.9,14.8 Z M18.3,23 C18.4,23 18.4,23 18.3,23 C25.6,22.5 26.1,16.7 25.7,15.5 C25.1,15.4 18.3,16 18.3,23 Z M34,30.2 C37.4,32.5 38.7,30.5 40,29.6 C37.4,27.7 34.7,29.5 34,30.2 Z M17.1,7.4 C18.9,7.3 20.7,3.8 19.1,1.9 C16,3.4 16.3,7.4 17.1,7.4 Z M27.5,24.1 C31.6,25.4 36,22.2 36.4,18.8 C35.9,18.6 28.9,17.2 27.5,24.1 Z M24.2,32.7 C28.4,33.4 32.5,31.4 33.4,27.2 C33.1,27.2 26.1,25.1 24.2,32.7 Z M14.9,44.9 C14.8,47.9 16.3,49.5 19.3,49.4 C19.3,46.5 17.3,44.9 14.9,44.9 Z M30.3,44.2 C30.2,45.8 32.6,47.7 35.3,46.9 C34,43.1 31.3,44.4 30.3,44.2 Z M27.2,40.2 C29.8,42.1 34.7,42.8 37.5,38.1 C35.6,37.3 31.1,34.7 27.2,40.2 Z M22.7,41.6 C20.8,41.5 19.5,43 18.3,43.9 C21.7,48.7 28.1,44.9 28.3,43.9 C27.1,43.2 27,41.7 22.7,41.6 Z M33.8,33 C32.9,33 32.6,33.7 31.8,33.7 C32.7,35.7 35.2,36 37.4,34.9 C37.4,33.9 35.3,33 33.8,33 Z M4.2,12.9 C7.7,11.3 9.8,5.5 6.9,2.6 C3.1,5.6 2.7,7.1 4.2,12.9 Z M12.3,5.8 C13.2,3.5 12.4,1.5 10.2,0.6 C9.1,3.7 10.6,5 12.3,5.8 Z M28.9,33.2 C28.8,33.2 28.9,33.2 28.9,33.2 C26.9,35.1 20.6,36.8 17.6,37.3 C18.4,36.2 19.3,34.3 20.7,32.7 C22.1,31.2 23.9,29.9 24.3,29.6 C23.8,29.7 23.6,29.8 23.1,30.1 C20.1,31.7 18,33.8 15.6,36.2 C14.8,36.9 13.9,38.5 13,39 C11.7,39.8 10.5,39.9 9.3,40.6 C7.4,41.6 5.8,43.1 4.6,45.1 C3.1,40.3 8,33.6 14.2,29.9 C17.8,27.8 21.7,26.6 23.9,25.3 C25.1,24.6 25.8,23.7 25.7,23.2 C24.8,23.7 23,24.9 21.2,25.2 C18.6,25.7 16.4,26 15.2,26.2 C17.7,19.9 16.2,15.8 15.7,14.9 C16,18.2 15.5,20.4 15,22.5 C14.7,24 13.5,25.9 11.8,27.5 C9.4,29.6 5.9,31.5 3.5,33.8 C4,32 4.2,30.4 4.7,28.6 C6.5,25.5 8,22.5 8.7,19.3 C9.6,14.8 8.2,11.5 8.2,11.9 C7.7,19.2 2.5,27 1.5,27.8 C1.3,27.6 0.9,27.2 0.9,27.2 L0.9,52.7 L6.6,52.7 C7.9,46.7 12.1,43.9 16.8,41.9 C22,39.6 27.6,38.2 28.9,33.2 Z M11.6,17.3 C15,16.2 16.7,10.4 14.2,7.4 C11.4,9.6 9.2,11.7 11.6,17.3 Z" id="XMLID_169_"></path>
                    </g>
                </g>
                <g id="XMLID_31_" transform="translate(0.000000, 37.000000)" fill="#B6B5B5">
                    <path d="M8.6,12.7 L3.9,12.7 L3.9,17.6 L0.8,17.6 L0.8,1 C3.4,1 6,1 8.6,1 C16.7,1 16.7,12.7 8.6,12.7 Z M3.9,9.8 L8.6,9.8 C12.6,9.8 12.6,3.9 8.6,3.9 L3.9,3.9 L3.9,9.8 Z" id="XMLID_32_" fill-rule="nonzero"></path>
                    <path d="M28.5,14.5 L19.9,14.5 L18.5,17.6 L15.1,17.6 L22.5,1 L25.9,1 L33.3,17.6 L29.9,17.6 L28.5,14.5 Z M24.2,4.5 L21.1,11.6 L27.2,11.6 L24.2,4.5 Z" id="XMLID_37_" fill-rule="nonzero"></path>
                    <path d="M49.4,17.6 L45.7,17.6 L40.9,12.1 L37.9,12.1 L37.9,17.6 L34.8,17.6 L34.8,1 C37.4,1 40,1 42.7,1 C46.6,1 48.7,3.6 48.7,6.5 C48.7,8.8 47.7,11.1 44.5,11.7 L49.5,17.4 L49.5,17.6 L49.4,17.6 Z M37.9,3.9 L37.9,9.2 L42.6,9.2 C44.6,9.2 45.4,7.9 45.4,6.5 C45.4,5.1 44.5,3.8 42.6,3.8 L37.9,3.8 L37.9,3.9 Z" id="XMLID_45_" fill-rule="nonzero"></path>
                    <path d="M55.7,3.9 L50.5,3.9 L50.5,1 C55.3,1 59.3,1 64.1,1 L64.1,3.8 L58.9,3.8 L58.9,17.5 L55.8,17.5 L55.8,3.9 L55.7,3.9 Z" id="XMLID_49_"></path>
                    <polygon id="XMLID_54_" points="76.8 1 79.9 1 79.9 17.6 78 17.6 78 17.6 69.3 6.4 69.3 17.6 66.2 17.6 66.2 1 68.7 1 76.8 11.3"></polygon>
                    <path d="M95.1,17.6 L82.7,17.6 C82.7,12.1 82.7,6.5 82.7,1 L95.1,1 L95.1,4 L85.8,4 L85.8,7.8 L94.8,7.8 L94.8,10.7 L85.8,10.7 L85.8,14.4 L95.1,14.4 L95.1,17.6 Z" id="XMLID_56_"></path>
                    <path d="M112.2,17.6 L108.5,17.6 L103.7,12.1 L100.7,12.1 L100.7,17.6 L97.6,17.6 L97.6,1 C100.2,1 102.8,1 105.5,1 C109.4,1 111.5,3.6 111.5,6.5 C111.5,8.8 110.5,11.1 107.3,11.7 L112.3,17.4 L112.3,17.6 L112.2,17.6 Z M100.6,3.9 L100.6,9.2 L105.3,9.2 C107.3,9.2 108.1,7.9 108.1,6.5 C108.1,5.1 107.2,3.8 105.3,3.8 L100.6,3.8 L100.6,3.9 Z" id="XMLID_60_" fill-rule="nonzero"></path>
                    <path d="M124.4,5 C123.8,4.1 122.3,3.2 120.5,3.2 C118.2,3.2 117.1,4.2 117.1,5.4 C117.1,6.8 118.8,7.2 120.8,7.5 C124.2,7.9 127.5,8.8 127.5,12.8 C127.5,16.5 124.2,18.1 120.6,18.1 C117.2,18.1 114.6,17.1 113.4,14 L116,12.7 C116.7,14.5 118.6,15.3 120.7,15.3 C122.7,15.3 124.5,14.6 124.5,12.8 C124.5,11.2 122.9,10.6 120.7,10.4 C117.3,10 114.2,9.1 114.2,5.4 C114.2,2 117.6,0.6 120.6,0.6 C123.2,0.6 125.8,1.3 127.1,3.9 L124.4,5 Z" id="XMLID_67_"></path>
                </g>
                <g id="i_copy_5" transform="translate(0.000000, 1.000000)" fill="#17385F">
                    <g id="XMLID_62_">
                        <path d="M5.5,7 C7.2,6.8 8.5,4.6 7.8,3 C5.7,-1.5 1.6,1.2 1,3.6 C0.7,4.6 0.9,7.6 5.5,7 Z M7.7,25 C7.1,20.1 7.1,11.7 7.1,11.7 L0.8,11.7 C0.8,11.7 0.7,15.2 0.8,19.2 C0.8,21.2 1,24.5 1.4,26.7 C1.6,28.1 1.9,28.5 2.5,29.6 C4.2,32.8 12.2,31.9 12.2,31.9 L12.2,25.5 C12.4,25.1 7.9,26.2 7.7,25 Z" id="XMLID_63_"></path>
                    </g>
                </g>
            </g>
            <g id="XMLID_1_" transform="translate(15.000000, 0.000000)" fill="#17385F">
                <path d="M36.8,12.9 C33.7,10 29,8.4 25,8.4 C15.1,8.4 9,15.7 9,24.9 C9,32.3 13.4,39.9 25,39.9 C28.6,39.9 31.8,39.1 35.5,36.3 L35.5,28.4 L23.7,28.4 L23.7,20.8 L43.6,20.8 L43.6,39.7 C39,44.8 33.3,47.8 25.1,47.8 C7.7,47.8 0.6,36.7 0.6,24.9 C0.6,12.3 8.7,0.6 25.1,0.6 C31.3,0.6 37.6,2.9 42.3,7.5 L36.8,12.9 Z" id="XMLID_2_"></path>
                <path d="M72.8,40.9 L55.8,40.9 L53,46.8 L46.4,46.8 L61,15.4 L67.7,15.4 L82.3,46.8 L75.6,46.8 L72.8,40.9 Z M64.3,22 L58.3,35.4 L70.4,35.4 L64.3,22 Z" id="XMLID_4_" fill-rule="nonzero"></path>
                <polygon id="XMLID_22_" points="106.3 15.4 112.4 15.4 112.4 46.8 108.6 46.8 108.6 46.8 91.5 25.6 91.5 46.8 85.4 46.8 85.4 15.4 90.4 15.4 106.3 34.9"></polygon>
            </g>
        </g>
    </g>
</svg>