<?xml version="1.0" encoding="UTF-8"?>
<svg width="429px" height="411px" viewBox="0 0 429 411" version="1.1" xmlns="http://www.w3.org/2000/svg" xmlns:xlink="http://www.w3.org/1999/xlink">
    <!-- Generator: Sketch 52.5 (67469) - http://www.bohemiancoding.com/sketch -->
    <title>Untitled</title>
    <desc>Created with Sketch.</desc>
    <g id="Page-1" stroke="none" stroke-width="1" fill="none" fill-rule="evenodd">
        <g id="Black-Kingston-Logo" fill="#000000">
            <path d="M64.5,348.2 C64.5,348.2 92.6,337.8 142.9,355.4 C191.8,372.4 213.2,371 223.6,370.5 C247.3,369.2 299.8,350.5 316.1,347.5 C331.9,344.6 369.4,338.3 406.2,357 C425.4,366.8 428.6,370.5 428.6,370.5 C428.6,370.5 399.7,357.6 377.7,355.9 C355.7,354.2 329.8,352.8 302.5,361.1 C275.2,369.4 240,382.4 209.3,380.8 C168.4,378.7 121,357.4 102.6,352.4 C83.2,347.2 67.8,348.2 64.5,348.2" id="Path"></path>
            <path d="M364.6,377.8 C364.6,377.8 336.5,367.4 286.2,385 C237.3,402 215.9,400.6 205.5,400.1 C181.8,398.8 129.3,380.1 113,377.1 C97.2,374.2 59.7,367.9 22.9,386.6 C3.7,396.4 0.5,400.1 0.5,400.1 C0.5,400.1 29.4,387.2 51.4,385.5 C73.4,383.8 99.3,382.4 126.6,390.7 C153.9,399 189.2,412 219.8,410.4 C260.7,408.3 308,387 326.5,382 C345.9,376.8 361.3,377.8 364.6,377.8" id="Path"></path>
            <g id="Group" transform="translate(16.000000, 233.000000)">
                <path d="M197.6,53.1 C197.6,47.9 198.1,47 201.2,46.9 L202.8,46.5 C203.5,46.1 203.5,44.5 202.6,44.3 C199,44.3 196.1,44.5 192.5,44.4 C186.7,44.3 182.6,44.1 179.2,44.1 C178.5,44.3 178.5,45.9 179.2,46.3 L182.1,47 C187.7,47.9 187.9,48.4 187.9,54.5 L187.9,57.4 C187.9,60.5 187.6,61.9 187,62.8 C186.1,63.9 183.6,64.6 179.6,64.5 C174.7,64.5 167.9,62.8 163.5,57.4 C158.8,52 157.5,44.6 157.6,37.8 C157.7,23.7 164.8,13 179.6,13.1 C188.1,13.2 193.9,17.3 195.7,25.4 C196.1,26.3 198.2,26.1 198.4,25.4 C198.2,18.7 197.6,14.4 197.6,11.9 C196.5,11.9 194,11.4 192.2,11.2 C189.1,10.5 184.8,9.8 181,9.8 C169.3,9.7 160.1,13.2 154,19.4 C148.6,25 146.2,32.1 146.2,39.1 C146.1,46.3 148.3,53.3 153.4,58.5 C159.6,65.1 169,67.8 179.2,67.9 C183.9,67.9 190.4,67.1 195.6,65.8 C197.2,65.4 198.8,65.2 199.6,65.2 C199.8,65 199.8,64.3 199.6,64.1 C198,63.2 197.6,61.2 197.6,58 L197.6,53.1" id="Path"></path>
                <path d="M313.3,10.8 C295.8,10.6 283.1,23.3 282.9,40.4 C282.8,55.4 293.7,68.8 312.8,68.9 C329.6,69 342.6,56.8 342.7,40.2 C342.8,25 332.8,11 313.3,10.8 M312.1,14.2 C325.6,14.3 331.3,29.2 331.2,41.7 C331,58.7 323.1,65.6 313.5,65.5 C299.1,65.4 294.3,49.6 294.4,38 C294.5,20.1 303.8,14.1 312.1,14.2" id="Shape" fill-rule="nonzero"></path>
                <path d="M394.2,34 C394.3,27.3 394.3,20.1 395.5,17.4 C396.2,16.1 397.5,15.8 399.1,15.6 L401.1,15.2 C401.8,14.5 401.6,13.2 400.9,12.7 C397.8,12.9 395.7,12.9 392.1,12.8 C388.7,12.8 385.6,12.7 382.2,12.5 C381.5,12.7 381.3,14.3 382.2,15 L384,15.2 C386.2,15.4 387.6,16.1 388.2,17.3 C389.8,19.8 389.7,27.6 389.6,33.9 L389.5,50.3 C389.5,51.6 389.5,52.1 389.3,52.3 C388.4,51.8 380.6,42.8 377.3,39 L368.8,29.7 C365.9,26.5 356.8,15.9 355.5,12.3 C353.5,12.5 351.5,12.5 349.7,12.5 C347.7,12.5 343,12.4 339.8,12.2 C338.9,12.4 338.9,14 339.3,14.7 L340.6,14.9 C341.7,15.1 344.2,15.8 345.1,16.5 C347.8,19 347.8,20.3 347.7,26.8 L347.5,46.8 C347.4,53.5 347.4,60.9 346.2,63.4 C345.7,64.7 344.2,65.2 342.6,65.4 L340.6,65.8 C339.9,66.2 340.1,67.8 340.8,68.3 C343.7,68.1 346,67.9 349.6,67.9 C352.7,67.9 356.1,68.2 359.3,68.4 C360.2,68 360.2,66.4 359.5,65.9 L357.5,65.7 C355.5,65.2 354.1,64.8 353.3,63.4 C352,60.9 352,53.1 352.1,46.8 L352.2,30.4 C352.2,25.9 352.2,25 352.5,25 C353.8,26.4 356.5,29.5 361.8,35.6 L381.4,58.4 C387.4,65.2 389.9,68.1 391.2,69.9 C392.3,69.9 393.5,69.7 394.1,68.8 C393.9,66.8 394,56.5 394,54 L394.2,34" id="Path"></path>
                <path d="M218.6,68.1 C210.7,68 206.5,65.5 204.7,64.6 C203.4,62.8 202.3,57 202.3,51.8 C202.8,50.9 204.3,50.9 205,51.4 C206.5,55.7 210.9,64.7 219.3,64.8 C225.6,64.9 229.2,61.1 229.3,55.9 C229.3,51.2 227.1,47.4 220.9,43.7 L217.3,41.7 C211,38.1 205.5,32.8 205.5,25.4 C205.6,16.9 211.9,10 224.1,10.1 C228.1,10.1 229.3,10.4 232.6,11.3 C234.4,11.5 241.1,11.6 245.4,11.6 L279.8,11.9 C284.1,11.9 285.2,11.7 286.3,9.7 C286.5,9.5 287,9.5 287.2,9.5 C287.7,9.5 288.1,9.5 288.3,10 C287.4,13.4 286.6,20.5 286.8,23.2 C286.6,23.9 285,24.1 284.3,23.4 C283.2,16.9 281.7,15.3 272.7,15.2 L267.8,15.2 C265.8,15.2 265.6,15.4 265.5,18.8 L265.2,55.1 C265.1,64.1 266,64.3 269.8,64.8 L272.9,65.3 C273.3,65.8 273.3,67.3 272.7,67.8 C267.8,67.5 263.9,67.3 260.3,67.2 C256.5,67.2 252.7,67.4 247.3,67.5 C246.6,67 246.4,65.5 247.1,65 L250.7,64.6 C254.5,64.2 255.4,64 255.5,55 L255.8,18.7 C255.8,15.3 255.6,15.1 253.6,15.1 L248.9,15.1 C241,15 238.3,15.2 237.2,22 C237.4,22.5 237.4,22.9 237.4,23.3 C236.9,24.2 235.4,24.2 234.7,23.7 C234.5,23 234.3,22.6 234,22.1 L234,21.9 C232.5,17.8 229.6,13.6 223.3,13.5 C216.6,13.4 213.8,17.7 213.8,22.2 C213.8,25.8 216.2,29.6 221.6,32.6 L227,35.3 C232.4,38.3 238.4,43.5 238.3,52 C238.2,61.5 230.8,68.2 218.6,68.1" id="Path"></path>
                <path d="M281.8,92.2 C271.9,97.5 237.4,113.3 196.9,113 C147.7,112.6 104.6,84.8 69.1,59.6 C57.9,51.7 51.2,46.7 42.1,40.7 C36.3,36.8 31.4,35 29.1,34.1 C30,33 32.3,31 33.9,29.4 L44.1,19.8 C50.4,14 56.8,8.7 59.9,6.9 C63.1,5.1 67.3,4 70.3,3.9 C71,3.2 71,1.7 70.1,1.2 C66.7,1.4 62.9,1.4 59.1,1.3 C55.1,1.3 50.6,1.2 46.7,1 C45.8,1.4 45.6,3 46.5,3.7 L49.4,4.4 C51,4.9 51.4,5.1 51.4,5.5 C51.4,5.9 51.2,6.6 50.5,7.3 C49.4,8.9 43.9,14.6 41.7,16.6 C41.7,16.6 25.4,32.4 23.8,33.7 C22.9,34.4 21.5,35 20.6,35 C19.3,35 19,32.7 19.1,30.7 L19.2,17.7 C19.3,6 19.5,4.2 26.1,3.6 L28.3,3.4 C29,3 28.8,0.9 28.1,0.7 C23.2,0.9 19.3,0.8 15.1,0.8 C9.9,0.8 6.3,0.7 0.9,0.5 C0.2,0.7 -2.84217094e-14,2.7 0.7,3.2 L3.4,3.4 C9.9,4.1 10.1,5.9 10,17.6 L9.6,58 C9.5,69.9 9.3,71.2 3.4,72.1 L1.2,72.3 C0.5,73.2 0.7,74.8 1.4,75.2 C5.9,75 9.7,74.8 14.4,74.9 C18.7,74.9 22.5,75.2 28.1,75.5 C28.8,75.1 29,73 28.3,72.6 L25.2,72.3 C18.9,71.6 18.7,70 18.8,58.1 L18.9,43.7 C18.9,39.7 19.2,38.5 21,38.3 C21.7,38.1 23.2,38.3 23.7,38.8 C32.2,42.9 37.8,48.3 51.8,59.2 C101.1,96.6 148.8,122.2 197.3,122.6 C247.8,123.3 273.8,99.5 281.8,92.2" id="Path"></path>
                <path d="M141.7,31.8 L141.5,52 C141.5,54.5 141.4,64.8 141.6,66.8 C140.9,67.7 139.8,67.9 138.7,67.9 C137.4,66.1 134.9,63.2 128.9,56.4 L109.6,33.6 C104,27.5 101.4,24.3 100,23 C99.8,23 99.8,23.9 99.7,28.4 L99.6,44.8 C99.5,51.1 99.5,58.9 100.8,61.4 C101.7,62.8 103,63.2 105.3,63.7 L107.1,63.9 C107.8,64.4 107.8,65.9 106.9,66.4 C103.8,66.1 100.6,65.9 97.2,65.9 C93.8,65.9 91.4,66.1 88.4,66.3 C87.7,65.8 87.7,64.3 88.4,63.8 L90.2,63.4 C91.8,63.2 93.4,62.8 93.8,61.4 C94.9,58.9 95,51.5 95.1,44.8 L95.3,25.3 C95.3,19.7 94.9,17.7 93.6,15.9 C92.3,14.1 90.7,13.2 88.7,13.2 L83.1,13.2 C79.3,13.6 78.4,14.3 78.3,23.3 L78,61.9 C75.1,59.6 70.6,56.5 68.2,54.9 L68.5,22.6 C68.6,13.6 67.9,13.4 63.9,12.9 L62.1,12.7 C61.7,12 61.7,10.5 62.3,10.2 C65.9,10.5 68.8,10.5 72.6,10.5 C76.4,10.5 89.9,10.7 93.5,10.7 C95.3,10.7 101.1,10.8 103.2,10.6 C104.5,14.2 113.6,24.8 116.5,28 L125,37.3 C128.3,41.1 136.1,50.2 137,50.6 C137.2,50.4 137.2,49.9 137.2,48.6 L137.3,32.2 C137.4,25.9 137.4,18.1 135.9,15.6 C135.2,14.5 133.9,13.8 131.6,13.5 L129.8,13.3 C128.9,12.6 129.1,11 129.8,10.8 C133.2,11.1 136.3,11.1 139.7,11.1 C143.3,11.1 145.3,11.1 148.5,11 C149.2,11.5 149.4,12.8 148.7,13.5 L146.7,13.9 C145.1,14.1 143.8,14.3 143.1,15.7 C141.8,17.8 141.7,25 141.7,31.8" id="Path"></path>
            </g>
            <g id="Group" transform="translate(147.000000, 0.000000)">
                <polyline id="Path" points="13.4 210.5 121.4 210.6 121.4 216.6 13.4 216.6 13.4 210.5"></polyline>
                <polyline id="Path" points="0.1 220.6 134.9 220.7 134.9 228.5 0.1 228.4 0.1 220.6"></polyline>
                <polyline id="Path" points="13.4 150.8 121.5 150.9 121.5 154.9 13.4 154.9 13.4 150.8"></polyline>
                <polyline id="Path" points="16.8 120.1 21.3 120.1 21.3 146.6 16.8 146.6 16.8 120.1"></polyline>
                <polyline id="Path" points="113.6 120.2 118.1 120.2 118.1 146.9 113.6 146.9 113.6 120.2"></polyline>
                <polyline id="Path" points="54.1 58.2 81.1 58.2 81.1 62.3 54.1 62.3 54.1 58.2"></polyline>
                <polyline id="Path" points="50.5 89.8 84.7 89.9 84.7 93.9 50.5 93.9 50.5 89.8"></polyline>
                <path d="M54.1,54.2 C54.1,48.4 58.4,43.7 64.2,42.3 L70.9,42.3 C76.7,43.7 81,48.4 81,54.2 L54.1,54.2" id="Path"></path>
                <polyline id="Path" points="81.1 66.3 81.1 85.8 54.1 85.8 54.1 66.3 81.1 66.3"></polyline>
                <path d="M55,132.7 C55,126 60.6,120.4 67.6,120.4 C74.3,120.4 80,126 79.9,132.7 C79.9,139.7 74.3,145.3 67.5,145.3 C60.6,145.3 55,139.6 55,132.7" id="Path"></path>
                <polyline id="Path" points="66.1 38.3 66.1 11.1 69.2 11.1 69.2 38.3 66.1 38.3"></polyline>
                <path d="M63.8,4.2 C63.8,2.2 65.6,0.6 67.6,0.6 C69.4,0.6 71.2,2.2 71.2,4.2 C71.2,5.3 70.3,6.4 69.4,6.9 L65.6,6.9 C65,6.4 63.8,5.3 63.8,4.2" id="Path"></path>
                <path d="M114.7,166.2 L114.7,206.4 L20.1,206.3 L20.1,166.1 L13.4,166.1 L13.4,160 L121.5,160.1 L121.5,166.2 L114.7,166.2 M101.2,166.1 L101.2,196.8 L107.9,196.8 L107.9,166.1 L101.2,166.1 M33.8,196.8 L33.8,166.1 L26.8,166.1 L26.8,196.8 L33.8,196.8 M51.8,196.8 L51.8,166.1 L40.6,166.1 L40.6,196.8 L51.8,196.8 M76.5,196.9 L76.5,166.2 L58.5,166.2 L58.5,196.9 L76.5,196.9 M83.3,166.1 L83.3,196.8 L94.5,196.8 L94.5,166.1 L83.3,166.1" id="Shape" fill-rule="nonzero"></path>
                <path d="M67.6,116.1 C58.2,116.1 51,123.5 51,132.7 L51,146.8 L25.4,146.8 L25.4,120.3 C30.4,108.6 37.8,101.2 50.6,97.9 L84.7,97.9 C97.5,101.3 104.7,108.7 109.6,120.3 L109.6,146.8 L84.2,146.8 C84.2,146.8 84,132.7 84.2,132.7 C84,123.5 76.8,116.1 67.6,116.1" id="Path"></path>
            </g>
        </g>
    </g>
</svg>