<?xml version="1.0" encoding="UTF-8" standalone="no"?>
<svg
   xmlns:dc="http://purl.org/dc/elements/1.1/"
   xmlns:cc="http://creativecommons.org/ns#"
   xmlns:rdf="http://www.w3.org/1999/02/22-rdf-syntax-ns#"
   xmlns:svg="http://www.w3.org/2000/svg"
   xmlns="http://www.w3.org/2000/svg"
   viewBox="0 0 554.98303 414.34131"
   height="414.34131"
   width="554.98303"
   xml:space="preserve"
   id="svg2"
   version="1.1"><metadata
     id="metadata8"><rdf:RDF><cc:Work
         rdf:about=""><dc:format>image/svg+xml</dc:format><dc:type
           rdf:resource="http://purl.org/dc/dcmitype/StillImage" /></cc:Work></rdf:RDF></metadata><defs
     id="defs6"><clipPath
       id="clipPath28"
       clipPathUnits="userSpaceOnUse"><path
         id="path26"
         d="M 0,792 H 612 V 0 H 0 Z" /></clipPath></defs><g
     transform="matrix(1.3333333,0,0,-1.3333333,-134.2864,763.67505)"
     id="g10"><g
       transform="translate(100.7148,295.0469)"
       id="g12"><path
         id="path14"
         style="fill:#918976;fill-opacity:1;fill-rule:nonzero;stroke:none"
         d="M 0,0 H 4.695 V -14.958 H 4.788 L 11.646,0 h 4.693 l -6.395,-13.118 7.592,-19.653 h -4.971 l -5.339,14.544 -2.531,-4.74 v -9.804 H 0 Z" /></g><path
       id="path16"
       style="fill:#918976;fill-opacity:1;fill-rule:nonzero;stroke:none"
       d="m 120.46,295.047 h 4.692 v -32.771 h -4.692 z" /><g
       transform="translate(129.5254,295.0469)"
       id="g18"><path
         id="path20"
         style="fill:#918976;fill-opacity:1;fill-rule:nonzero;stroke:none"
         d="m 0,0 h 4.509 l 7.09,-19.746 h 0.09 V 0 h 4.695 V -32.771 H 11.965 L 4.785,-13.07 H 4.694 V -32.771 H 0 Z" /></g><g
       id="g22"><g
         clip-path="url(#clipPath28)"
         id="g24"><g
           transform="translate(149.8667,287.3145)"
           id="g30"><path
             id="path32"
             style="fill:#918976;fill-opacity:1;fill-rule:nonzero;stroke:none"
             d="m 0,0 c 0,1.319 0.233,2.485 0.693,3.497 0.459,1.015 1.064,1.85 1.815,2.508 0.752,0.661 1.596,1.159 2.534,1.497 0.934,0.337 1.878,0.507 2.831,0.507 0.949,0 1.893,-0.17 2.83,-0.507 0.935,-0.338 1.779,-0.836 2.53,-1.497 C 13.985,5.347 14.589,4.512 15.051,3.497 15.513,2.485 15.742,1.319 15.742,0 V -1.657 H 11.047 V 0 c 0,1.134 -0.315,1.972 -0.944,2.508 C 9.476,3.044 8.729,3.313 7.873,3.313 7.013,3.313 6.268,3.044 5.639,2.508 5.01,1.972 4.695,1.134 4.695,0 v -17.306 c 0,-1.136 0.315,-1.971 0.944,-2.507 0.629,-0.538 1.374,-0.807 2.234,-0.807 0.856,0 1.603,0.269 2.23,0.807 0.629,0.536 0.944,1.371 0.944,2.507 v 6.166 H 7.318 v 4.145 h 8.424 v -10.311 c 0,-1.349 -0.229,-2.524 -0.691,-3.519 -0.462,-0.999 -1.066,-1.827 -1.818,-2.487 -0.751,-0.66 -1.595,-1.158 -2.53,-1.496 -0.937,-0.337 -1.881,-0.506 -2.83,-0.506 -0.953,0 -1.897,0.169 -2.831,0.506 -0.938,0.338 -1.782,0.836 -2.534,1.496 -0.751,0.66 -1.356,1.488 -1.815,2.487 C 0.233,-19.83 0,-18.655 0,-17.306 Z" /></g><g
           transform="translate(184.938,285.6123)"
           id="g34"><path
             id="path36"
             style="fill:#918976;fill-opacity:1;fill-rule:nonzero;stroke:none"
             d="m 0,0 h -4.695 v 1.057 c 0,1.075 -0.253,2.004 -0.758,2.787 -0.507,0.78 -1.359,1.172 -2.556,1.172 -0.643,0 -1.175,-0.122 -1.587,-0.37 -0.414,-0.244 -0.736,-0.558 -0.966,-0.941 -0.231,-0.385 -0.392,-0.828 -0.485,-1.335 -0.09,-0.508 -0.136,-1.037 -0.136,-1.59 0,-0.642 0.021,-1.188 0.068,-1.634 0.046,-0.444 0.161,-0.826 0.344,-1.15 0.184,-0.321 0.453,-0.604 0.806,-0.85 0.354,-0.248 0.836,-0.49 1.449,-0.737 l 3.59,-1.426 c 1.044,-0.4 1.888,-0.869 2.531,-1.403 0.645,-0.539 1.143,-1.168 1.499,-1.888 0.35,-0.722 0.588,-1.55 0.712,-2.485 C -0.061,-11.73 0,-12.794 0,-13.992 c 0,-1.381 -0.138,-2.662 -0.415,-3.844 -0.275,-1.182 -0.728,-2.193 -1.357,-3.037 -0.63,-0.845 -1.467,-1.513 -2.509,-2.004 -1.043,-0.488 -2.315,-0.735 -3.819,-0.735 -1.136,0 -2.195,0.201 -3.177,0.597 -0.981,0.401 -1.825,0.945 -2.531,1.637 -0.704,0.688 -1.266,1.51 -1.68,2.46 -0.412,0.951 -0.62,1.981 -0.62,3.084 v 1.749 h 4.694 v -1.474 c 0,-0.857 0.252,-1.631 0.759,-2.322 0.507,-0.69 1.358,-1.037 2.555,-1.037 0.795,0 1.42,0.116 1.864,0.347 0.443,0.231 0.783,0.552 1.011,0.967 0.231,0.414 0.376,0.927 0.439,1.541 0.059,0.614 0.091,1.288 0.091,2.024 0,0.86 -0.032,1.566 -0.091,2.118 -0.063,0.551 -0.192,0.996 -0.391,1.334 -0.201,0.337 -0.478,0.613 -0.828,0.83 -0.356,0.213 -0.825,0.444 -1.404,0.689 l -3.362,1.381 c -2.023,0.828 -3.381,1.925 -4.072,3.291 -0.69,1.365 -1.036,3.076 -1.036,5.131 0,1.227 0.169,2.393 0.506,3.497 0.338,1.105 0.836,2.056 1.497,2.855 0.659,0.797 1.494,1.435 2.505,1.911 1.015,0.475 2.196,0.713 3.548,0.713 1.165,0 2.229,-0.215 3.198,-0.646 0.967,-0.429 1.795,-0.996 2.486,-1.702 0.688,-0.706 1.22,-1.496 1.587,-2.37 C -0.184,4.117 0,3.221 0,2.302 Z" /></g><g
           transform="translate(196.9966,295.0469)"
           id="g38"><path
             id="path40"
             style="fill:#918976;fill-opacity:1;fill-rule:nonzero;stroke:none"
             d="m 0,0 h 6.949 c 2.672,0 4.711,-0.745 6.121,-2.232 1.412,-1.49 2.119,-3.568 2.119,-6.237 v -15.326 c 0,-3.067 -0.745,-5.331 -2.232,-6.789 -1.49,-1.458 -3.629,-2.187 -6.42,-2.187 H 0 Z m 4.695,-28.353 h 2.164 c 1.317,0 2.254,0.332 2.809,0.993 0.55,0.658 0.826,1.693 0.826,3.105 v 15.786 c 0,1.288 -0.26,2.287 -0.783,2.993 C 9.19,-4.771 8.24,-4.419 6.859,-4.419 H 4.695 Z" /></g><path
           id="path42"
           style="fill:#918976;fill-opacity:1;fill-rule:nonzero;stroke:none"
           d="m 216.742,295.047 h 4.692 v -32.771 h -4.692 z" /><g
           transform="translate(241.1797,285.6123)"
           id="g44"><path
             id="path46"
             style="fill:#918976;fill-opacity:1;fill-rule:nonzero;stroke:none"
             d="m 0,0 h -4.695 v 1.057 c 0,1.075 -0.254,2.004 -0.758,2.787 -0.507,0.78 -1.359,1.172 -2.556,1.172 -0.643,0 -1.175,-0.122 -1.587,-0.37 -0.414,-0.244 -0.736,-0.558 -0.967,-0.941 -0.23,-0.385 -0.391,-0.828 -0.484,-1.335 -0.09,-0.508 -0.136,-1.037 -0.136,-1.59 0,-0.642 0.021,-1.188 0.068,-1.634 0.046,-0.444 0.161,-0.826 0.344,-1.15 0.184,-0.321 0.453,-0.604 0.806,-0.85 0.353,-0.248 0.836,-0.49 1.449,-0.737 l 3.59,-1.426 c 1.044,-0.4 1.888,-0.869 2.531,-1.403 0.647,-0.539 1.143,-1.168 1.499,-1.888 0.35,-0.722 0.588,-1.55 0.712,-2.485 C -0.062,-11.73 0,-12.794 0,-13.992 c 0,-1.381 -0.138,-2.662 -0.415,-3.844 -0.275,-1.182 -0.729,-2.193 -1.357,-3.037 -0.63,-0.845 -1.468,-1.513 -2.509,-2.004 -1.043,-0.488 -2.315,-0.735 -3.819,-0.735 -1.136,0 -2.195,0.201 -3.175,0.597 -0.983,0.401 -1.827,0.945 -2.534,1.637 -0.703,0.688 -1.265,1.51 -1.679,2.46 -0.412,0.951 -0.62,1.981 -0.62,3.084 v 1.749 h 4.694 v -1.474 c 0,-0.857 0.252,-1.631 0.759,-2.322 0.507,-0.69 1.358,-1.037 2.555,-1.037 0.795,0 1.42,0.116 1.864,0.347 0.443,0.231 0.783,0.552 1.011,0.967 0.231,0.414 0.376,0.927 0.439,1.541 0.059,0.614 0.091,1.288 0.091,2.024 0,0.86 -0.032,1.566 -0.091,2.118 -0.063,0.551 -0.192,0.996 -0.391,1.334 -0.201,0.337 -0.478,0.613 -0.829,0.83 -0.355,0.213 -0.824,0.444 -1.403,0.689 l -3.362,1.381 c -2.023,0.828 -3.381,1.925 -4.072,3.291 -0.69,1.365 -1.036,3.076 -1.036,5.131 0,1.227 0.169,2.393 0.506,3.497 0.338,1.105 0.836,2.056 1.497,2.855 0.658,0.797 1.494,1.435 2.508,1.911 1.012,0.475 2.193,0.713 3.545,0.713 1.165,0 2.229,-0.215 3.198,-0.646 0.967,-0.429 1.795,-0.996 2.486,-1.702 0.688,-0.706 1.22,-1.496 1.586,-2.37 C -0.184,4.117 0,3.221 0,2.302 Z" /></g><g
           transform="translate(247.7603,290.6279)"
           id="g48"><path
             id="path50"
             style="fill:#918976;fill-opacity:1;fill-rule:nonzero;stroke:none"
             d="M 0,0 H -5.428 V 4.418 H 10.127 V 0 H 4.695 V -28.35 H 0 Z" /></g><g
           transform="translate(259.9561,295.0469)"
           id="g52"><path
             id="path54"
             style="fill:#918976;fill-opacity:1;fill-rule:nonzero;stroke:none"
             d="m 0,0 h 7.549 c 5.521,0 8.283,-3.208 8.283,-9.618 0,-1.903 -0.299,-3.538 -0.896,-4.903 -0.598,-1.366 -1.65,-2.463 -3.154,-3.291 l 5.064,-14.959 H 11.875 L 7.502,-18.777 H 4.695 V -32.771 H 0 Z m 4.695,-14.637 h 2.671 c 0.826,0 1.487,0.116 1.978,0.347 0.491,0.23 0.867,0.559 1.128,0.989 0.26,0.43 0.437,0.957 0.527,1.587 0.093,0.629 0.141,1.358 0.141,2.187 0,0.828 -0.048,1.556 -0.141,2.186 -0.09,0.629 -0.283,1.166 -0.575,1.612 -0.29,0.444 -0.697,0.774 -1.22,0.989 -0.52,0.215 -1.211,0.321 -2.071,0.321 H 4.695 Z" /></g><path
           id="path56"
           style="fill:#918976;fill-opacity:1;fill-rule:nonzero;stroke:none"
           d="m 279.7,295.047 h 4.693 V 262.276 H 279.7 Z" /><g
           transform="translate(288.9502,295.0469)"
           id="g58"><path
             id="path60"
             style="fill:#918976;fill-opacity:1;fill-rule:nonzero;stroke:none"
             d="m 0,0 h 6.859 c 1.501,0 2.784,-0.23 3.844,-0.69 1.057,-0.46 1.923,-1.076 2.598,-1.841 0.677,-0.767 1.159,-1.65 1.451,-2.649 0.292,-0.995 0.437,-2.032 0.437,-3.105 V -9.48 c 0,-0.892 -0.068,-1.644 -0.208,-2.257 -0.136,-0.614 -0.344,-1.15 -0.621,-1.61 -0.276,-0.462 -0.615,-0.867 -1.014,-1.219 -0.396,-0.354 -0.858,-0.684 -1.378,-0.992 1.102,-0.521 1.917,-1.295 2.438,-2.323 0.523,-1.027 0.783,-2.401 0.783,-4.119 v -1.841 c 0,-2.884 -0.699,-5.093 -2.094,-6.628 -1.396,-1.534 -3.629,-2.302 -6.698,-2.302 H 0 Z m 4.695,-13.439 h 2.118 c 1.565,0 2.615,0.391 3.151,1.174 0.539,0.782 0.807,1.924 0.807,3.428 0,1.474 -0.299,2.578 -0.899,3.314 -0.596,0.735 -1.68,1.104 -3.244,1.104 H 4.695 Z m 0,-14.637 h 2.026 c 0.95,0 1.695,0.139 2.232,0.414 0.536,0.276 0.943,0.661 1.22,1.152 0.276,0.489 0.443,1.073 0.507,1.748 0.059,0.675 0.091,1.412 0.091,2.209 0,0.828 -0.048,1.551 -0.139,2.164 -0.092,0.614 -0.285,1.127 -0.575,1.542 -0.292,0.414 -0.697,0.729 -1.22,0.944 -0.521,0.215 -1.213,0.321 -2.071,0.321 H 4.695 Z" /></g><g
           transform="translate(323.7451,269.6406)"
           id="g62"><path
             id="path64"
             style="fill:#918976;fill-opacity:1;fill-rule:nonzero;stroke:none"
             d="m 0,0 c 0,-1.075 -0.199,-2.069 -0.601,-2.99 -0.395,-0.922 -0.941,-1.728 -1.631,-2.418 -0.691,-0.691 -1.495,-1.236 -2.417,-1.634 -0.92,-0.398 -1.905,-0.598 -2.944,-0.598 -1.043,0 -2.025,0.2 -2.947,0.598 -0.919,0.398 -1.727,0.943 -2.417,1.634 -0.689,0.69 -1.236,1.496 -1.633,2.418 -0.4,0.921 -0.599,1.915 -0.599,2.99 v 25.407 h 4.695 V 0.462 c 0,-1.166 0.275,-2.026 0.828,-2.578 0.555,-0.553 1.243,-0.829 2.073,-0.829 0.826,0 1.517,0.276 2.072,0.829 0.549,0.552 0.826,1.412 0.826,2.578 V 25.407 H 0 Z" /></g><g
           transform="translate(331.248,290.6279)"
           id="g66"><path
             id="path68"
             style="fill:#918976;fill-opacity:1;fill-rule:nonzero;stroke:none"
             d="M 0,0 H -5.429 V 4.418 H 10.127 V 0 H 4.694 V -28.35 H 0 Z" /></g><g
           transform="translate(343.4434,295.0469)"
           id="g70"><path
             id="path72"
             style="fill:#918976;fill-opacity:1;fill-rule:nonzero;stroke:none"
             d="M 0,0 H 13.993 V -4.419 H 4.694 v -9.618 h 8.1 v -4.418 h -8.1 v -9.621 h 9.299 v -4.695 H 0 Z" /></g><g
           transform="translate(360.4717,295.0469)"
           id="g74"><path
             id="path76"
             style="fill:#918976;fill-opacity:1;fill-rule:nonzero;stroke:none"
             d="m 0,0 h 6.949 c 2.671,0 4.711,-0.745 6.121,-2.232 1.412,-1.49 2.118,-3.568 2.118,-6.237 v -15.326 c 0,-3.067 -0.744,-5.331 -2.231,-6.789 -1.489,-1.458 -3.629,-2.187 -6.42,-2.187 H 0 Z m 4.694,-28.353 h 2.164 c 1.318,0 2.255,0.332 2.807,0.993 0.553,0.658 0.829,1.693 0.829,3.105 v 15.786 c 0,1.288 -0.263,2.287 -0.783,2.993 -0.521,0.705 -1.472,1.057 -2.853,1.057 H 4.694 Z" /></g><g
           transform="translate(403.8252,285.6123)"
           id="g78"><path
             id="path80"
             style="fill:#918976;fill-opacity:1;fill-rule:nonzero;stroke:none"
             d="m 0,0 h -4.694 v 1.057 c 0,1.075 -0.254,2.004 -0.759,2.787 -0.507,0.78 -1.358,1.172 -2.556,1.172 -0.642,0 -1.175,-0.122 -1.587,-0.37 -0.414,-0.244 -0.737,-0.558 -0.966,-0.941 -0.231,-0.385 -0.391,-0.828 -0.484,-1.335 -0.091,-0.508 -0.139,-1.037 -0.139,-1.59 0,-0.642 0.023,-1.188 0.071,-1.634 0.045,-0.444 0.161,-0.826 0.343,-1.15 0.184,-0.321 0.454,-0.604 0.807,-0.85 0.353,-0.248 0.835,-0.49 1.448,-0.737 l 3.59,-1.426 c 1.044,-0.4 1.889,-0.869 2.531,-1.403 0.645,-0.539 1.143,-1.168 1.497,-1.888 0.353,-0.722 0.59,-1.55 0.714,-2.485 C -0.061,-11.73 0,-12.794 0,-13.992 c 0,-1.381 -0.138,-2.662 -0.414,-3.844 -0.276,-1.182 -0.729,-2.193 -1.358,-3.037 -0.629,-0.845 -1.467,-1.513 -2.508,-2.004 -1.044,-0.488 -2.316,-0.735 -3.819,-0.735 -1.136,0 -2.196,0.201 -3.178,0.597 -0.981,0.401 -1.825,0.945 -2.531,1.637 -0.704,0.688 -1.265,1.51 -1.679,2.46 -0.414,0.951 -0.62,1.981 -0.62,3.084 v 1.749 h 4.694 v -1.474 c 0,-0.857 0.251,-1.631 0.759,-2.322 0.507,-0.69 1.355,-1.037 2.555,-1.037 0.794,0 1.419,0.116 1.863,0.347 0.444,0.231 0.783,0.552 1.011,0.967 0.232,0.414 0.376,0.927 0.44,1.541 0.058,0.614 0.091,1.288 0.091,2.024 0,0.86 -0.033,1.566 -0.091,2.118 -0.064,0.551 -0.193,0.996 -0.392,1.334 -0.201,0.337 -0.477,0.613 -0.828,0.83 -0.355,0.213 -0.824,0.444 -1.403,0.689 l -3.363,1.381 c -2.023,0.828 -3.381,1.925 -4.072,3.291 -0.69,1.365 -1.036,3.076 -1.036,5.131 0,1.227 0.167,2.393 0.507,3.497 0.337,1.105 0.835,2.056 1.496,2.855 0.659,0.797 1.494,1.435 2.506,1.911 1.015,0.475 2.196,0.713 3.547,0.713 1.166,0 2.23,-0.215 3.199,-0.646 0.966,-0.429 1.795,-0.996 2.485,-1.702 0.688,-0.706 1.22,-1.496 1.587,-2.37 C -0.184,4.117 0,3.221 0,2.302 Z" /></g><g
           transform="translate(411.6953,276.1309)"
           id="g82"><path
             id="path84"
             style="fill:#918976;fill-opacity:1;fill-rule:nonzero;stroke:none"
             d="m 0,0 -6.445,18.915 h 4.973 L 2.302,5.893 h 0.093 l 3.773,13.022 h 4.971 L 4.694,0 V -13.854 H 0 Z" /></g><g
           transform="translate(440.3682,285.6123)"
           id="g86"><path
             id="path88"
             style="fill:#918976;fill-opacity:1;fill-rule:nonzero;stroke:none"
             d="m 0,0 h -4.694 v 1.057 c 0,1.075 -0.254,2.004 -0.759,2.787 -0.507,0.78 -1.358,1.172 -2.556,1.172 -0.642,0 -1.175,-0.122 -1.586,-0.37 -0.415,-0.244 -0.736,-0.558 -0.967,-0.941 -0.231,-0.385 -0.391,-0.828 -0.484,-1.335 -0.091,-0.508 -0.136,-1.037 -0.136,-1.59 0,-0.642 0.02,-1.188 0.068,-1.634 0.046,-0.444 0.161,-0.826 0.343,-1.15 0.184,-0.321 0.454,-0.604 0.807,-0.85 0.353,-0.248 0.835,-0.49 1.448,-0.737 l 3.59,-1.426 c 1.044,-0.4 1.889,-0.869 2.531,-1.403 0.648,-0.539 1.144,-1.168 1.497,-1.888 0.353,-0.722 0.59,-1.55 0.715,-2.485 C -0.061,-11.73 0,-12.794 0,-13.992 c 0,-1.381 -0.138,-2.662 -0.414,-3.844 -0.276,-1.182 -0.729,-2.193 -1.358,-3.037 -0.629,-0.845 -1.467,-1.513 -2.508,-2.004 -1.044,-0.488 -2.316,-0.735 -3.819,-0.735 -1.136,0 -2.196,0.201 -3.175,0.597 -0.983,0.401 -1.828,0.945 -2.534,1.637 -0.704,0.688 -1.265,1.51 -1.679,2.46 -0.412,0.951 -0.62,1.981 -0.62,3.084 v 1.749 h 4.694 v -1.474 c 0,-0.857 0.251,-1.631 0.759,-2.322 0.507,-0.69 1.357,-1.037 2.555,-1.037 0.794,0 1.419,0.116 1.863,0.347 0.444,0.231 0.783,0.552 1.012,0.967 0.231,0.414 0.375,0.927 0.439,1.541 0.058,0.614 0.091,1.288 0.091,2.024 0,0.86 -0.033,1.566 -0.091,2.118 -0.064,0.551 -0.193,0.996 -0.392,1.334 -0.201,0.337 -0.477,0.613 -0.828,0.83 -0.355,0.213 -0.824,0.444 -1.403,0.689 l -3.363,1.381 c -2.023,0.828 -3.381,1.925 -4.072,3.291 -0.69,1.365 -1.036,3.076 -1.036,5.131 0,1.227 0.17,2.393 0.507,3.497 0.337,1.105 0.835,2.056 1.496,2.855 0.659,0.797 1.494,1.435 2.509,1.911 1.012,0.475 2.193,0.713 3.544,0.713 1.166,0 2.23,-0.215 3.199,-0.646 0.967,-0.429 1.795,-0.996 2.485,-1.702 0.689,-0.706 1.22,-1.496 1.587,-2.37 C -0.183,4.117 0,3.221 0,2.302 Z" /></g><g
           transform="translate(446.9492,290.6279)"
           id="g90"><path
             id="path92"
             style="fill:#918976;fill-opacity:1;fill-rule:nonzero;stroke:none"
             d="M 0,0 H -5.428 V 4.418 H 10.128 V 0 H 4.695 V -28.35 H 0 Z" /></g><g
           transform="translate(459.1455,295.0469)"
           id="g94"><path
             id="path96"
             style="fill:#918976;fill-opacity:1;fill-rule:nonzero;stroke:none"
             d="M 0,0 H 13.993 V -4.419 H 4.694 v -9.618 h 8.1 v -4.418 h -8.1 v -9.621 h 9.299 v -4.695 H 0 Z" /></g><g
           transform="translate(476.1738,295.0469)"
           id="g98"><path
             id="path100"
             style="fill:#918976;fill-opacity:1;fill-rule:nonzero;stroke:none"
             d="m 0,0 h 4.511 l 6.028,-17.354 h 0.093 L 16.614,0 h 4.56 v -32.771 h -4.697 v 19.929 H 16.384 L 11.736,-26.926 H 9.389 L 4.787,-12.842 H 4.694 V -32.771 H 0 Z" /></g><g
           transform="translate(516.9521,285.6123)"
           id="g102"><path
             id="path104"
             style="fill:#918976;fill-opacity:1;fill-rule:nonzero;stroke:none"
             d="m 0,0 h -4.695 v 1.057 c 0,1.075 -0.253,2.004 -0.758,2.787 -0.507,0.78 -1.359,1.172 -2.556,1.172 -0.643,0 -1.175,-0.122 -1.587,-0.37 -0.414,-0.244 -0.735,-0.558 -0.967,-0.941 -0.23,-0.385 -0.391,-0.828 -0.484,-1.335 -0.091,-0.508 -0.136,-1.037 -0.136,-1.59 0,-0.642 0.021,-1.188 0.069,-1.634 0.045,-0.444 0.16,-0.826 0.343,-1.15 0.184,-0.321 0.453,-0.604 0.806,-0.85 0.354,-0.248 0.835,-0.49 1.449,-0.737 l 3.59,-1.426 c 1.043,-0.4 1.888,-0.869 2.53,-1.403 0.648,-0.539 1.144,-1.168 1.5,-1.888 0.35,-0.722 0.587,-1.55 0.712,-2.485 C -0.062,-11.73 0,-12.794 0,-13.992 c 0,-1.381 -0.139,-2.662 -0.414,-3.844 -0.276,-1.182 -0.73,-2.193 -1.358,-3.037 -0.63,-0.845 -1.467,-1.513 -2.509,-2.004 -1.043,-0.488 -2.316,-0.735 -3.819,-0.735 -1.136,0 -2.195,0.201 -3.175,0.597 -0.983,0.401 -1.828,0.945 -2.534,1.637 -0.704,0.688 -1.265,1.51 -1.679,2.46 -0.412,0.951 -0.62,1.981 -0.62,3.084 v 1.749 h 4.695 v -1.474 c 0,-0.857 0.251,-1.631 0.758,-2.322 0.507,-0.69 1.358,-1.037 2.555,-1.037 0.795,0 1.419,0.116 1.864,0.347 0.443,0.231 0.783,0.552 1.011,0.967 0.231,0.414 0.376,0.927 0.44,1.541 0.058,0.614 0.09,1.288 0.09,2.024 0,0.86 -0.032,1.566 -0.09,2.118 -0.064,0.551 -0.193,0.996 -0.392,1.334 -0.202,0.337 -0.478,0.613 -0.829,0.83 -0.355,0.213 -0.824,0.444 -1.403,0.689 l -3.362,1.381 c -2.023,0.828 -3.381,1.925 -4.072,3.291 -0.69,1.365 -1.037,3.076 -1.037,5.131 0,1.227 0.17,2.393 0.507,3.497 0.338,1.105 0.836,2.056 1.497,2.855 0.658,0.797 1.494,1.435 2.508,1.911 1.012,0.475 2.193,0.713 3.545,0.713 1.166,0 2.229,-0.215 3.198,-0.646 C -3.658,8.636 -2.83,8.069 -2.14,7.363 -1.451,6.657 -0.919,5.867 -0.553,4.993 -0.184,4.117 0,3.221 0,2.302 Z" /></g><g
           transform="translate(406.5127,563.4561)"
           id="g106"><path
             id="path108"
             style="fill:#1a3038;fill-opacity:1;fill-rule:nonzero;stroke:none"
             d="m 0,0 c 0,3.623 -3.039,6.786 -6.786,6.786 h -52.306 c -4.471,0 -6.528,-1.034 -9.438,-3.66 l -117.735,-114.187 c -2.697,-2.697 -4.06,-5.394 -4.06,-9.935 v -69.272 c 0,-3.746 3.04,-6.786 6.787,-6.786 h 41.959 c 3.746,0 6.786,3.04 6.786,6.786 v 60.45 l 62.218,-62.572 c 3.052,-2.98 5.89,-3.974 10.219,-3.974 h 55.57 c 3.747,0 6.786,3.415 6.786,7.161 0,1.838 -0.746,3.597 -2.063,4.874 l -92.454,89.537 91.064,88.195 C -2.137,-5.32 0,-3.9 0,0" /></g><g
           transform="translate(271.1934,531.8828)"
           id="g110"><path
             id="path112"
             style="fill:#918976;fill-opacity:1;fill-rule:nonzero;stroke:none"
             d="m 0,0 c 2.099,2.023 3.818,6.063 3.818,8.979 v 29.204 c 0,2.915 -1.404,3.373 -3.12,1.018 L -9.579,25.09 c -1.715,-2.356 -4.418,-2.284 -6.007,0.161 l -8.959,13.788 c -1.586,2.446 -4.186,2.446 -5.776,0 L -39.28,25.251 c -1.59,-2.445 -4.292,-2.517 -6.008,-0.161 l -10.277,14.111 c -1.716,2.355 -3.116,1.897 -3.116,-1.018 V 8.979 c 0,-2.916 1.668,-7.003 3.712,-9.085 l 22.951,-23.386 c 2.04,-2.083 5.429,-2.131 7.528,-0.107 z" /></g></g></g></g></svg>
