<?xml version="1.0" encoding="UTF-8"?>
<svg width="414px" height="131px" viewBox="0 0 414 131" version="1.1" xmlns="http://www.w3.org/2000/svg" xmlns:xlink="http://www.w3.org/1999/xlink">
    <!-- Generator: Sketch 52.5 (67469) - http://www.bohemiancoding.com/sketch -->
    <title>Untitled</title>
    <desc>Created with Sketch.</desc>
    <g id="Page-1" stroke="none" stroke-width="1" fill="none" fill-rule="evenodd">
        <g id="mosaic-logo-full">
            <polygon id="Path" fill="#7D00CA" points="58.5 0 48.9 29.4 65 78.8 81.7 71.3"></polygon>
            <polygon id="Path" fill="#FDB300" points="47 35.4 27.5 95.5 61.6 80.3"></polygon>
            <polygon id="Path" fill="#17A078" points="62.7 83.8 6.5 108.8 0 128.8 77.4 128.8"></polygon>
            <path d="M261.7,94.3 L255.9,93.5 C253.824657,93.2820905 251.833786,92.5612581 250.1,91.4 C248.909622,90.2575086 248.287018,88.6460623 248.4,87 C248.36183,85.3336655 249.101021,83.7444048 250.4,82.7 C251.8,81.6 254,81 257.1,81 C259.774668,80.966603 262.417313,81.5843641 264.8,82.8 C267.079331,83.8913692 269.145169,85.381482 270.9,87.2 L279.2,78.9 C277.86513,77.526096 276.427647,76.255762 274.9,75.1 C273.396851,73.9814172 271.789425,73.0102636 270.1,72.2 C268.21352,71.3631871 266.232328,70.7587555 264.2,70.4 C261.756555,69.9766199 259.279736,69.7757967 256.8,69.8 C253.749615,69.7465936 250.710585,70.1855646 247.8,71.1 C245.291597,71.8493143 242.949564,73.0712448 240.9,74.7 C239.024789,76.2463341 237.521072,78.194331 236.5,80.4 C235.466635,82.7982746 234.955317,85.3889527 235,88 C235,93.3 236.6,97.3 239.9,100.1 C243.2,102.9 247.9,104.6 254.2,105.4 L259.9,106.2 C262.5,106.6 264.3,107.2 265.4,108.2 C266.502651,109.228358 267.089259,110.694878 267,112.2 C267.08763,114.084633 266.223761,115.887491 264.7,117 C263.2,118.2 260.7,118.8 257.4,118.8 C254.336527,118.853151 251.309359,118.130758 248.6,116.7 C245.958955,115.212698 243.591537,113.284944 241.6,111 L233,119.4 C235.776611,122.603123 239.136091,125.249986 242.9,127.2 C246.6,129.1 251.3,130 256.8,130 C260.118357,130.026925 263.421917,129.554988 266.6,128.6 C269.304583,127.812713 271.821803,126.486071 274,124.7 C276.053097,123.108873 277.69836,121.052293 278.8,118.7 C279.936831,116.293262 280.517833,113.661664 280.5,111 C280.3,101.7 274.1,96.1 261.7,94.3 Z M224.2,78 C221.888676,75.3917132 219.016917,73.3404571 215.8,72 C208.664785,69.2004242 200.735215,69.2004242 193.6,72 C190.383083,73.3404571 187.511324,75.3917132 185.2,78 C182.818797,80.744768 181.016132,83.9419473 179.9,87.4 C178.56014,91.4282304 177.917582,95.6555833 178,99.9 C177.925524,104.14389 178.56788,108.369912 179.9,112.4 C180.993895,115.897734 182.798231,119.131922 185.2,121.9 C187.506566,124.538142 190.377574,126.623041 193.6,128 C200.735215,130.799576 208.664785,130.799576 215.8,128 C219.042374,126.658448 221.92093,124.568069 224.2,121.9 C226.601769,119.131922 228.406105,115.897734 229.5,112.4 C230.783828,108.358497 231.424973,104.140441 231.4,99.9 C231.474476,95.6561097 230.83212,91.4300877 229.5,87.4 C228.359551,83.9526502 226.559459,80.7600355 224.2,78 Z M216.6,105.3 C216.6,109.7 215.5,113.1 213.4,115.3 C211.3,117.5 208.3,118.7 204.6,118.7 C200.9,118.7 198,117.6 195.9,115.3 C193.8,113 192.7,109.7 192.7,105.3 L192.7,94.6 C192.7,90.3 193.8,87 195.9,84.7 C198,82.4 200.9,81.3 204.6,81.3 C208.3,81.3 211.3,82.4 213.4,84.7 C215.5,87 216.6,90.3 216.6,94.6 L216.6,105.3 Z M137,89.5 L136.5,89.5 L116.8,51.9 L100.4,51.9 L100.4,128.8 L114.2,128.8 L114.2,73.6 L114.6,73.6 L120.6,85.8 L136.4,114.9 L152.2,85.8 L158.2,73.6 L158.6,73.6 L158.6,128.8 L172.4,128.8 L172.4,51.9 L156.5,51.9 L137,89.5 Z M343.1,128.8 L357.2,128.8 L357.2,71.3 L343.1,71.3 L343.1,128.8 Z M332,90.4 C332,83.8 330,78.7 325.9,75.2 C321.8,71.7 315.9,69.9 308.2,69.9 C302.4,69.9 297.7,70.9 294.2,72.9 C290.755872,74.8325116 287.837509,77.5792058 285.7,80.9 L294.1,88.4 C295.486692,86.4131748 297.213175,84.6866925 299.2,83.3 C301.588464,81.7967419 304.381143,81.0636635 307.2,81.2 C310.9,81.2 313.7,82.1 315.4,83.8 C317.1,85.5 317.9,88.1 317.9,91.3 L317.9,95.5 L308.1,95.5 C300.2,95.5 294.2,96.9 289.9,99.8 C285.6,102.7 283.5,107.1 283.5,113 C283.5,118.1 285.1,122.2 288.2,125.3 C291.3,128.4 295.9,129.9 301.8,129.9 C305.628675,130.049901 309.417583,129.076603 312.7,127.1 C315.657451,125.16624 317.739573,122.150753 318.5,118.7 L319.2,118.7 C319.495456,121.412919 320.692689,123.948235 322.6,125.9 C324.556924,127.768105 327.198462,128.745112 329.9,128.6 L337.7,128.6 L337.7,117.2 L332,117.2 L332,90.4 Z M317.9,111.7 C318.006332,114.185674 316.738709,116.528856 314.6,117.8 C312.189724,119.252288 309.412823,119.981225 306.6,119.9 C304.339863,120.03133 302.09705,119.435583 300.2,118.2 C298.627197,116.948554 297.767804,115.00558 297.9,113 L297.9,111.1 C297.9,106.4 301.6,104.1 308.9,104.1 L317.9,104.1 L317.9,111.7 Z M402.4,109.7 C401.46946,112.13125 399.999189,114.319561 398.1,116.1 C396.3,117.8 393.7,118.7 390.3,118.7 C386.3,118.7 383.4,117.5 381.4,115 C379.363884,112.149908 378.342742,108.699151 378.5,105.2 L378.5,94.7 C378.358088,91.2027378 379.377787,87.756858 381.4,84.9 C383.3,82.4 386.3,81.2 390.3,81.2 C392.948781,81.0518586 395.555873,81.9089846 397.6,83.6 C399.384716,85.2025289 400.669385,87.2857757 401.3,89.6 L412.9,84.4 C411.381911,80.0478478 408.50777,76.2974439 404.7,73.7 C400.9,71.1 396.1,69.8 390.3,69.8 C386.398135,69.7346337 382.522456,70.4485746 378.9,71.9 C375.698367,73.2165455 372.854072,75.2726624 370.6,77.9 C368.282546,80.656702 366.547647,83.8543602 365.5,87.3 C364.24386,91.3455125 363.636336,95.5644357 363.7,99.8 C363.64383,104.035081 364.251187,108.252837 365.5,112.3 C366.565627,115.768361 368.298019,118.995366 370.6,121.8 C372.848873,124.457316 375.692421,126.547152 378.9,127.9 C382.51995,129.360069 386.397397,130.074336 390.3,130 C395.302285,130.142303 400.237364,128.821648 404.5,126.2 C408.581282,123.467082 411.64099,119.45781 413.2,114.8 L402.4,109.7 Z M350.1,46.6 C347.2,46.6 345,47.3 343.8,48.6 C342.490559,49.9653049 341.803043,51.8107428 341.9,53.7 L341.9,55.9 C341.819486,57.7866907 342.504674,59.6258771 343.8,61 C345.1,62.3 347.2,63 350.1,63 C353,63 355.1,62.3 356.4,61 C357.738811,59.6468309 358.462066,57.8025326 358.4,55.9 L358.4,53.7 C358.442416,51.8009037 357.722064,49.9640062 356.4,48.6 C355.1,47.2 353,46.6 350.1,46.6 Z" id="Shape" fill="#000000" fill-rule="nonzero"></path>
            <polygon id="Path" fill="#1DBC94" points="77.4 128.8 16.7 128.8 26 100.2"></polygon>
            <polygon id="Path" fill="#B200FF" points="58.5 0 48.9 29.4 81.7 71.3"></polygon>
            <polygon id="Path" fill="#23D8B6" points="6.5 108.8 0 128.8 16.7 128.8 26 100.2"></polygon>
            <polygon id="Path" fill="#FED941" points="27.5 95.5 61.6 80.3 37.8 63.6"></polygon>
        </g>
    </g>
</svg>