<?xml version="1.0" encoding="UTF-8"?>
<svg width="693px" height="212px" viewBox="0 0 693 212" version="1.1" xmlns="http://www.w3.org/2000/svg" xmlns:xlink="http://www.w3.org/1999/xlink">
  <g id="Page-1" stroke="none" stroke-width="1" fill="none" fill-rule="evenodd">
    <g id="NBFWM">
      <rect id="Rectangle" x="0.4" y="0.8" width="691.9" height="210.7"></rect>
      <g id="Group" transform="translate(57.000000, 22.000000)">
        <path d="M73.5,25.3 C71.5,25.8 70.1,26.1 68.6,25.5 C67.5,25.1 66.6,23.8 65.8,22.7 L52.2,4.1 C51.4,3 50.5,1.7 49.4,1.3 C48,0.7 46.5,1.1 44.5,1.5 L0.7,13.6 L0.7,95.1 L44.6,83.1 C46.6,82.7 48.1,82.3 49.5,82.9 C50.6,83.3 51.5,84.6 52.3,85.7 L65.8,104.3 C66.6,105.4 67.5,106.6 68.6,107.1 C70.1,107.6 71.5,107.3 73.5,106.9 L117.3,95.2 L117.3,13.6 L73.5,25.3 Z" id="Path" fill="#ED1C24"></path>
        <g transform="translate(146.000000, 111.000000)">
          <g transform="translate(0.000000, 18.000000)" fill="#959484">
            <polygon id="Path" points="5.3 0.8 9 19.5 13.6 0.8 19.4 0.8 23.6 19.5 27.4 0.8 32.3 0.8 26.3 25.8 20.6 25.8 16.3 6.7 11.7 25.8 5.9 25.8 0.1 0.8"></polygon>
            <polygon id="Path" points="37.5 0.8 53.4 0.8 53.4 4.9 42.6 4.9 42.6 10.9 52.7 10.9 52.7 15 42.6 15 42.6 21.7 53.8 21.7 53.8 25.9 37.5 25.9 37.5 0.8"></polygon>
            <path d="M72.6,0.8 L80.9,25.8 L75.8,25.8 L74.1,20.4 L64.7,20.4 L62.9,25.8 L58,25.8 L66.6,0.8 L72.6,0.8 Z M72.7,16.3 L69.4,5.6 L65.9,16.3 L72.7,16.3 Z" id="Shape" fill-rule="nonzero"></path>
            <polygon id="Path" points="86.4 0.8 91.6 0.8 91.6 21.5 101.8 21.5 101.8 25.8 86.4 25.8"></polygon>
            <polygon id="Path" points="109.4 4.9 102.3 4.9 102.3 0.7 121.6 0.7 121.6 4.9 114.5 4.9 114.5 25.8 109.4 25.8 109.4 4.9"></polygon>
            <polygon id="Path" points="126.8 0.8 131.9 0.8 131.9 10.8 140.9 10.8 140.9 0.8 146.1 0.8 146.1 25.8 141 25.8 141 14.8 132 14.8 132 25.8 126.9 25.8 126.9 0.8"></polygon>
            <polygon id="Path" points="164.7 0.8 173 0.8 178 19 183.4 0.8 191.5 0.8 191.5 25.8 186.4 25.8 186.4 4.3 179.9 25.8 175.7 25.8 169.4 4.3 169.4 25.8 164.6 25.8 164.6 0.8"></polygon>
            <path d="M211.2,0.8 L219.5,25.8 L214.4,25.8 L212.7,20.4 L203.3,20.4 L201.5,25.8 L196.6,25.8 L205.2,0.8 L211.2,0.8 Z M211.3,16.3 L208,5.6 L204.5,16.3 L211.3,16.3 Z" id="Shape" fill-rule="nonzero"></path>
            <polygon id="Path" points="225.1 0.8 232.5 0.8 241.4 20.5 241.4 0.8 246.1 0.8 246.1 25.8 239.1 25.8 229.9 5 229.9 25.8 225.1 25.8 225.1 0.8"></polygon>
            <path d="M265.8,0.8 L274.1,25.8 L269,25.8 L267.3,20.4 L257.9,20.4 L256.1,25.8 L251.2,25.8 L259.8,0.8 L265.8,0.8 Z M265.9,16.3 L262.6,5.6 L259.1,16.3 L265.9,16.3 Z" id="Shape" fill-rule="nonzero"></path>
            <path d="M294.9,8.4 C294.9,7.7 294.8,6.8 294.2,5.9 C293.2,4.2 291.3,4 290.2,4 C284.4,4 283.3,9.7 283.3,13.5 C283.3,15.2 283.5,18.2 285.3,20.2 C286.5,21.6 288.1,22.3 290.9,22.3 C293.4,22.3 294.2,22 294.8,21.8 L294.8,16.5 L290.2,16.5 L290.2,12.3 L299.9,12.3 L299.9,24.8 C298.4,25.3 296,26.2 291.2,26.2 C285.8,26.2 283,24.8 281.1,22.9 C278.4,20.2 277.9,16.2 277.9,13.6 C277.9,4.7 283.2,-5.68434189e-14 290.4,-5.68434189e-14 C293.5,-5.68434189e-14 296.6,0.9 298.5,3.2 C300.1,5.1 300.2,7.1 300.2,8.4 L294.9,8.4 Z" id="Path"></path>
            <polygon id="Path" points="307.3 0.8 323.2 0.8 323.2 4.9 312.4 4.9 312.4 10.9 322.5 10.9 322.5 15 312.4 15 312.4 21.7 323.6 21.7 323.6 25.9 307.3 25.9 307.3 0.8"></polygon>
            <polygon id="Path" points="329.6 0.8 337.9 0.8 342.9 19 348.3 0.8 356.4 0.8 356.4 25.8 351.3 25.8 351.3 4.3 344.8 25.8 340.6 25.8 334.3 4.3 334.3 25.8 329.5 25.8 329.5 0.8"></polygon>
            <polygon id="Path" points="363.7 0.8 379.6 0.8 379.6 4.9 368.8 4.9 368.8 10.9 378.9 10.9 378.9 15 368.8 15 368.8 21.7 380 21.7 380 25.9 363.7 25.9"></polygon>
            <polygon id="Path" points="386.3 0.8 393.7 0.8 402.6 20.5 402.6 0.8 407.3 0.8 407.3 25.8 400.3 25.8 391.1 5 391.1 25.8 386.3 25.8"></polygon>
            <polygon id="Path" points="419.7 4.9 412.6 4.9 412.6 0.7 431.9 0.7 431.9 4.9 424.8 4.9 424.8 25.8 419.7 25.8 419.7 4.9"></polygon>
          </g>
          <rect id="Rectangle" fill="#ED1C24" x="0" y="0.1" width="431.9" height="2.6"></rect>
        </g>
        <g transform="translate(146.000000, 12.000000)" fill="#959484">
          <path d="M299.2,1.5 L289.1,6.4 L278.5,36.2 L286.1,36.2 L288.5,29 L301.3,29 L303.5,36.2 L311.4,36.2 L299.2,1.5 Z M290.5,23 L294.9,9.3 L295,9.3 L299.3,23 L290.5,23 Z" id="Shape" fill-rule="nonzero"></path>
          <path d="M272.3,17.5 C273.7,16.8 276.6,15.4 276.6,10.4 C276.6,6.8 274.4,1.5 265.9,1.5 L256.3,1.5 L249,5 L249,36.1 L263.7,36.1 C270.8,36.1 272.7,34.9 274.7,33 C276.5,31.2 277.7,28.6 277.7,25.8 C277.6,22.5 276.5,19.1 272.3,17.5 Z M255.9,7.5 L264.2,7.5 C267.5,7.5 269.5,8.4 269.5,11.2 C269.5,14 267.2,15.1 264.4,15.1 L255.9,15.1 L255.9,7.5 Z M264.8,30.2 L255.9,30.2 L255.9,20.9 L265.1,20.9 C267.7,20.9 270.3,22.1 270.3,25.1 C270.4,28.6 268.3,30.2 264.8,30.2 Z" id="Shape" fill-rule="nonzero"></path>
          <polygon id="Path" points="336 4.8 336 25.6 335.9 25.6 322.1 1.5 314.5 5.2 314.5 36.2 321.3 36.2 321.3 11.4 321.4 11.4 335.5 36.2 342.8 36.2 342.8 1.5"></polygon>
          <polygon id="Path" points="379.3 1.5 368 3.5 356.7 15.6 356.7 1.5 349.4 5 349.4 36.2 356.7 36.2 356.7 24.4 360.1 21 370.8 36.2 380.1 36.2 365.1 15.7"></polygon>
          <path d="M52.5,1.5 L42.4,6.4 L31.8,36.2 L39.4,36.2 L41.8,29 L54.6,29 L56.8,36.2 L64.7,36.2 L52.5,1.5 Z M43.7,23 L48.1,9.3 L48.2,9.3 L52.5,23 L43.7,23 Z" id="Shape" fill-rule="nonzero"></path>
          <path d="M194.3,1.5 L184.2,6.4 L173.6,36.2 L181.2,36.2 L183.6,29 L196.4,29 L198.6,36.2 L206.5,36.2 L194.3,1.5 Z M185.6,23 L190,9.3 L190.1,9.3 L194.4,23 L185.6,23 Z" id="Shape" fill-rule="nonzero"></path>
          <polygon id="Path" points="88.6 1.5 64 1.5 60.4 7.6 60.4 7.6 70.9 7.6 70.9 36.2 78.2 36.2 78.2 7.6 85.1 7.6"></polygon>
          <polygon id="Path" points="91.5 5 91.5 36.2 98.8 36.2 98.8 1.5 98.8 1.5"></polygon>
          <path d="M120.2,0.6 C119.9,0.6 119.5,0.6 119.1,0.6 L107.1,6.5 C105,9.2 103.5,13.2 103.5,18.9 C103.5,35.2 115.6,37.2 120.2,37.2 C124.8,37.2 136.9,35.2 136.9,18.9 C136.9,2.5 124.8,0.6 120.2,0.6 Z M120.2,31 C116.3,31 110.8,28.6 110.8,18.9 C110.8,9.2 116.3,6.8 120.2,6.8 C124.1,6.8 129.6,9.2 129.6,18.9 C129.7,28.5 124.2,31 120.2,31 Z" id="Shape" fill-rule="nonzero"></path>
          <polygon id="Path" points="21.5 4.8 21.5 25.6 21.4 25.6 7.7 1.5 0 5.2 0 36.2 6.8 36.2 6.8 11.4 6.9 11.4 21.1 36.2 28.3 36.2 28.3 1.5"></polygon>
          <polygon id="Path" points="163.2 4.8 163.2 25.6 163.1 25.6 149.4 1.5 141.7 5.2 141.7 36.2 148.5 36.2 148.5 11.4 148.6 11.4 162.7 36.2 170 36.2 170 1.5"></polygon>
          <polygon id="Path" points="234.6 29.9 217.3 29.9 217.3 1.5 210.1 5 210.1 36.2 231 36.2"></polygon>
          <path d="M95.3,48.3 L85.2,53.2 L74.6,83 L82.3,83 L84.7,75.8 L97.5,75.8 L99.7,83 L107.6,83 L95.3,48.3 Z M86.5,69.9 L90.9,56.2 L91,56.2 L95.3,69.9 L86.5,69.9 Z" id="Shape" fill-rule="nonzero"></path>
          <path d="M214.7,48.3 L204.6,53.2 L194,83.1 L201.6,83.1 L204,75.9 L216.8,75.9 L219,83.1 L226.9,83.1 L214.7,48.3 Z M206,69.9 L210.4,56.2 L210.5,56.2 L214.8,69.9 L206,69.9 Z" id="Shape" fill-rule="nonzero"></path>
          <path d="M159.6,77.7 C153.5,77.7 151,72.1 151,65.9 C151,56.1 156.1,53.8 159.6,53.8 C165.6,53.8 166.7,57.7 167.3,59.8 L174.6,59.8 C174.2,54.7 170,47.5 159.6,47.5 C159.5,47.5 159.3,47.5 159.2,47.5 L147.2,53.3 C145,56.3 143.6,60.5 143.6,65.8 C143.6,77.8 150.2,84 159.5,84 C168.2,84 173.1,78.7 174.6,71.2 L167.3,71.2 C166.4,75.4 163.6,77.7 159.6,77.7 Z" id="Path"></path>
          <polygon id="Path" points="27.6 51.9 27.6 83.1 34.9 83.1 34.9 48.3 34.9 48.3"></polygon>
          <polygon id="Path" points="179.4 51.9 179.4 83.1 186.6 83.1 186.6 48.3 186.6 48.3"></polygon>
          <polygon id="Path" points="22.6 62.3 7.3 62.3 7.3 54.5 21.2 54.5 24.7 48.3 7.6 48.3 0 52 0 83.1 7.3 83.1 7.3 68.5 19 68.5"></polygon>
          <polygon id="Path" points="64.3 51.7 64.3 72.5 64.2 72.5 50.4 48.3 42.8 52.1 42.8 83.1 49.6 83.1 49.6 58.3 49.7 58.3 63.8 83.1 71.1 83.1 71.1 48.3"></polygon>
          <polygon id="Path" points="131.9 51.7 131.9 72.5 131.8 72.5 118.1 48.3 110.4 52.1 110.4 83.1 117.2 83.1 117.2 58.3 117.3 58.3 131.5 83.1 138.7 83.1 138.7 48.3"></polygon>
          <polygon id="Path" points="256.7 76.8 239.4 76.8 239.4 48.4 232.2 51.9 232.2 83.1 253 83.1"></polygon>
        </g>
      </g>
    </g>
  </g>
</svg>
