<?xml version="1.0" encoding="utf-8"?>
<!-- Generator: Adobe Illustrator 22.1.0, SVG Export Plug-In . SVG Version: 6.00 Build 0)  -->
<svg version="1.1" id="Layer_1" xmlns="http://www.w3.org/2000/svg" xmlns:xlink="http://www.w3.org/1999/xlink" x="0px" y="0px"
   viewBox="0 0 1949.1 345" style="enable-background:new 0 0 1949.1 345;" xml:space="preserve">
<style type="text/css">
  .st0{fill:#434343;}
  .st1{fill:#F15B25;}
</style>
<g>
  <path class="st0" d="M12.3,155c0-26,9.3-48.2,28-66.5c18.6-18.3,41.4-27.4,68.1-27.4c26.9,0,49.7,9.2,68.5,27.6
    c18.5,18.4,27.8,41,27.8,67.8c0,27-9.3,49.7-28,68c-18.8,18.1-41.8,27.2-69.1,27.2c-27,0-49.7-9.3-68-27.8
    C21.4,205.6,12.3,182.6,12.3,155z M54.9,155.7c0,18,4.8,32.3,14.4,42.8c9.9,10.6,22.9,15.9,39.1,15.9c16.3,0,29.3-5.2,39.1-15.7
    c9.7-10.5,14.6-24.5,14.6-42c0-17.5-4.9-31.5-14.6-42c-9.9-10.6-22.9-15.9-39.1-15.9c-15.9,0-28.8,5.3-38.7,15.9
    C59.8,125.2,54.9,138.9,54.9,155.7z"/>
  <path class="st0" d="M236.8,66.1h41.7v16.1c7.7-8,14.4-13.5,20.4-16.5c6-3.1,13.2-4.6,21.5-4.6c11,0,22.5,3.6,34.4,10.7L335.7,110
    c-7.9-5.7-15.6-8.5-23.1-8.5c-22.7,0-34.1,17.2-34.1,51.5v93.5h-41.7V66.1z"/>
  <path class="st0" d="M501.4,66.1h41.8v180.4h-41.8v-18.9c-17.2,16-35.6,24.1-55.4,24.1c-24.9,0-45.6-9-61.8-27
    c-16.2-18.4-24.3-41.4-24.3-68.9c0-27,8.1-49.6,24.3-67.6c16.2-18,36.4-27,60.7-27c21,0,39.8,8.6,56.5,25.9V66.1z M402.5,155.7
    c0,17.3,4.6,31.4,13.9,42.2c9.5,11,21.5,16.5,35.9,16.5c15.4,0,27.9-5.3,37.4-15.9c9.5-11,14.3-24.9,14.3-41.8
    c0-16.9-4.8-30.9-14.3-41.8c-9.5-10.7-21.8-16.1-37-16.1c-14.3,0-26.3,5.4-35.9,16.3C407.3,126,402.5,139.6,402.5,155.7z"/>
  <path class="st0" d="M579.7,66.1h41.8v16.7c14.6-14.4,31-21.7,49.3-21.7c21,0,37.3,6.6,49.1,19.8c10.1,11.2,15.2,29.6,15.2,55
    v110.5h-41.8V145.7c0-17.8-2.5-30.1-7.4-36.8c-4.8-6.9-13.6-10.4-26.3-10.4c-13.8,0-23.6,4.6-29.4,13.7c-5.7,9-8.5,24.8-8.5,47.2
    v87h-41.8V66.1z"/>
  <path class="st0" d="M949.2,242.2c0,8.5-0.3,16-0.8,22.5c-0.6,6.5-1.3,12.2-2.3,17.1c-3,13.6-8.8,25.2-17.4,35
    C912.4,335.6,890,345,861.5,345c-24.1,0-43.9-6.5-59.4-19.4c-16-13.3-25.3-31.8-27.8-55.4h41.8c1.6,8.9,4.3,15.7,8,20.6
    c8.6,11.2,21.2,16.9,37.8,16.9c30.5,0,45.7-18.7,45.7-56.1v-25.2c-16.5,16.9-35.6,25.4-57.2,25.4c-24.6,0-44.7-8.9-60.4-26.7
    c-15.8-18-23.7-40.6-23.7-67.6c0-26.3,7.3-48.6,22-67c15.8-19.5,36.7-29.3,62.6-29.3c22.7,0,41.6,8.5,56.7,25.4V66.1h41.7V242.2z
     M909.2,156.7c0-17.5-4.7-31.5-14.1-42c-9.5-10.7-21.7-16.1-36.5-16.1c-15.8,0-28.3,5.9-37.4,17.6c-8.3,10.5-12.4,24.1-12.4,40.7
    c0,16.4,4.1,29.9,12.4,40.4c9,11.5,21.5,17.2,37.4,17.2s28.5-5.8,37.8-17.4C905,186.5,909.2,173.1,909.2,156.7z"/>
  <path class="st0" d="M1150.1,166.1h-129.2c1.1,14.8,5.9,26.6,14.4,35.4c8.5,8.6,19.4,13,32.8,13c10.4,0,18.9-2.5,25.7-7.4
    c6.7-4.9,14.3-14.1,22.8-27.4l35.2,19.6c-5.4,9.3-11.2,17.2-17.2,23.8c-6,6.6-12.5,12-19.4,16.3c-6.9,4.3-14.4,7.4-22.4,9.4
    c-8,2-16.7,3-26.1,3c-26.9,0-48.5-8.6-64.8-25.9c-16.3-17.4-24.4-40.5-24.4-69.3c0-28.5,7.9-51.6,23.7-69.3
    c15.9-17.4,37-26.1,63.3-26.1c26.5,0,47.5,8.5,63,25.4c15.3,16.8,23,40.1,23,69.8L1150.1,166.1z M1107.3,132
    c-5.8-22.2-19.8-33.3-42-33.3c-5.1,0-9.8,0.8-14.3,2.3c-4.4,1.5-8.5,3.8-12.1,6.7c-3.6,2.9-6.8,6.4-9.4,10.5
    c-2.6,4.1-4.6,8.7-5.9,13.9H1107.3z"/>
  <path class="st0" d="M1419.1,242.2c0,8.5-0.3,16-0.8,22.5c-0.6,6.5-1.3,12.2-2.3,17.1c-3,13.6-8.8,25.2-17.4,35
    c-16.3,18.8-38.7,28.1-67.2,28.1c-24.1,0-43.9-6.5-59.4-19.4c-16-13.3-25.3-31.8-27.8-55.4h41.8c1.6,8.9,4.3,15.7,8,20.6
    c8.6,11.2,21.2,16.9,37.8,16.9c30.5,0,45.7-18.7,45.7-56.1v-25.2c-16.5,16.9-35.6,25.4-57.2,25.4c-24.6,0-44.7-8.9-60.4-26.7
    c-15.8-18-23.7-40.6-23.7-67.6c0-26.3,7.3-48.6,22-67c15.8-19.5,36.7-29.3,62.6-29.3c22.7,0,41.6,8.5,56.7,25.4V66.1h41.7V242.2z
     M1379.1,156.7c0-17.5-4.7-31.5-14.1-42c-9.5-10.7-21.7-16.1-36.5-16.1c-15.8,0-28.3,5.9-37.4,17.6c-8.3,10.5-12.4,24.1-12.4,40.7
    c0,16.4,4.1,29.9,12.4,40.4c9,11.5,21.5,17.2,37.4,17.2s28.5-5.8,37.8-17.4C1374.8,186.5,1379.1,173.1,1379.1,156.7z"/>
  <path class="st0" d="M1589.1,66.1h41.8v180.4h-41.8v-18.9c-17.2,16-35.6,24.1-55.4,24.1c-24.9,0-45.6-9-61.8-27
    c-16.2-18.4-24.3-41.4-24.3-68.9c0-27,8.1-49.6,24.3-67.6c16.2-18,36.4-27,60.7-27c21,0,39.8,8.6,56.5,25.9V66.1z M1490.2,155.7
    c0,17.3,4.6,31.4,13.9,42.2c9.5,11,21.5,16.5,35.9,16.5c15.4,0,27.9-5.3,37.4-15.9c9.5-11,14.3-24.9,14.3-41.8
    c0-16.9-4.8-30.9-14.3-41.8c-9.5-10.7-21.8-16.1-37-16.1c-14.3,0-26.3,5.4-35.9,16.3C1495,126,1490.2,139.6,1490.2,155.7z"/>
  <path class="st0" d="M1719.8,105v141.5h-41.7V105h-17.8V66.1h17.8V0h41.7v66.1h32.4V105H1719.8z"/>
  <path class="st0" d="M1947.4,166.1h-129.2c1.1,14.8,5.9,26.6,14.4,35.4c8.5,8.6,19.4,13,32.8,13c10.4,0,18.9-2.5,25.7-7.4
    c6.7-4.9,14.3-14.1,22.8-27.4l35.2,19.6c-5.4,9.3-11.2,17.2-17.2,23.8c-6,6.6-12.5,12-19.4,16.3c-6.9,4.3-14.4,7.4-22.4,9.4
    c-8,2-16.7,3-26.1,3c-26.9,0-48.5-8.6-64.8-25.9c-16.3-17.4-24.4-40.5-24.4-69.3c0-28.5,7.9-51.6,23.7-69.3
    c15.9-17.4,37-26.1,63.3-26.1c26.5,0,47.5,8.5,63,25.4c15.3,16.8,23,40.1,23,69.8L1947.4,166.1z M1904.7,132
    c-5.8-22.2-19.8-33.3-42-33.3c-5.1,0-9.8,0.8-14.3,2.3c-4.4,1.5-8.5,3.8-12.1,6.7c-3.6,2.9-6.8,6.4-9.4,10.5
    c-2.6,4.1-4.6,8.7-5.9,13.9H1904.7z"/>
  <rect y="285.1" class="st1" width="216.5" height="45.3"/>
</g>
</svg>
