<?xml version="1.0" encoding="utf-8"?>
<!DOCTYPE svg PUBLIC "-//W3C//DTD SVG 1.1//EN" "http://www.w3.org/Graphics/SVG/1.1/DTD/svg11.dtd">
<svg version="1.1" id="Layer_1" xmlns="http://www.w3.org/2000/svg" xmlns:xlink="http://www.w3.org/1999/xlink" x="0px" y="0px"
	 width="258.25px" height="38.75px" viewBox="0 0 258.25 38.75" enable-background="new 0 0 258.25 38.75" xml:space="preserve">
<g>
	<g>
		<g>
			<path fill="#11335D" d="M4.494,17.703c-0.083-1.55,0.113-3.027,0.589-4.433C5.558,11.865,6.25,10.615,7.16,9.52
				c0.909-1.095,2.02-1.984,3.333-2.666c1.312-0.682,2.753-1.064,4.324-1.146c1.839-0.104,3.523,0.057,5.053,0.48
				c1.529,0.424,2.847,1.064,3.952,1.922s1.984,1.911,2.635,3.162c0.651,1.25,1.018,2.661,1.101,4.231
				c0.103,1.633-0.042,3.172-0.434,4.618c-0.393,1.447-0.992,2.733-1.798,3.86c-0.806,1.126-1.813,2.057-3.022,2.79
				s-2.589,1.203-4.139,1.41c-0.476,0.062-0.889,0.108-1.24,0.14c-0.352,0.03-0.765,0.046-1.24,0.046l3.472,0.435
				c0.847,0.103,1.88,0.248,3.1,0.434c1.219,0.187,2.527,0.388,3.922,0.604s2.826,0.429,4.293,0.636
				c1.467,0.206,2.856,0.393,4.169,0.558c1.312,0.165,2.496,0.295,3.549,0.388c1.054,0.093,1.87,0.119,2.449,0.078
				c0.723-0.042,1.42-0.109,2.092-0.202c0.671-0.093,1.302-0.232,1.891-0.418c0.589-0.187,1.126-0.424,1.612-0.713
				c0.485-0.29,0.904-0.651,1.256-1.086l0.372-0.465l0.558,0.279c-0.186,0.33-0.336,0.6-0.449,0.806
				c-0.114,0.207-0.223,0.455-0.326,0.744c-0.104,0.269-0.202,0.521-0.294,0.76c-0.093,0.237-0.16,0.47-0.202,0.697
				c-0.124,0.063-0.3,0.196-0.527,0.403c-0.228,0.206-0.574,0.429-1.039,0.666s-1.09,0.46-1.875,0.667
				c-0.786,0.206-1.798,0.341-3.038,0.403c-0.992,0.041-2.072,0.004-3.239-0.109c-1.168-0.113-2.372-0.269-3.612-0.465
				c-1.24-0.196-2.495-0.413-3.766-0.65c-1.271-0.238-2.506-0.45-3.705-0.636c-2.377-0.393-4.49-0.76-6.34-1.101
				s-3.518-0.532-5.006-0.573c-0.393,0-0.801,0.021-1.225,0.062c-0.424,0.041-0.832,0.113-1.224,0.217
				c-0.393,0.104-0.755,0.237-1.085,0.403c-0.331,0.165-0.61,0.361-0.837,0.589l-1.085,1.085L9.082,32.49
				c0.165-0.228,0.356-0.48,0.573-0.759c0.217-0.279,0.408-0.563,0.574-0.853c0.124-0.248,0.258-0.476,0.403-0.683
				s0.279-0.444,0.403-0.713c0.227-0.104,0.423-0.186,0.589-0.248c0.165-0.062,0.403-0.155,0.713-0.278
				c0.413-0.166,0.878-0.295,1.395-0.388c0.517-0.094,0.95-0.15,1.302-0.171c-1.364-0.083-2.666-0.403-3.906-0.961
				c-1.24-0.558-2.335-1.302-3.286-2.232c-0.951-0.93-1.726-2.03-2.325-3.301C4.917,20.633,4.576,19.233,4.494,17.703z
				 M24.365,15.503c-0.062-1.137-0.3-2.237-0.713-3.302c-0.414-1.064-1.013-2-1.798-2.806c-0.786-0.806-1.757-1.437-2.914-1.891
				c-1.158-0.455-2.521-0.62-4.092-0.496c-1.426,0.104-2.609,0.491-3.55,1.162c-0.94,0.672-1.689,1.509-2.248,2.511
				c-0.558,1.003-0.935,2.099-1.131,3.286c-0.197,1.188-0.253,2.352-0.17,3.487c0.103,1.344,0.397,2.646,0.883,3.906
				c0.485,1.261,1.152,2.356,2,3.286c0.847,0.93,1.87,1.628,3.069,2.093c1.198,0.465,2.542,0.573,4.03,0.325
				c1.281-0.228,2.361-0.687,3.24-1.379c0.878-0.692,1.585-1.556,2.124-2.589c0.537-1.033,0.909-2.201,1.116-3.503
				C24.417,18.293,24.468,16.929,24.365,15.503z"/>
			<path fill="#11335D" d="M43.398,24.523c0,0.414,0.01,0.775,0.031,1.085c0.021,0.311,0.062,0.548,0.124,0.713
				c0.124,0.248,0.454,0.394,0.992,0.435l1.271,0.093v0.93c-0.393-0.021-0.806-0.041-1.24-0.062
				c-0.434-0.021-0.868-0.031-1.302-0.031c-0.455,0-0.899,0.01-1.333,0.031c-0.434,0.021-0.858,0.041-1.271,0.062
				c0.041-0.434,0.072-0.873,0.093-1.317c0.021-0.444,0.031-0.955,0.031-1.534l-2.077,1.922c-0.434,0.393-0.936,0.692-1.503,0.898
				c-0.569,0.207-1.225,0.311-1.969,0.311c-1.096,0-1.938-0.16-2.526-0.48s-1.023-0.733-1.302-1.24
				c-0.279-0.506-0.439-1.074-0.48-1.705c-0.042-0.63-0.062-1.255-0.062-1.875v-5.208c0-0.496-0.015-0.909-0.046-1.24
				c-0.031-0.33-0.088-0.558-0.17-0.682c-0.166-0.228-0.548-0.342-1.147-0.342h-1.147v-0.898c0.93-0.101,1.824-0.271,2.681-0.514
				s1.576-0.484,2.155-0.727l0.279,0.124v9.146c0,0.619,0.042,1.162,0.124,1.627s0.248,0.853,0.496,1.162
				c0.248,0.311,0.594,0.548,1.039,0.714c0.444,0.165,1.018,0.248,1.72,0.248c0.496,0,0.981-0.114,1.457-0.342
				c0.476-0.227,0.899-0.521,1.271-0.883c0.372-0.361,0.667-0.749,0.884-1.163c0.217-0.413,0.325-0.806,0.325-1.178v-5.053
				c0-0.496-0.015-0.909-0.046-1.24c-0.031-0.33-0.088-0.558-0.17-0.682c-0.166-0.228-0.548-0.342-1.147-0.342h-1.147v-0.898
				c0.93-0.101,1.824-0.271,2.682-0.514c0.857-0.242,1.576-0.484,2.154-0.727l0.279,0.124V24.523z"/>
			<path fill="#11335D" d="M53.288,13.146c0.847,0,1.627,0.129,2.34,0.388s1.333,0.636,1.86,1.132
				c0.527,0.495,0.94,1.095,1.24,1.798c0.299,0.702,0.45,1.487,0.45,2.355c0,0.228,0,0.445,0,0.651c0,0.207-0.021,0.424-0.062,0.65
				c-0.93,0.166-1.866,0.279-2.806,0.342c-0.94,0.062-1.875,0.093-2.806,0.093h-4.526c0,1.818,0.459,3.291,1.379,4.417
				c0.919,1.127,2.33,1.689,4.231,1.689c0.744,0,1.421-0.154,2.031-0.465c0.609-0.31,1.214-0.64,1.813-0.992l0.403,0.311
				l-0.62,1.054c-0.062,0.083-0.253,0.223-0.573,0.419c-0.321,0.196-0.718,0.393-1.193,0.589c-0.476,0.196-0.992,0.366-1.55,0.512
				c-0.558,0.144-1.105,0.217-1.643,0.217c-1.178,0-2.211-0.176-3.1-0.527c-0.889-0.351-1.633-0.847-2.232-1.487
				s-1.054-1.396-1.364-2.264s-0.465-1.829-0.465-2.883c0-1.509,0.191-2.732,0.573-3.674c0.382-0.939,0.935-1.689,1.659-2.247
				c0.289-0.228,0.594-0.449,0.915-0.667c0.32-0.217,0.656-0.407,1.007-0.573c0.537-0.248,1.043-0.449,1.519-0.604
				C52.244,13.224,52.75,13.146,53.288,13.146z M53.132,14.17c-0.6,0-1.157,0.108-1.674,0.325s-0.961,0.542-1.333,0.977
				c-0.372,0.434-0.656,0.972-0.853,1.612c-0.197,0.641-0.274,1.385-0.232,2.231c1.281,0.145,2.552,0.212,3.813,0.201
				c1.26-0.01,2.449-0.046,3.565-0.108c0-0.723-0.067-1.399-0.201-2.03c-0.135-0.63-0.336-1.183-0.604-1.658
				c-0.269-0.476-0.61-0.853-1.023-1.132S53.69,14.17,53.132,14.17z"/>
			<path fill="#11335D" d="M66.927,13.146c0.847,0,1.627,0.129,2.34,0.388s1.333,0.636,1.86,1.132
				c0.527,0.495,0.94,1.095,1.24,1.798c0.299,0.702,0.45,1.487,0.45,2.355c0,0.228,0,0.445,0,0.651c0,0.207-0.021,0.424-0.062,0.65
				c-0.93,0.166-1.866,0.279-2.806,0.342c-0.94,0.062-1.875,0.093-2.806,0.093h-4.526c0,1.818,0.459,3.291,1.379,4.417
				c0.919,1.127,2.33,1.689,4.231,1.689c0.744,0,1.421-0.154,2.031-0.465c0.609-0.31,1.214-0.64,1.813-0.992l0.403,0.311
				l-0.62,1.054c-0.062,0.083-0.253,0.223-0.573,0.419c-0.321,0.196-0.718,0.393-1.193,0.589c-0.476,0.196-0.992,0.366-1.55,0.512
				c-0.558,0.144-1.105,0.217-1.643,0.217c-1.178,0-2.211-0.176-3.1-0.527c-0.889-0.351-1.633-0.847-2.232-1.487
				s-1.054-1.396-1.364-2.264s-0.465-1.829-0.465-2.883c0-1.509,0.191-2.732,0.573-3.674c0.382-0.939,0.935-1.689,1.659-2.247
				c0.289-0.228,0.594-0.449,0.915-0.667c0.32-0.217,0.656-0.407,1.007-0.573c0.537-0.248,1.043-0.449,1.519-0.604
				C65.883,13.224,66.39,13.146,66.927,13.146z M66.772,14.17c-0.6,0-1.157,0.108-1.674,0.325s-0.961,0.542-1.333,0.977
				c-0.372,0.434-0.656,0.972-0.853,1.612c-0.197,0.641-0.274,1.385-0.232,2.231c1.281,0.145,2.552,0.212,3.813,0.201
				c1.26-0.01,2.449-0.046,3.565-0.108c0-0.723-0.067-1.399-0.201-2.03c-0.135-0.63-0.336-1.183-0.604-1.658
				c-0.269-0.476-0.61-0.853-1.023-1.132S67.33,14.17,66.772,14.17z"/>
			<path fill="#11335D" d="M77.901,24.523c0,0.414,0.01,0.775,0.031,1.085c0.021,0.311,0.062,0.548,0.124,0.713
				c0.124,0.248,0.455,0.394,0.992,0.435l1.395,0.093v0.93c-0.538-0.021-1.122-0.041-1.751-0.062
				c-0.631-0.021-1.328-0.031-2.093-0.031s-1.462,0.01-2.092,0.031c-0.631,0.021-1.214,0.041-1.751,0.062v-0.93l1.395-0.093
				c0.537-0.041,0.868-0.187,0.992-0.435c0.062-0.165,0.103-0.402,0.124-0.713c0.021-0.31,0.031-0.671,0.031-1.085v-6.975
				c0-0.496-0.016-0.909-0.046-1.24c-0.031-0.33-0.088-0.558-0.17-0.682c-0.166-0.228-0.548-0.342-1.147-0.342h-1.147v-0.867
				c0.93-0.104,1.824-0.279,2.682-0.527c0.857-0.248,1.576-0.496,2.155-0.744l0.279,0.124v2.635h0.062l2.294-1.983
				c0.351-0.289,0.702-0.491,1.054-0.604c0.351-0.113,0.837-0.171,1.457-0.171c1.818,0,3.125,0.476,3.921,1.426
				c0.795,0.951,1.193,2.274,1.193,3.969v5.982c0,0.414,0.01,0.775,0.031,1.085c0.02,0.311,0.062,0.548,0.124,0.713
				c0.124,0.248,0.454,0.394,0.992,0.435l1.271,0.093v0.93c-0.393-0.021-0.806-0.041-1.24-0.062
				c-0.434-0.021-0.868-0.031-1.302-0.031s-0.868,0.01-1.302,0.031c-0.434,0.021-0.827,0.041-1.178,0.062v-8.804
				c0-1.302-0.331-2.283-0.992-2.945c-0.662-0.661-1.519-0.992-2.573-0.992c-0.476,0-0.941,0.094-1.395,0.279
				c-0.455,0.187-0.863,0.419-1.225,0.697c-0.362,0.279-0.651,0.595-0.868,0.946c-0.217,0.352-0.326,0.682-0.326,0.991V24.523z"/>
			<path fill="#11335D" d="M92.78,15.657c-0.166,0.496-0.372,0.998-0.62,1.504c-0.248,0.507-0.486,0.966-0.713,1.38l-1.271,1.054
				l-0.372-0.217c0.104-0.29,0.196-0.559,0.279-0.807c0.082-0.248,0.16-0.49,0.232-0.729c0.072-0.237,0.14-0.48,0.202-0.729
				s0.124-0.526,0.186-0.837c0.124-0.537,0.212-1.074,0.264-1.611c0.051-0.538,0.088-0.981,0.108-1.333
				c0.228-0.063,0.423-0.129,0.589-0.202c0.165-0.072,0.361-0.159,0.589-0.264c0.227-0.103,0.418-0.206,0.573-0.31
				c0.155-0.104,0.336-0.217,0.542-0.341l0.31,0.248c-0.124,0.641-0.263,1.209-0.418,1.705
				C93.106,14.666,92.945,15.161,92.78,15.657z"/>
			<path fill="#11335D" d="M94.888,23.253v1.271c0,0.476,0.124,0.884,0.372,1.225c0.248,0.341,0.568,0.615,0.961,0.821
				c0.392,0.207,0.821,0.356,1.286,0.45c0.465,0.093,0.925,0.139,1.38,0.139c0.496,0,0.961-0.066,1.395-0.201
				c0.434-0.134,0.816-0.325,1.147-0.573c0.33-0.248,0.594-0.548,0.791-0.899c0.196-0.351,0.294-0.733,0.294-1.146
				c0-0.496-0.129-0.931-0.388-1.303c-0.259-0.372-0.625-0.619-1.101-0.743c-0.682-0.166-1.426-0.342-2.232-0.527
				c-0.806-0.187-1.581-0.424-2.325-0.713c-0.744-0.289-1.37-0.688-1.875-1.193c-0.507-0.507-0.76-1.235-0.76-2.186
				c0-0.848,0.165-1.555,0.496-2.124c0.33-0.568,0.77-1.033,1.317-1.395c0.547-0.361,1.173-0.62,1.875-0.775
				s1.416-0.232,2.139-0.232c0.723,0,1.42,0.072,2.092,0.217c0.671,0.146,1.307,0.331,1.907,0.559
				c-0.042,0.558-0.073,1.126-0.093,1.705c-0.021,0.578-0.042,1.178-0.062,1.798h-0.868v-0.713c0-0.413-0.104-0.775-0.31-1.085
				c-0.207-0.311-0.48-0.574-0.822-0.791c-0.341-0.217-0.729-0.382-1.162-0.496c-0.434-0.113-0.868-0.17-1.302-0.17
				c-0.662,0-1.188,0.082-1.581,0.248c-0.393,0.165-0.697,0.371-0.915,0.619c-0.217,0.248-0.362,0.518-0.434,0.807
				s-0.108,0.568-0.108,0.837c0,0.661,0.269,1.184,0.806,1.565c0.537,0.383,1.395,0.677,2.573,0.884
				c0.93,0.145,1.731,0.32,2.403,0.526c0.671,0.207,1.234,0.465,1.689,0.775c0.454,0.31,0.791,0.682,1.007,1.116
				c0.217,0.434,0.326,0.95,0.326,1.55c0,0.848-0.197,1.597-0.589,2.247c-0.393,0.651-0.91,1.193-1.55,1.628
				c-0.641,0.434-1.369,0.765-2.186,0.992c-0.816,0.227-1.658,0.341-2.526,0.341c-0.744,0-1.462-0.058-2.154-0.171
				c-0.693-0.113-1.421-0.305-2.186-0.573c0.165-0.682,0.263-1.39,0.294-2.123c0.031-0.733,0.046-1.462,0.046-2.186H94.888z"/>
		</g>
		<g>
			<path fill="#11335D" d="M133.021,25.021l-0.59,1.408c-1.181,0.595-2.336,1.026-3.466,1.294c-1.13,0.267-2.361,0.401-3.693,0.401
				c-1.564,0-3.018-0.197-4.359-0.591c-1.342-0.394-2.515-0.957-3.519-1.689c-1.004-0.732-1.824-1.553-2.46-2.461
				c-0.636-0.909-1.12-1.896-1.453-2.962c-0.333-1.064-0.5-2.233-0.5-3.506c0-3.222,1.123-5.89,3.368-8.006
				c2.246-2.115,5.311-3.173,9.196-3.173c0.918,0,1.769,0.053,2.55,0.159c0.782,0.105,1.736,0.308,2.861,0.605
				c1.125,0.298,1.813,0.472,2.066,0.521c-0.222,0.556-0.389,1.101-0.5,1.635c-0.162,0.858-0.272,1.853-0.333,2.982h-0.954
				l-0.015-1.786c-0.101-0.989-0.648-1.726-1.643-2.21c-0.994-0.484-2.45-0.727-4.367-0.727c-1.433,0.021-2.649,0.204-3.648,0.553
				c-0.999,0.348-1.879,0.898-2.642,1.649c-0.762,0.752-1.385,1.706-1.869,2.861s-0.732,2.605-0.742,4.352
				c0,3.058,0.933,5.518,2.8,7.379c1.867,1.862,4.334,2.793,7.402,2.793c1.382,0,2.664-0.19,3.845-0.57
				c0.807-0.261,1.609-0.671,2.407-1.231L133.021,25.021z"/>
		</g>
		<g>
			<path fill="#11335D" d="M133.64,20.94c0-2.19,0.696-3.977,2.087-5.359c1.392-1.384,3.176-2.075,5.354-2.075
				c2.051,0,3.721,0.646,5.01,1.936c1.289,1.291,1.934,2.957,1.934,5c0,1.428-0.332,2.732-0.996,3.915s-1.602,2.109-2.813,2.779
				c-1.211,0.669-2.544,1.004-3.999,1.004c-1.133,0-2.092-0.19-2.878-0.571c-0.786-0.382-1.423-0.86-1.912-1.438
				s-0.859-1.168-1.113-1.774C133.864,23.291,133.64,22.152,133.64,20.94z M136.408,19.854c0,1.203,0.2,2.425,0.601,3.667
				c0.4,1.241,0.979,2.148,1.736,2.721c0.757,0.571,1.58,0.857,2.468,0.857c1.133,0,2.08-0.45,2.842-1.35s1.143-2.282,1.143-4.15
				c0-1.554-0.227-2.896-0.682-4.025c-0.453-1.129-1.032-1.926-1.735-2.391c-0.703-0.464-1.479-0.696-2.329-0.696
				c-1.201,0-2.175,0.436-2.922,1.306S136.408,18.017,136.408,19.854z"/>
			<path fill="#11335D" d="M148.466,27.686v-0.835l1.4-0.015c0.206-0.01,0.366-0.046,0.479-0.109
				c0.112-0.063,0.198-0.145,0.258-0.242c0.107-0.195,0.177-0.542,0.206-1.04c0-0.127,0.024-1.528,0.073-4.204v-1.743
				c0-0.781-0.015-1.621-0.044-2.52c-0.029-0.576-0.075-0.918-0.14-1.025c-0.063-0.107-0.173-0.188-0.329-0.241
				s-0.791-0.076-1.904-0.066V14.81c1.973-0.273,3.413-0.63,4.321-1.069c0.195-0.098,0.327-0.146,0.396-0.146
				s0.122,0.024,0.161,0.073s0.059,0.122,0.059,0.22c0,0.068-0.005,0.146-0.015,0.234c-0.039,0.469-0.068,1.167-0.088,2.095
				l1.915-1.758c0.242-0.215,0.394-0.337,0.452-0.366c0.224-0.127,0.545-0.244,0.964-0.352c0.418-0.107,0.855-0.161,1.313-0.161
				c0.935,0,1.767,0.229,2.496,0.688c0.73,0.459,1.289,1.138,1.679,2.036l1.618-1.494c0.361-0.332,0.611-0.537,0.748-0.615
				c0.254-0.146,0.615-0.283,1.085-0.41s0.933-0.19,1.394-0.19c1.113,0,2.047,0.296,2.801,0.887
				c0.752,0.591,1.236,1.262,1.451,2.014c0.137,0.498,0.205,1.572,0.205,3.223v1.523l0.037,2.036
				c0.023,1.182,0.036,1.875,0.036,2.08c0.02,0.488,0.079,0.845,0.177,1.069c0.039,0.088,0.101,0.164,0.184,0.227
				c0.084,0.064,0.205,0.115,0.361,0.154c0.06,0.01,0.6,0.024,1.622,0.044v0.835c-1.228-0.068-2.064-0.103-2.513-0.103
				c-0.428,0-1.29,0.034-2.585,0.103l0.121-4.043l0.04-1.582v-1.26c0-1.641-0.084-2.762-0.25-3.361
				c-0.166-0.602-0.516-1.087-1.05-1.458s-1.153-0.557-1.858-0.557c-0.813,0-1.547,0.234-2.203,0.703
				c-0.482,0.361-0.801,0.786-0.955,1.274s-0.231,1.44-0.231,2.856v0.981l0.036,2.036c0.017,1.182,0.029,1.875,0.037,2.08
				c0.02,0.488,0.078,0.845,0.177,1.069c0.039,0.088,0.099,0.164,0.177,0.227c0.078,0.064,0.197,0.115,0.354,0.154
				c0.069,0.01,0.615,0.024,1.637,0.044v0.835c-1.436-0.068-2.588-0.103-3.457-0.103c-0.703,0-1.982,0.034-3.838,0.103v-0.835
				l1.4-0.015c0.216-0.01,0.381-0.046,0.494-0.109c0.112-0.063,0.199-0.145,0.258-0.242c0.107-0.195,0.172-0.542,0.191-1.04
				c0.008-0.127,0.033-1.528,0.073-4.204v-1.143c0-1.26-0.098-2.18-0.292-2.762c-0.195-0.58-0.535-1.044-1.022-1.391
				c-0.486-0.347-1.07-0.521-1.751-0.521c-0.585,0-1.137,0.124-1.658,0.374c-0.521,0.248-0.923,0.559-1.207,0.93
				s-0.456,0.767-0.515,1.187c-0.098,0.674-0.146,1.484-0.146,2.432v0.894c0.049,2.539,0.073,3.911,0.073,4.116
				c0.02,0.488,0.078,0.845,0.177,1.069c0.039,0.088,0.099,0.164,0.177,0.227c0.078,0.064,0.201,0.115,0.369,0.154
				c0.059,0.01,0.6,0.024,1.621,0.044v0.835c-1.348-0.068-2.495-0.103-3.442-0.103C151.435,27.583,150.165,27.617,148.466,27.686z"
				/>
			<path fill="#11335D" d="M173.692,15.615V14.78c0.176,0,0.547-0.041,1.113-0.124s1.196-0.225,1.89-0.426
				c0.693-0.199,1.216-0.393,1.567-0.578c0.107-0.059,0.195-0.088,0.264-0.088s0.124,0.024,0.169,0.073
				c0.043,0.049,0.065,0.132,0.065,0.249c0,0.049-0.005,0.166-0.015,0.352c-0.02,0.283-0.029,0.542-0.029,0.776v1.553
				c1.65-1.533,2.681-2.397,3.091-2.593c0.537-0.264,1.338-0.396,2.402-0.396c1.24,0,2.31,0.281,3.208,0.843
				s1.551,1.289,1.955,2.182c0.406,0.895,0.608,1.849,0.608,2.864c0,0.615-0.071,1.196-0.212,1.743
				c-0.143,0.547-0.322,1.063-0.543,1.545c-0.219,0.484-0.463,0.929-0.732,1.334c-0.268,0.405-0.52,0.71-0.754,0.915
				c-0.137,0.127-0.49,0.42-1.063,0.879c-0.57,0.459-1.182,0.856-1.83,1.194c-0.65,0.336-1.102,0.544-1.355,0.622
				c-0.557,0.176-1.147,0.264-1.772,0.264c-0.488,0-0.964-0.059-1.429-0.176c-0.463-0.117-0.988-0.317-1.574-0.601v2.329
				c0.041,2.471,0.064,3.833,0.073,4.087c0.01,0.479,0.069,0.83,0.177,1.055c0.039,0.107,0.101,0.192,0.184,0.256
				c0.084,0.063,0.205,0.11,0.361,0.14c0.089,0.02,0.674,0.039,1.754,0.059v0.835c-1.221-0.049-2.837-0.073-4.849-0.073
				c-1.113,0-1.968,0.024-2.563,0.073v-0.835l1.4-0.015c0.207-0.01,0.365-0.047,0.479-0.109c0.113-0.064,0.199-0.145,0.258-0.242
				c0.108-0.195,0.178-0.543,0.207-1.041c0.008-0.127,0.033-1.524,0.073-4.192v-5.204c0-1.691-0.02-3.426-0.059-5.204
				c-0.039-1.779-0.081-2.749-0.124-2.91c-0.045-0.161-0.115-0.283-0.213-0.366s-0.225-0.14-0.381-0.169L173.692,15.615z
				 M178.717,24.668c0.518,0.527,1.108,0.942,1.772,1.245s1.362,0.454,2.095,0.454c0.889,0,1.697-0.222,2.424-0.666
				c0.729-0.444,1.305-1.136,1.729-2.073c0.426-0.938,0.638-1.958,0.638-3.062c0-1.064-0.202-1.989-0.608-2.775
				c-0.404-0.786-0.979-1.377-1.721-1.773c-0.742-0.395-1.489-0.593-2.241-0.593c-0.557,0-1.106,0.11-1.647,0.329
				c-0.543,0.221-1.033,0.54-1.473,0.96s-0.732,0.82-0.879,1.201c-0.059,0.186-0.088,0.542-0.088,1.069V24.668z"/>
			<path fill="#11335D" d="M207.326,26.851v0.835c-1.279-0.068-2.246-0.103-2.9-0.103c-0.723,0-1.455,0.034-2.197,0.103
				c0.059-0.791,0.103-1.68,0.132-2.666c-0.586,0.469-1.284,1.108-2.095,1.919c-0.186,0.186-0.366,0.322-0.541,0.41
				c-0.42,0.234-0.84,0.403-1.26,0.505c-0.419,0.104-0.922,0.154-1.507,0.154c-0.79,0-1.452-0.107-1.983-0.322
				s-0.988-0.542-1.369-0.981c-0.285-0.322-0.503-0.739-0.655-1.253c-0.152-0.512-0.229-1.13-0.229-1.853
				c0-0.342,0.013-0.664,0.036-0.967c0.025-0.303,0.037-0.601,0.037-0.894v-2.505c0-0.254-0.015-0.894-0.044-1.919
				c-0.02-0.645-0.063-1.064-0.132-1.26c-0.039-0.098-0.103-0.176-0.19-0.234c-0.146-0.098-0.405-0.146-0.776-0.146
				c-0.537,0-0.962-0.005-1.274-0.015v-0.835c2.1-0.234,3.623-0.61,4.57-1.128c0.156-0.088,0.278-0.132,0.366-0.132
				c0.068,0,0.125,0.024,0.168,0.073c0.045,0.049,0.066,0.122,0.066,0.22c0,0.078-0.005,0.176-0.015,0.293
				c-0.039,0.313-0.073,0.913-0.103,1.802c-0.059,1.631-0.088,2.725-0.088,3.281v2.856c0,1.191,0.08,2.029,0.242,2.512
				c0.16,0.484,0.473,0.87,0.937,1.158s1.037,0.432,1.72,0.432c0.469,0,0.936-0.081,1.398-0.242
				c0.464-0.162,0.881-0.395,1.252-0.698c0.273-0.224,0.553-0.526,0.837-0.907c0.216-0.282,0.356-0.5,0.426-0.65
				c0.068-0.151,0.112-0.373,0.132-0.666c0.049-0.859,0.073-1.714,0.073-2.563v-1.23c0-0.254-0.015-0.894-0.044-1.919
				c-0.02-0.645-0.063-1.064-0.132-1.26c-0.039-0.098-0.103-0.176-0.19-0.234c-0.146-0.098-0.405-0.146-0.776-0.146
				c-0.537,0-0.962-0.005-1.274-0.015v-0.835c2.094-0.234,3.613-0.61,4.557-1.128c0.156-0.088,0.278-0.132,0.365-0.132
				c0.068,0,0.125,0.024,0.168,0.073c0.045,0.049,0.066,0.122,0.066,0.22c0,0.078-0.004,0.176-0.014,0.293
				c-0.027,0.313-0.059,0.933-0.094,1.86c-0.055,1.592-0.083,2.666-0.083,3.223v2.007l0.029,2.036
				c0.036,1.182,0.062,1.875,0.073,2.08c0.01,0.488,0.063,0.845,0.16,1.069c0.049,0.088,0.111,0.164,0.189,0.227
				c0.077,0.064,0.193,0.115,0.35,0.154C205.769,26.816,206.307,26.831,207.326,26.851z"/>
			<path fill="#11335D" d="M207.562,16.201v-0.615c0.939-0.371,1.687-0.703,2.241-0.996c0-2.324,0-3.809,0-4.453
				c1.016-0.352,1.841-0.728,2.476-1.128l0.352,0.293c-0.107,0.811-0.225,2.598-0.352,5.361c0.781,0.01,1.25,0.015,1.406,0.015
				c0.088,0,0.591-0.01,1.509-0.029c0.508-0.01,0.889-0.029,1.143-0.059l0.103,0.103l-0.308,1.362
				c-0.615-0.01-1.182-0.015-1.699-0.015s-1.235,0.005-2.153,0.015l-0.073,5.962c-0.029,1.455-0.02,2.324,0.029,2.607
				s0.141,0.53,0.277,0.739c0.137,0.211,0.313,0.379,0.533,0.506c0.219,0.127,0.59,0.225,1.115,0.293
				c0.399,0,0.723-0.017,0.971-0.051c0.249-0.034,0.563-0.12,0.941-0.257l0.176,0.571c-0.459,0.361-0.902,0.737-1.332,1.128
				c-0.37,0.137-0.717,0.228-1.038,0.271c-0.321,0.045-0.692,0.066-1.112,0.066c-0.517,0-0.929-0.059-1.236-0.176
				c-0.307-0.117-0.588-0.28-0.841-0.49s-0.465-0.477-0.633-0.799s-0.276-0.83-0.326-1.523c0.01-0.664,0.029-1.392,0.059-2.183
				c0.01-0.156,0.015-0.327,0.015-0.513v-6.079h-0.601C208.714,16.128,208.167,16.152,207.562,16.201z"/>
			<path fill="#11335D" d="M216.133,15.63v-0.835c1.895-0.215,3.486-0.625,4.775-1.23l0.322,0.234
				c-0.078,2.08-0.117,3.672-0.117,4.775v2.666c0.049,2.539,0.078,3.911,0.088,4.116c0.01,0.488,0.063,0.845,0.16,1.069
				c0.049,0.088,0.113,0.164,0.191,0.227c0.078,0.064,0.195,0.115,0.352,0.154c0.059,0.01,0.6,0.024,1.625,0.044v0.835
				c-1.484-0.068-2.67-0.103-3.559-0.103c-0.781,0-2.061,0.034-3.838,0.103v-0.835l1.4-0.015c0.206-0.01,0.365-0.046,0.479-0.109
				s0.199-0.145,0.258-0.242c0.107-0.195,0.178-0.542,0.207-1.04c0-0.127,0.023-1.528,0.072-4.204v-2.578
				c0-1.455-0.049-2.319-0.146-2.593c-0.059-0.146-0.163-0.257-0.314-0.329C217.937,15.666,217.285,15.63,216.133,15.63z
				 M219.707,7.061c0.459,0,0.847,0.161,1.164,0.483s0.477,0.713,0.477,1.172c0,0.449-0.162,0.835-0.484,1.157
				s-0.707,0.483-1.156,0.483c-0.459,0-0.85-0.161-1.172-0.483s-0.484-0.708-0.484-1.157c0-0.459,0.162-0.85,0.484-1.172
				S219.248,7.061,219.707,7.061z"/>
			<path fill="#11335D" d="M223.414,27.686v-0.835l1.4-0.015c0.206-0.01,0.365-0.046,0.479-0.109s0.199-0.145,0.258-0.242
				c0.107-0.195,0.178-0.542,0.207-1.04c0-0.127,0.023-1.528,0.072-4.204v-1.743c0-0.781-0.014-1.621-0.043-2.52
				c-0.029-0.576-0.076-0.918-0.14-1.025s-0.173-0.188-0.329-0.241s-0.791-0.076-1.904-0.066V14.81
				c1.973-0.273,3.412-0.63,4.32-1.069c0.195-0.098,0.328-0.146,0.396-0.146s0.121,0.024,0.16,0.073s0.059,0.122,0.059,0.22
				c0,0.068-0.004,0.146-0.014,0.234c-0.029,0.352-0.059,1.094-0.088,2.227l2.725-2.329c0.801-0.293,1.557-0.439,2.27-0.439
				c0.791,0,1.541,0.161,2.249,0.483s1.24,0.728,1.597,1.216s0.594,1.104,0.711,1.846c0.068,0.439,0.102,1.665,0.102,3.677v2.593
				c0,1.27,0.035,2.134,0.104,2.593c0.049,0.293,0.124,0.496,0.227,0.607c0.103,0.113,0.262,0.184,0.477,0.213l1.566,0.044v0.835
				c-0.957-0.068-1.752-0.103-2.387-0.103c-0.547,0-1.455,0.034-2.725,0.103c0.137-2.412,0.205-3.936,0.205-4.57v-2.461
				c0-1.533-0.059-2.539-0.176-3.018c-0.166-0.654-0.543-1.182-1.129-1.582s-1.293-0.601-2.123-0.601
				c-0.732,0-1.402,0.173-2.008,0.52s-1.037,0.747-1.296,1.201s-0.388,1.218-0.388,2.292v1.773c0.049,2.539,0.072,3.911,0.072,4.116
				c0.02,0.488,0.079,0.845,0.178,1.069c0.039,0.088,0.098,0.164,0.176,0.227c0.079,0.064,0.202,0.115,0.369,0.154
				c0.059,0.01,0.6,0.024,1.621,0.044v0.835c-1.191-0.068-2.27-0.103-3.236-0.103C226.607,27.583,225.27,27.617,223.414,27.686z"/>
			<path fill="#11335D" d="M255.495,14.736l0.117,0.278c-0.381,0.576-0.63,0.972-0.747,1.187h-2.725
				c0.225,0.575,0.337,1.116,0.337,1.622c0,0.741-0.192,1.465-0.579,2.171c-0.385,0.707-0.949,1.311-1.691,1.813
				s-1.533,0.841-2.373,1.016c-0.547,0.117-1.284,0.166-2.212,0.146c-0.635,0.506-1.035,0.884-1.201,1.137
				c-0.107,0.175-0.161,0.364-0.161,0.568c0,0.233,0.07,0.439,0.213,0.619c0.141,0.18,0.358,0.306,0.651,0.377
				c0.439,0.123,1.221,0.185,2.344,0.185l3.164-0.073c1.104,0,1.94,0.145,2.513,0.433c0.57,0.289,0.993,0.729,1.267,1.32
				s0.41,1.259,0.41,2.003c0,1.007-0.329,2.031-0.989,3.073c-0.658,1.041-1.638,1.862-2.937,2.464s-2.754,0.902-4.365,0.902
				c-1.348,0-2.495-0.21-3.442-0.63s-1.648-0.981-2.102-1.685c-0.455-0.703-0.682-1.44-0.682-2.212c0-0.43,0.066-0.833,0.197-1.208
				c0.133-0.377,0.354-0.779,0.667-1.209c1.191-0.547,2.046-1.025,2.563-1.436c-0.811-0.264-1.33-0.513-1.561-0.747
				c-0.229-0.234-0.344-0.469-0.344-0.703c0-0.195,0.146-0.723,0.439-1.582c0.479-0.4,1.23-0.967,2.256-1.699
				c-0.879-0.243-1.555-0.528-2.029-0.855c-0.473-0.327-0.842-0.771-1.105-1.331s-0.396-1.177-0.396-1.85
				c0-0.995,0.254-1.885,0.762-2.67c0.508-0.784,1.362-1.423,2.563-1.916c1.201-0.492,2.314-0.738,3.34-0.738
				c0.664,0,1.297,0.107,1.896,0.322c0.602,0.215,1.17,0.537,1.707,0.967C253.098,14.785,254.509,14.766,255.495,14.736z
				 M247.805,27.847c-1.455,0-2.368,0.02-2.739,0.059c-0.186,0.029-0.396,0.127-0.63,0.293c-0.771,0.547-1.182,0.85-1.23,0.908
				c-0.098,0.098-0.205,0.298-0.322,0.601c-0.205,0.547-0.308,1.099-0.308,1.655c0,1.025,0.397,1.892,1.194,2.601
				c0.795,0.707,1.892,1.062,3.288,1.062c1.035,0,1.979-0.208,2.835-0.622c0.854-0.416,1.498-0.982,1.934-1.699
				c0.434-0.719,0.651-1.438,0.651-2.161c-0.029-0.625-0.124-1.099-0.286-1.421c-0.16-0.322-0.355-0.576-0.586-0.762
				c-0.229-0.186-0.544-0.337-0.944-0.454C250.427,27.876,249.475,27.856,247.805,27.847z M243.513,18.025
				c0,0.692,0.13,1.364,0.388,2.018c0.26,0.653,0.641,1.146,1.143,1.477c0.504,0.332,1.077,0.497,1.722,0.497
				c0.84,0,1.582-0.271,2.227-0.812s0.967-1.411,0.967-2.609c0-1.229-0.322-2.205-0.967-2.932c-0.645-0.726-1.421-1.089-2.329-1.089
				c-0.947,0-1.709,0.3-2.285,0.899S243.513,16.924,243.513,18.025z"/>
		</g>
	</g>
	<g>
		<path fill="#11335D" d="M148.893,10.951c0.035-0.213,0.057-0.557,0.063-1.032h0.223c0.012,0.323,0.029,0.514,0.055,0.572
			c0.025,0.06,0.088,0.122,0.186,0.188s0.229,0.125,0.393,0.177c0.164,0.053,0.322,0.078,0.475,0.078
			c0.225,0,0.43-0.051,0.619-0.154c0.188-0.104,0.326-0.238,0.412-0.406c0.086-0.167,0.129-0.347,0.129-0.537
			c0-0.146-0.021-0.272-0.064-0.378c-0.043-0.106-0.109-0.192-0.197-0.258s-0.197-0.111-0.328-0.138
			c-0.082-0.013-0.246-0.035-0.492-0.067c-0.245-0.032-0.454-0.066-0.627-0.104c-0.23-0.07-0.4-0.153-0.508-0.248
			c-0.109-0.096-0.197-0.22-0.265-0.375c-0.067-0.154-0.101-0.321-0.101-0.5c0-0.261,0.067-0.507,0.203-0.738
			c0.137-0.23,0.338-0.41,0.605-0.538c0.266-0.128,0.556-0.192,0.867-0.192c0.188,0,0.395,0.025,0.616,0.075
			c0.223,0.05,0.431,0.122,0.622,0.218c-0.03,0.14-0.053,0.27-0.066,0.39c-0.013,0.121-0.022,0.298-0.029,0.532h-0.223
			c-0.006-0.341-0.017-0.526-0.029-0.558c-0.056-0.079-0.131-0.151-0.227-0.216c-0.229-0.128-0.467-0.192-0.715-0.192
			c-0.322,0-0.578,0.098-0.77,0.293c-0.192,0.195-0.288,0.448-0.288,0.76c0,0.188,0.034,0.333,0.103,0.437
			c0.068,0.103,0.191,0.186,0.369,0.247c0.121,0.042,0.32,0.082,0.598,0.119c0.276,0.037,0.525,0.076,0.747,0.118
			c0.208,0.063,0.362,0.136,0.462,0.222c0.1,0.085,0.181,0.196,0.245,0.335c0.063,0.139,0.097,0.301,0.097,0.487
			c0,0.44-0.184,0.824-0.549,1.152s-0.838,0.492-1.418,0.492C149.646,11.211,149.249,11.124,148.893,10.951z"/>
		<path fill="#11335D" d="M157.455,10.53l-0.129,0.309c-0.26,0.131-0.514,0.225-0.761,0.283c-0.248,0.06-0.519,0.089-0.811,0.089
			c-0.343,0-0.661-0.044-0.956-0.13c-0.295-0.087-0.552-0.21-0.771-0.37c-0.221-0.161-0.4-0.341-0.54-0.54s-0.245-0.416-0.319-0.649
			c-0.072-0.234-0.109-0.49-0.109-0.77c0-0.707,0.246-1.292,0.739-1.756c0.492-0.464,1.165-0.696,2.017-0.696
			c0.201,0,0.389,0.012,0.561,0.035c0.171,0.023,0.38,0.067,0.627,0.133c0.246,0.065,0.398,0.104,0.453,0.114
			c-0.049,0.122-0.086,0.241-0.109,0.358c-0.035,0.188-0.061,0.406-0.073,0.654h-0.209l-0.003-0.392
			c-0.023-0.217-0.143-0.379-0.361-0.485c-0.218-0.105-0.537-0.159-0.957-0.159c-0.314,0.005-0.582,0.045-0.801,0.121
			c-0.219,0.077-0.412,0.197-0.579,0.362s-0.304,0.374-0.41,0.627c-0.106,0.254-0.161,0.572-0.163,0.955
			c0,0.671,0.205,1.21,0.615,1.619c0.408,0.408,0.95,0.612,1.623,0.612c0.303,0,0.584-0.042,0.844-0.125
			c0.177-0.058,0.353-0.147,0.527-0.271L157.455,10.53z"/>
		<path fill="#11335D" d="M158.352,6.612V6.399l1.016,0.023l0.937-0.023v0.213c-0.263,0.004-0.421,0.016-0.478,0.034
			c-0.057,0.02-0.096,0.045-0.117,0.078c-0.026,0.045-0.043,0.151-0.05,0.322c-0.003,0.044-0.009,0.358-0.017,0.943v0.461
			c0.436,0.016,0.967,0.023,1.594,0.023c0.48,0,0.865-0.008,1.152-0.023V7.99c0-0.302-0.006-0.596-0.017-0.884
			c-0.007-0.21-0.022-0.335-0.048-0.373c-0.025-0.039-0.066-0.067-0.122-0.087c-0.056-0.019-0.216-0.03-0.478-0.034V6.399
			c0.477,0.016,0.803,0.023,0.979,0.023c0.066,0,0.39-0.008,0.97-0.023v0.213c-0.26,0.004-0.418,0.016-0.477,0.034
			c-0.057,0.02-0.096,0.045-0.115,0.078c-0.028,0.044-0.046,0.151-0.053,0.322c-0.002,0.044-0.008,0.358-0.017,0.941v1.537
			c0,0.301,0.006,0.594,0.017,0.879c0.004,0.21,0.02,0.335,0.045,0.375s0.066,0.069,0.123,0.088c0.059,0.019,0.217,0.03,0.477,0.034
			v0.213c-0.428-0.016-0.777-0.023-1.049-0.023c-0.291,0-0.59,0.008-0.9,0.023v-0.213c0.264-0.004,0.424-0.016,0.48-0.034
			c0.056-0.019,0.096-0.045,0.117-0.078c0.029-0.044,0.045-0.151,0.05-0.321c0.002-0.046,0.008-0.359,0.017-0.939V8.773
			c-0.619-0.016-1.09-0.023-1.411-0.023c-0.35,0-0.795,0.008-1.335,0.023v0.755c0,0.3,0.004,0.593,0.01,0.877
			c0.007,0.21,0.023,0.334,0.049,0.374s0.066,0.069,0.123,0.088s0.216,0.03,0.479,0.034v0.213c-0.299-0.016-0.606-0.023-0.923-0.023
			c-0.346,0-0.689,0.008-1.029,0.023v-0.213c0.26-0.004,0.418-0.016,0.475-0.034c0.059-0.019,0.098-0.045,0.119-0.078
			c0.027-0.044,0.043-0.151,0.05-0.322c0.003-0.046,0.009-0.36,0.017-0.941V7.988c0-0.301-0.003-0.595-0.01-0.882
			c-0.007-0.21-0.023-0.335-0.049-0.373c-0.025-0.039-0.066-0.067-0.122-0.087C158.774,6.628,158.615,6.616,158.352,6.612z"/>
		<path fill="#11335D" d="M164.546,8.787c0-0.351,0.053-0.673,0.157-0.97c0.105-0.297,0.279-0.563,0.523-0.801
			c0.244-0.236,0.52-0.415,0.826-0.536c0.309-0.12,0.66-0.181,1.057-0.181c0.365,0,0.697,0.052,0.996,0.154
			c0.299,0.104,0.544,0.239,0.735,0.408c0.191,0.17,0.343,0.355,0.453,0.557c0.084,0.15,0.151,0.327,0.201,0.531
			c0.05,0.203,0.075,0.422,0.075,0.654c0,0.745-0.252,1.366-0.753,1.862s-1.134,0.744-1.897,0.744c-0.348,0-0.672-0.057-0.973-0.17
			c-0.301-0.112-0.556-0.28-0.764-0.503s-0.367-0.492-0.475-0.811C164.6,9.41,164.546,9.097,164.546,8.787z M165.236,8.511
			c0,0.211,0.021,0.424,0.063,0.642c0.042,0.217,0.095,0.403,0.159,0.561c0.106,0.266,0.245,0.489,0.417,0.669
			c0.171,0.181,0.362,0.313,0.574,0.398c0.212,0.086,0.445,0.128,0.702,0.128c0.356,0,0.666-0.087,0.93-0.261s0.46-0.418,0.59-0.733
			c0.129-0.315,0.193-0.679,0.193-1.091c0-0.352-0.046-0.676-0.139-0.973c-0.059-0.182-0.135-0.346-0.229-0.493
			s-0.208-0.275-0.341-0.386c-0.131-0.109-0.303-0.201-0.512-0.276c-0.211-0.075-0.438-0.113-0.682-0.113
			c-0.352,0-0.66,0.078-0.926,0.235s-0.466,0.385-0.6,0.683S165.236,8.135,165.236,8.511z"/>
		<path fill="#11335D" d="M170.429,8.787c0-0.351,0.053-0.673,0.157-0.97c0.105-0.297,0.279-0.563,0.523-0.801
			c0.244-0.236,0.52-0.415,0.826-0.536c0.309-0.12,0.66-0.181,1.057-0.181c0.365,0,0.697,0.052,0.996,0.154
			c0.299,0.104,0.544,0.239,0.735,0.408c0.191,0.17,0.343,0.355,0.453,0.557c0.084,0.15,0.151,0.327,0.201,0.531
			c0.05,0.203,0.075,0.422,0.075,0.654c0,0.745-0.252,1.366-0.753,1.862s-1.134,0.744-1.897,0.744c-0.348,0-0.672-0.057-0.973-0.17
			c-0.301-0.112-0.556-0.28-0.764-0.503s-0.367-0.492-0.475-0.811C170.482,9.41,170.429,9.097,170.429,8.787z M171.119,8.511
			c0,0.211,0.021,0.424,0.063,0.642c0.042,0.217,0.095,0.403,0.159,0.561c0.106,0.266,0.245,0.489,0.417,0.669
			c0.171,0.181,0.362,0.313,0.574,0.398c0.212,0.086,0.445,0.128,0.702,0.128c0.356,0,0.666-0.087,0.93-0.261s0.46-0.418,0.59-0.733
			c0.129-0.315,0.193-0.679,0.193-1.091c0-0.352-0.046-0.676-0.139-0.973c-0.059-0.182-0.135-0.346-0.229-0.493
			s-0.208-0.275-0.341-0.386c-0.131-0.109-0.303-0.201-0.512-0.276c-0.211-0.075-0.438-0.113-0.682-0.113
			c-0.352,0-0.66,0.078-0.926,0.235s-0.466,0.385-0.6,0.683S171.119,8.135,171.119,8.511z"/>
		<path fill="#11335D" d="M176.571,11.114v-0.173c0.136-0.063,0.222-0.115,0.26-0.152c0.022-0.02,0.037-0.045,0.046-0.076
			c0.02-0.063,0.033-0.195,0.039-0.398c0.012-0.303,0.018-0.483,0.018-0.541V7.989c0-0.301-0.004-0.596-0.011-0.883
			c-0.007-0.21-0.022-0.335-0.048-0.373c-0.025-0.039-0.066-0.067-0.123-0.087c-0.057-0.019-0.217-0.03-0.479-0.034V6.399
			c0.54,0.016,0.874,0.023,1.003,0.023c0.141,0,0.459-0.008,0.953-0.023v0.213c-0.264,0.004-0.424,0.016-0.48,0.034
			c-0.057,0.02-0.096,0.045-0.117,0.078c-0.027,0.044-0.044,0.151-0.051,0.322c-0.002,0.044-0.008,0.358-0.016,0.941v2.229
			c0,0.232,0.005,0.422,0.016,0.567c0.253,0.016,0.503,0.023,0.751,0.023c0.624,0,1.062-0.04,1.312-0.119
			c0.028-0.066,0.055-0.143,0.076-0.229l0.133-0.551h0.223c-0.049,0.33-0.097,0.717-0.143,1.162
			c-0.092,0.018-0.163,0.028-0.217,0.033c-0.115,0.007-0.291,0.01-0.531,0.01l-1.965-0.023
			C177.006,11.091,176.79,11.099,176.571,11.114z"/>
		<path fill="#11335D" d="M182.995,8.787c0-0.351,0.053-0.673,0.157-0.97c0.105-0.297,0.279-0.563,0.523-0.801
			c0.244-0.236,0.52-0.415,0.826-0.536c0.309-0.12,0.66-0.181,1.057-0.181c0.365,0,0.697,0.052,0.996,0.154
			c0.299,0.104,0.544,0.239,0.735,0.408c0.191,0.17,0.343,0.355,0.453,0.557c0.084,0.15,0.151,0.327,0.201,0.531
			c0.05,0.203,0.075,0.422,0.075,0.654c0,0.745-0.252,1.366-0.753,1.862s-1.134,0.744-1.897,0.744c-0.348,0-0.672-0.057-0.973-0.17
			c-0.301-0.112-0.556-0.28-0.764-0.503s-0.367-0.492-0.475-0.811C183.049,9.41,182.995,9.097,182.995,8.787z M183.686,8.511
			c0,0.211,0.021,0.424,0.063,0.642c0.042,0.217,0.095,0.403,0.159,0.561c0.106,0.266,0.245,0.489,0.417,0.669
			c0.171,0.181,0.362,0.313,0.574,0.398c0.212,0.086,0.445,0.128,0.702,0.128c0.356,0,0.666-0.087,0.93-0.261s0.46-0.418,0.59-0.733
			c0.129-0.315,0.193-0.679,0.193-1.091c0-0.352-0.046-0.676-0.139-0.973c-0.059-0.182-0.135-0.346-0.229-0.493
			s-0.208-0.275-0.341-0.386c-0.131-0.109-0.303-0.201-0.512-0.276c-0.211-0.075-0.438-0.113-0.682-0.113
			c-0.352,0-0.66,0.078-0.926,0.235s-0.466,0.385-0.6,0.683S183.686,8.135,183.686,8.511z"/>
		<path fill="#11335D" d="M188.861,6.612V6.399c0.336,0.016,0.622,0.023,0.857,0.023c0.166,0,0.463-0.005,0.893-0.016
			c0.43-0.01,0.719-0.015,0.869-0.015c0.162,0,0.311,0.002,0.443,0.005c0.135,0.004,0.256,0.01,0.364,0.019
			c-0.056,0.188-0.091,0.523-0.106,1.006h-0.209c-0.02-0.268-0.048-0.474-0.083-0.617c-0.115-0.04-0.257-0.069-0.427-0.088
			c-0.17-0.02-0.365-0.028-0.59-0.028c-0.223,0-0.455,0.013-0.693,0.04c-0.014,0.119-0.022,0.23-0.027,0.334
			c-0.002,0.06-0.008,0.313-0.016,0.76v0.735c0.248,0.007,0.467,0.01,0.657,0.01c0.28,0,0.506-0.015,0.674-0.043
			c0.064-0.011,0.106-0.029,0.124-0.055c0.02-0.025,0.04-0.119,0.063-0.28l0.025-0.206h0.21l-0.023,0.757l0.023,0.813h-0.21
			l-0.022-0.213c-0.024-0.241-0.042-0.37-0.054-0.388c-0.018-0.031-0.059-0.055-0.125-0.07c-0.127-0.028-0.412-0.043-0.857-0.043
			c-0.157,0-0.318,0.005-0.484,0.014v0.67c0,0.302,0.004,0.595,0.014,0.88c0.004,0.211,0.019,0.336,0.044,0.376
			c0.025,0.039,0.067,0.068,0.124,0.088c0.059,0.019,0.218,0.03,0.479,0.034v0.213c-0.281-0.016-0.561-0.023-0.84-0.023
			c-0.25,0-0.615,0.008-1.096,0.023v-0.213c0.26-0.004,0.418-0.016,0.476-0.034s0.097-0.045,0.119-0.078
			c0.026-0.044,0.043-0.151,0.05-0.322c0.002-0.046,0.008-0.36,0.016-0.941V7.988c0-0.301-0.002-0.595-0.01-0.882
			c-0.006-0.21-0.022-0.335-0.048-0.373c-0.025-0.039-0.066-0.067-0.122-0.087C189.285,6.628,189.125,6.616,188.861,6.612z"/>
	</g>
</g>
</svg>
