<svg height="60" viewBox="0 0 120 60" width="120" xmlns="http://www.w3.org/2000/svg"><g transform="matrix(.83869344 0 0 .83869344 7.503057 17.419397)"><path d="m0 0h30v30h-30z" fill="#f26625"/><path d="m14 17-5.2-9.7h2.4l3 6.1c0 .1.1.2.2.3s.1.2.2.4c0 0 .1.1.1.1v.1c.1.2.1.3.2.5.1.1.1.3.2.4.1-.3.3-.5.4-.9.1-.3.3-.6.5-.9l3-6.1h2.2l-5.2 9.8v6.2h-2z" fill="#fff"/></g><g fill="#f26625" transform="matrix(.70739739 0 0 .70739739 11.821759 22.161726)"><path d="m43.7 5.8c1.5 0 2.8.4 3.8 1.2l-1 1.2c-.9-.6-1.8-1-2.9-1-1.7 0-3 .9-3.7 2.6-.4 1-.6 2.3-.6 4 0 1.3.2 2.4.5 3.2.8 1.9 2.1 2.8 4.1 2.8 1.1 0 2.1-.3 3-1l1 1.3c-1.3.8-2.7 1.2-4.2 1.2-1.8 0-3.3-.7-4.5-2.2-1.2-1.4-1.7-3.3-1.7-5.6s.6-4.1 1.8-5.6c1.1-1.3 2.6-2.1 4.4-2.1z"/><path d="m49.4 15.7c0-1.8.4-3.2 1.3-4.2s2-1.6 3.4-1.6c1.6 0 2.9.6 3.8 1.9.7 1 1 2.4 1 4.1 0 2-.6 3.6-1.7 4.6-.8.7-1.8 1.1-3 1.1-1.5 0-2.6-.5-3.5-1.6-.9-1-1.3-2.5-1.3-4.3zm7-2.9c-.5-.9-1.2-1.4-2.3-1.4s-1.8.4-2.3 1.2c-.4.6-.5 1.6-.5 2.9 0 1.7.2 2.9.7 3.6s1.2 1.1 2.2 1.1c1.2 0 2-.6 2.4-1.7.2-.6.3-1.4.3-2.4.1-1.5-.1-2.6-.5-3.3z"/><path d="m62.1 13c0-1.1-.1-2-.4-2.7l1.7-.4c.3.5.4 1.1.4 1.6v.1c.4-.4.8-.8 1.4-1.1.7-.4 1.3-.6 1.9-.6.9 0 1.7.4 2.2 1.1.1.2.3.5.4.7 1.2-1.2 2.3-1.8 3.5-1.8.8 0 1.5.3 2 .8.5.6.8 1.3.8 2.1v8.3h-1.8v-8.2c0-1.1-.5-1.6-1.4-1.6-.5 0-1.1.2-1.6.6-.2.2-.6.5-1.1.9l-.2.2v8.1h-1.9v-7.8c0-.7-.1-1.2-.3-1.4-.3-.3-.6-.4-1.1-.4-.8 0-1.7.5-2.8 1.5v8.2h-1.7z"/><path d="m79.1 5.4 1.8-.4c.2.8.3 1.7.3 2.8v2.5 1.2c1-1 2.1-1.5 3.2-1.5 1.3 0 2.4.5 3.1 1.5.8 1 1.2 2.4 1.2 4.1 0 1.8-.4 3.2-1.2 4.3s-1.9 1.6-3.2 1.6c-.6 0-1.1-.1-1.7-.4s-1-.6-1.3-1c-.1.5-.2.9-.3 1.2h-1.7c.2-.5.3-1.4.3-2.8v-10.5c-.1-1.2-.2-2.1-.5-2.6zm2.9 6.8c-.3.2-.6.5-.8.8v5.7c.7.9 1.6 1.3 2.7 1.3.9 0 1.6-.3 2-1 .5-.8.8-1.9.8-3.5 0-1.4-.2-2.4-.7-3-.4-.6-1.1-.9-2.1-.9-.6-.1-1.3.1-1.9.6z"/><path d="m91.3 6.8c0-.4.1-.7.4-1s.6-.4 1-.4.7.1 1 .4.4.6.4 1-.1.7-.4 1-.6.4-1 .4-.7-.1-1-.4-.4-.6-.4-1zm.4 14.4v-11l1.8-.3v11.3z"/><path d="m97.4 13c0-.8 0-1.3-.1-1.5 0-.3-.2-.6-.4-1.1l1.7-.5c.3.6.4 1.1.4 1.7 1.1-1.1 2.3-1.7 3.5-1.7.6 0 1.1.1 1.6.4s.9.7 1.1 1.2c.2.4.3.8.3 1.3v8.4h-1.7v-7.5c0-.9-.1-1.5-.4-1.8s-.7-.5-1.2-.5c-.4 0-1 .2-1.6.5s-1.1.7-1.5 1.1v8.2h-1.7z"/><path d="m109.5 12.6-.9-1.2c1.5-1 3-1.5 4.6-1.5s2.6.6 3.1 1.7c.2.4.2 1 .2 1.9v.6l-.1 3.6v.5c0 .6 0 1 .1 1.3.1.4.4.7.8.9l-.9 1.2c-.8-.3-1.3-.8-1.5-1.6-1 1-2.1 1.5-3.2 1.5s-2-.3-2.7-.9c-.6-.5-.9-1.3-.9-2.3 0-1.3.5-2.2 1.5-2.9s2.5-1 4.3-1h.8v-.8c0-.9-.1-1.5-.4-1.7-.4-.4-.8-.6-1.5-.6-.6 0-1.3.2-2.1.5-.3.2-.7.5-1.2.8zm5.3 5.9.1-2.9c-.5 0-.8 0-.9 0-1.6 0-2.6.3-3.2.9-.4.4-.6 1-.6 1.8 0 1.3.6 2 1.9 2 1.2-.1 2.1-.7 2.7-1.8z"/><path d="m122.2 10.2h2.8l-.5 1.4h-2.3v7.1c0 .6.1 1 .3 1.3.2.2.6.4 1.1.4.4 0 .8-.1 1.1-.2l.2 1.1c-.6.3-1.2.4-1.9.4-1.7 0-2.5-.8-2.5-2.5v-7.6h-1.5v-1.4h1.4v-.2c0-.2.1-1 .2-2.3v-.3l1.8-.4c-.2 1.2-.2 2.3-.2 3.2z"/><path d="m126.8 15.7c0-1.8.4-3.2 1.3-4.2.8-1 2-1.6 3.4-1.6 1.6 0 2.9.6 3.8 1.9.7 1 1 2.4 1 4.1 0 2-.6 3.6-1.7 4.6-.8.7-1.8 1.1-3 1.1-1.5 0-2.6-.5-3.5-1.6-.8-1-1.3-2.5-1.3-4.3zm7.1-2.9c-.5-.9-1.2-1.4-2.3-1.4s-1.8.4-2.3 1.2c-.4.6-.5 1.6-.5 2.9 0 1.7.2 2.9.7 3.6s1.2 1.1 2.2 1.1c1.2 0 2-.6 2.4-1.7.2-.6.3-1.4.3-2.4 0-1.5-.2-2.6-.5-3.3z"/><path d="m139.6 12.8c0-1-.1-1.8-.4-2.4l1.7-.5c.3.6.4 1.1.4 1.7v.2c.9-1.2 1.9-1.8 3.1-1.8.2 0 .4 0 .6.1l-.7 1.9c-.2-.1-.4-.1-.5-.1-.4 0-.9.1-1.3.4s-.8.6-1 1c-.1.3-.2.7-.2 1.2v6.9h-1.7z"/></g></svg>