<?xml version="1.0" encoding="UTF-8" standalone="no"?>
<!DOCTYPE svg PUBLIC "-//W3C//DTD SVG 1.1//EN" "http://www.w3.org/Graphics/SVG/1.1/DTD/svg11.dtd">
<svg version="1.1" xmlns="http://www.w3.org/2000/svg" xmlns:xlink="http://www.w3.org/1999/xlink" preserveAspectRatio="xMidYMid meet" viewBox="0 0 1000 1000" width="1000" height="1000"><defs><path d="M730.23 678.19C730.23 661.79 743.14 648.48 759.05 648.48C774.97 648.48 787.88 661.79 787.88 678.19C787.88 683.24 787.88 723.58 787.88 728.62C787.88 745.03 774.97 758.33 759.05 758.33C743.14 758.34 730.23 745.03 730.23 728.62C730.23 718.54 730.23 683.24 730.23 678.19Z" id="caeiIa9V0"></path><path d="M631.06 575.97C576.38 575.97 531.89 621.83 531.89 678.19C531.89 684.97 531.89 739.16 531.89 745.94C531.89 762.35 518.98 775.65 503.06 775.65C487.14 775.65 474.24 762.35 474.24 745.94C474.24 739.16 474.24 684.97 474.24 678.19C474.24 589.06 544.59 516.55 631.06 516.55C717.53 516.55 787.88 589.06 787.88 678.19C784.04 678.19 764.82 678.19 730.23 678.19L730.23 678.19C700.57 610.05 667.52 575.97 631.06 575.97Z" id="a1T8wkd4Nh"></path><path d="M280.29 840.29C221.68 840.29 174 795.43 174 740.29C174 734.85 174 691.36 174 685.92C174 662.41 153.68 643.28 128.69 643.28C103.7 643.28 83.37 662.41 83.37 685.92C83.37 696.01 74.68 704.18 63.97 704.18C53.25 704.18 44.57 696.01 44.57 685.92C44.57 642.28 82.3 606.76 128.69 606.76C175.07 606.76 212.81 642.28 212.81 685.92C212.81 691.36 212.81 734.85 212.81 740.29C212.81 775.3 243.08 803.78 280.29 803.78C289.18 803.78 360.33 803.78 369.22 803.78C379.94 803.78 388.63 811.96 388.63 822.04C388.63 832.12 379.94 840.29 369.22 840.29C351.43 840.29 289.18 840.29 280.29 840.29Z" id="e1lp7V3WvW"></path><path d="M698.77 866.06C698.77 877.7 689.62 887.14 678.33 887.14C671.99 887.14 621.23 887.14 614.89 887.14C603.6 887.14 594.44 877.7 594.44 866.06C594.44 854.43 603.6 844.99 614.89 844.99C619.12 844.99 640.26 844.99 678.33 844.99C691.96 851.28 698.77 858.31 698.77 866.06Z" id="c1lzURTJao"></path><path d="M423.01 779.9C423.01 839.13 469.58 887.14 527.04 887.14C533.97 887.14 568.65 887.14 631.06 887.14C631.06 822.8 631.06 787.05 631.06 779.9C631.06 720.68 584.49 672.67 527.04 672.67C469.58 672.67 423.01 720.68 423.01 779.9Z" id="b3Yw2sJuoH"></path><path d="M420.43 491.32C502.37 491.32 568.79 559.79 568.79 644.24C568.79 653.24 568.79 725.21 568.79 734.21C568.79 818.67 502.37 887.14 420.43 887.14C338.5 887.14 272.08 818.67 272.08 734.21C272.08 728.21 272.08 698.22 272.08 644.24C316.36 542.29 365.81 491.32 420.43 491.32Z" id="fENJ1OuYU"></path><path d="M683.21 422.05C683.21 512.47 612.09 585.78 524.37 585.78C515.52 585.78 444.74 585.78 435.89 585.78C348.16 585.78 277.05 512.47 277.05 422.05C277.05 331.62 348.16 258.32 435.89 258.32C435.89 258.32 524.37 258.32 524.37 258.32C612.09 258.32 683.21 331.62 683.21 422.05Z" id="bYDFBwuRX"></path><path d="M683.21 422.05C683.21 399.62 678.82 378.25 670.9 358.78C658.43 349.19 644.12 342.01 628.63 337.87C609.11 344.36 592.84 358.34 583.08 376.55C570.6 353.25 547.5 336.87 520.52 334.25C457.43 339.22 407.73 393.51 407.73 459.81C407.73 527.47 459.5 582.59 524.42 585.57C525.93 585.7 527.47 585.78 529.11 585.78C538.75 585.78 615.88 585.78 625.52 585.78C661.21 585.78 690.14 555.95 690.14 519.16C690.14 502.54 684.22 487.35 674.45 475.68C680.1 458.88 683.21 440.84 683.21 422.05Z" id="a2GLfhn4qQ"></path><path d="M498.07 407.18C490.63 407.18 484.6 413.39 484.6 421.06C484.6 428.72 490.63 434.94 498.07 434.94C505.51 434.94 511.54 428.72 511.54 421.06C511.54 413.39 505.51 407.18 498.07 407.18Z" id="avq7Ts8xl"></path><path d="M656.07 407.18C648.64 407.18 642.61 413.39 642.61 421.06C642.61 428.72 648.64 434.94 656.07 434.94C663.51 434.94 669.54 428.72 669.54 421.06C669.54 413.39 663.51 407.18 656.07 407.18Z" id="a1pebFu4Cn"></path><path d="M570.52 476.79C569.7 475.95 563.16 469.21 562.34 468.36C560.41 466.37 560.41 463.13 562.34 461.13C564.28 459.13 567.42 459.13 569.36 461.13C570.18 461.98 576.72 468.72 577.54 469.56C579.48 471.56 579.48 474.8 577.54 476.79C576.57 477.79 575.3 478.29 574.03 478.29C572.76 478.29 571.49 477.79 570.52 476.79Z" id="h1GmF62kzg"></path><path d="M609.17 476.79C607.23 474.8 607.23 471.56 609.17 469.56C609.98 468.72 616.52 461.98 617.34 461.13C619.27 459.13 622.42 459.13 624.36 461.13C626.3 463.13 626.3 466.37 624.36 468.36C623.54 469.21 617 475.95 616.18 476.79C615.21 477.79 613.94 478.29 612.68 478.29C611.41 478.29 610.13 477.79 609.17 476.79Z" id="bgqylxMk"></path><path d="M255.03 422.05C255.03 456 281.73 483.53 314.67 483.53C314.67 475.33 314.67 434.35 314.67 360.57C274.91 378.92 255.03 399.42 255.03 422.05Z" id="cjUqbEV8G"></path><path d="M278.07 422.05C278.07 442.88 294.45 459.78 314.67 459.78C314.67 454.75 314.67 429.6 314.67 384.33C290.27 395.59 278.07 408.16 278.07 422.05Z" id="cVFoIBwXr"></path><path d="M521.7 866.06C521.7 877.7 512.55 887.14 501.25 887.14C494.91 887.14 444.16 887.14 437.81 887.14C426.52 887.14 417.37 877.7 417.37 866.06C417.37 854.43 426.52 844.99 437.81 844.99C442.04 844.99 463.19 844.99 501.25 844.99C514.88 851.28 521.7 858.31 521.7 866.06Z" id="e7f3EoMLrW"></path><path d="M245.93 779.9C245.93 839.13 292.51 887.14 349.96 887.14C356.89 887.14 391.57 887.14 453.98 887.14C453.98 822.8 453.98 787.05 453.98 779.9C453.98 720.68 407.41 672.67 349.96 672.67C292.5 672.67 245.93 720.68 245.93 779.9Z" id="k2LDeDfTMF"></path><path d="M272.17 369.35C256.25 369.35 243.34 356.04 243.34 339.64C243.34 323.23 256.25 309.93 272.17 309.93C277.06 309.93 316.19 309.93 321.08 309.93C337 309.93 349.91 323.23 349.91 339.64C349.91 356.04 337 369.35 321.09 369.35C311.3 369.35 277.06 369.35 272.17 369.35Z" id="a1pivD5Cy"></path><path d="M172.99 471.57C172.99 527.94 217.48 573.8 272.17 573.8C278.74 573.8 331.31 573.8 337.88 573.8C353.8 573.8 366.71 587.11 366.71 603.51C366.71 619.92 353.8 633.22 337.88 633.22C331.31 633.22 278.74 633.22 272.17 633.22C185.69 633.22 115.34 560.71 115.34 471.57C115.34 382.44 185.69 309.93 272.17 309.93C272.17 313.89 272.17 333.7 272.17 369.35C206.05 399.92 172.99 434 172.99 471.57Z" id="b3nKWx5IT4"></path><path d="M835.5 585.78C861.53 585.78 882.64 604.95 882.64 628.58C882.64 640.41 872.08 660.69 859.07 660.69C859.05 664.25 858.94 682.09 858.75 714.19L670.71 714.19C670.56 682.09 670.49 664.25 670.47 660.69C657.45 660.69 646.9 640.41 646.9 628.58C646.91 604.95 668.02 585.78 694.06 585.78C722.34 585.78 821.35 585.78 835.5 585.78Z" id="fzWLQzQgp"></path><path d="M839.36 585.92L841.27 586.1L843.14 586.34L845 586.65L846.83 587.02L848.63 587.46L850.4 587.96L852.14 588.52L853.85 589.14L855.52 589.82L857.16 590.56L858.77 591.35L860.33 592.19L861.86 593.09L863.34 594.04L864.78 595.04L866.18 596.08L867.53 597.18L868.83 598.32L870.09 599.5L871.29 600.73L872.45 602L873.55 603.31L874.59 604.65L875.58 606.04L876.51 607.46L877.38 608.91L878.19 610.4L878.94 611.92L879.62 613.47L880.24 615.05L880.79 616.66L881.27 618.3L881.69 619.96L882.03 621.64L882.29 623.35L882.49 625.07L882.6 626.82L882.64 628.58L882.62 629.49L882.57 630.42L882.47 631.37L882.33 632.35L882.16 633.36L881.96 634.38L881.72 635.41L881.44 636.46L881.13 637.52L880.79 638.59L880.42 639.66L880.01 640.73L879.58 641.8L879.11 642.87L878.62 643.94L878.09 644.99L877.54 646.03L876.97 647.06L876.36 648.08L875.74 649.07L875.08 650.04L874.41 650.98L873.71 651.9L872.99 652.79L872.25 653.65L871.48 654.46L870.7 655.25L869.9 655.99L869.08 656.68L868.24 657.33L867.39 657.93L866.52 658.48L865.63 658.98L864.73 659.41L863.82 659.79L862.89 660.11L861.95 660.36L861 660.54L860.04 660.65L859.07 660.69L858.75 714.19L670.72 714.19L670.48 660.69L669.51 660.65L668.55 660.54L667.6 660.36L666.66 660.11L665.73 659.79L664.82 659.41L663.91 658.98L663.03 658.48L662.16 657.93L661.3 657.33L660.47 656.68L659.65 655.99L658.84 655.25L658.06 654.46L657.3 653.65L656.56 652.79L655.84 651.9L655.14 650.98L654.46 650.04L653.81 649.07L653.18 648.08L652.58 647.06L652 646.03L651.46 644.99L650.93 643.94L650.44 642.87L649.97 641.8L649.54 640.73L649.13 639.66L648.76 638.59L648.42 637.52L648.11 636.46L647.83 635.41L647.59 634.38L647.39 633.36L647.22 632.35L647.08 631.37L646.99 630.42L646.93 629.49L646.91 628.58L646.95 626.82L647.06 625.07L647.26 623.35L647.53 621.64L647.87 619.96L648.28 618.3L648.76 616.66L649.31 615.05L649.93 613.47L650.61 611.92L651.36 610.4L652.17 608.91L653.04 607.46L653.97 606.04L654.96 604.65L656.01 603.31L657.11 602L658.26 600.73L659.46 599.5L660.72 598.32L662.02 597.18L663.37 596.08L664.77 595.04L666.21 594.04L667.7 593.09L669.22 592.19L670.79 591.35L672.39 590.56L674.03 589.82L675.7 589.14L677.41 588.52L679.15 587.96L680.93 587.46L682.73 587.02L684.55 586.65L686.41 586.34L688.29 586.1L690.19 585.92L692.11 585.82L694.06 585.78L835.5 585.78L837.44 585.82L839.36 585.92ZM692.6 596.51L691.16 596.59L689.74 596.72L688.33 596.9L686.94 597.14L685.57 597.42L684.22 597.75L682.89 598.12L681.59 598.54L680.31 599.01L679.05 599.52L677.82 600.07L676.62 600.66L675.45 601.3L674.3 601.97L673.19 602.68L672.11 603.43L671.06 604.22L670.04 605.04L669.07 605.9L668.12 606.78L667.22 607.7L666.35 608.66L665.53 609.64L664.74 610.65L664 611.69L663.3 612.75L662.65 613.84L662.04 614.96L661.48 616.1L660.97 617.26L660.5 618.45L660.09 619.65L659.73 620.88L659.42 622.12L659.16 623.38L658.96 624.66L658.81 625.96L658.73 627.26L658.7 628.58L658.71 629.25L658.75 629.93L658.83 630.61L658.92 631.31L659.05 632.01L659.19 632.72L659.36 633.43L659.56 634.14L659.77 634.86L660 635.58L660.26 636.29L660.52 637L660.81 637.71L661.11 638.41L661.43 639.1L661.75 639.79L662.09 640.46L662.44 641.13L662.8 641.78L663.17 642.41L663.54 643.04L663.92 643.64L664.31 644.23L664.7 644.79L665.09 645.34L665.48 645.86L665.87 646.35L666.27 646.83L666.66 647.27L667.04 647.69L667.43 648.08L667.81 648.43L668.18 648.75L668.54 649.04L668.89 649.3L669.24 649.51L669.57 649.69L669.89 649.83L670.2 649.93L670.49 649.99L682.25 649.99L682.45 703.49L847.04 703.49L847.35 649.99L859.07 649.99L859.36 649.93L859.66 649.83L859.98 649.69L860.31 649.51L860.66 649.29L861.01 649.03L861.37 648.74L861.74 648.42L862.12 648.06L862.5 647.67L862.88 647.26L863.27 646.81L863.67 646.34L864.06 645.84L864.45 645.32L864.84 644.77L865.23 644.21L865.62 643.62L866 643.02L866.37 642.39L866.74 641.76L867.1 641.11L867.45 640.44L867.79 639.77L868.12 639.08L868.43 638.39L868.74 637.69L869.02 636.98L869.29 636.27L869.54 635.56L869.78 634.84L869.99 634.13L870.19 633.42L870.36 632.71L870.51 632L870.63 631.3L870.73 630.61L870.8 629.92L870.84 629.25L870.86 628.58L870.83 627.26L870.74 625.96L870.59 624.66L870.39 623.38L870.14 622.12L869.83 620.88L869.46 619.65L869.05 618.45L868.59 617.26L868.07 616.1L867.51 614.96L866.9 613.84L866.25 612.75L865.55 611.69L864.81 610.65L864.02 609.64L863.2 608.66L862.33 607.7L861.43 606.78L860.48 605.9L859.5 605.04L858.49 604.22L857.44 603.43L856.36 602.68L855.25 601.97L854.1 601.3L852.93 600.66L851.73 600.07L850.5 599.52L849.24 599.01L847.96 598.54L846.66 598.12L845.33 597.75L843.98 597.42L842.61 597.14L841.22 596.9L839.81 596.72L838.39 596.59L836.95 596.51L835.5 596.48L694.06 596.48L692.6 596.51Z" id="kfLjdWEDZ"></path><path d="M953.36 746.29C959.88 746.29 965.15 751.1 965.15 756.99C965.15 758.06 965.15 766.62 965.15 767.69C965.15 773.61 959.88 778.39 953.36 778.39C951.79 778.39 943.93 778.39 929.79 778.39L929.79 746.29C943.93 746.29 951.79 746.29 953.36 746.29Z" id="d8AZN2Wlq"></path><path d="M870.86 692.79C903.41 692.79 929.79 716.76 929.79 746.29C929.79 756.99 929.79 810.5 929.79 906.8L599.76 906.8C599.76 810.5 599.76 756.99 599.76 746.29C599.76 716.76 626.13 692.79 658.7 692.79C701.13 692.79 849.64 692.79 870.86 692.79Z" id="bheMDP3ry"></path><path d="M658.7 692.79C626.14 692.79 599.76 716.76 599.76 746.29C599.76 756.99 599.76 810.5 599.76 906.8L635.12 906.8C635.12 810.5 635.12 756.99 635.12 746.29C635.12 716.76 661.49 692.79 694.06 692.79C686.98 692.79 662.23 692.79 658.7 692.79Z" id="b3JWbwzxME"></path><path d="M929.79 874.7C936.31 874.7 941.58 879.5 941.58 885.4C941.58 886.47 941.58 895.03 941.58 896.1C941.58 902.02 936.31 906.8 929.79 906.8C896.79 906.8 632.77 906.8 599.76 906.8C593.24 906.8 587.97 902.02 587.97 896.1C587.97 895.03 587.97 886.47 587.97 885.4C587.97 879.51 593.23 874.7 599.76 874.7C665.77 874.7 896.79 874.7 929.79 874.7Z" id="a2CfBw1fvZ"></path><path d="M520 222L520 290L440 290L440 222L440 222L520 222Z" id="duUwHE3zO"></path><path d="M440 225L440 290L360 290L360 225L360 225L440 225Z" id="gmJIwTgQJ"></path><path d="M600 225L600 290L520 290L520 225L520 225L600 225Z" id="a3vjUDWvt"></path><path d="M600 145L540 225L600 225L600 145Z" id="cEY8l8KuA"></path><path d="M480 145L540 225L480 225L480 145Z" id="d4bl0CaB8d"></path><path d="M480.01 145L420.01 225L480.01 225L480.01 145Z" id="d10ebQgLtL"></path><path d="M360 145L420.1 225.13L360 225.13L360 145Z" id="f10zBh3uZg"></path><path d="M520 198.44L541.09 225.44L520 225.44L520 198.44Z" id="bjCpYRqOU"></path><path d="M440.04 198.24L418.95 225.24L440.04 225.24L440.04 198.24Z" id="a1pqadJM4C"></path><path d="M417.65 222.16L417.65 290.16L360 290.16L360 222.16L360 222.16L417.65 222.16Z" id="l4FiI4ImQ"></path><path d="M480.29 145.45L453.36 220.91L480.29 220.91L480.29 145.45Z" id="aSsiDIC3j"></path><path d="M600 150.66L534.25 233.16L600 233.16L600 150.66Z" id="a2n7C6MEmG"></path><path d="M439.99 201.82L418.9 228.82L439.99 228.82L439.99 201.82Z" id="d4oalNoUT3"></path><path d="M520.41 201.6L541.5 228.6L520.41 228.6L520.41 201.6Z" id="lxVwDl8m3"></path></defs><g><g><g><use xlink:href="#caeiIa9V0" opacity="1" fill="#ff9c9f" fill-opacity="1"></use><g><use xlink:href="#caeiIa9V0" opacity="1" fill-opacity="0" stroke="#000000" stroke-width="1" stroke-opacity="0"></use></g></g><g><use xlink:href="#a1T8wkd4Nh" opacity="1" fill="#4d3d2d" fill-opacity="1"></use><g><use xlink:href="#a1T8wkd4Nh" opacity="1" fill-opacity="0" stroke="#000000" stroke-width="1" stroke-opacity="0"></use></g></g><g><use xlink:href="#e1lp7V3WvW" opacity="1" fill="#4d3d2d" fill-opacity="1"></use><g><use xlink:href="#e1lp7V3WvW" opacity="1" fill-opacity="0" stroke="#000000" stroke-width="1" stroke-opacity="0"></use></g></g><g><use xlink:href="#c1lzURTJao" opacity="1" fill="#db8689" fill-opacity="1"></use><g><use xlink:href="#c1lzURTJao" opacity="1" fill-opacity="0" stroke="#000000" stroke-width="1" stroke-opacity="0"></use></g></g><g><use xlink:href="#b3Yw2sJuoH" opacity="1" fill="#4d3d2d" fill-opacity="1"></use><g><use xlink:href="#b3Yw2sJuoH" opacity="1" fill-opacity="0" stroke="#000000" stroke-width="1" stroke-opacity="0"></use></g></g><g><use xlink:href="#fENJ1OuYU" opacity="1" fill="#65513c" fill-opacity="1"></use><g><use xlink:href="#fENJ1OuYU" opacity="1" fill-opacity="0" stroke="#000000" stroke-width="1" stroke-opacity="0"></use></g></g><g><use xlink:href="#bYDFBwuRX" opacity="1" fill="#65513c" fill-opacity="1"></use><g><use xlink:href="#bYDFBwuRX" opacity="1" fill-opacity="0" stroke="#000000" stroke-width="1" stroke-opacity="0"></use></g></g><g><use xlink:href="#a2GLfhn4qQ" opacity="1" fill="#ff9c9f" fill-opacity="1"></use><g><use xlink:href="#a2GLfhn4qQ" opacity="1" fill-opacity="0" stroke="#000000" stroke-width="1" stroke-opacity="0"></use></g></g><g><use xlink:href="#avq7Ts8xl" opacity="1" fill="#333e48" fill-opacity="1"></use><g><use xlink:href="#avq7Ts8xl" opacity="1" fill-opacity="0" stroke="#000000" stroke-width="1" stroke-opacity="0"></use></g></g><g><use xlink:href="#a1pebFu4Cn" opacity="1" fill="#333e48" fill-opacity="1"></use><g><use xlink:href="#a1pebFu4Cn" opacity="1" fill-opacity="0" stroke="#000000" stroke-width="1" stroke-opacity="0"></use></g></g><g><use xlink:href="#h1GmF62kzg" opacity="1" fill="#333e48" fill-opacity="1"></use><g><use xlink:href="#h1GmF62kzg" opacity="1" fill-opacity="0" stroke="#000000" stroke-width="1" stroke-opacity="0"></use></g></g><g><use xlink:href="#bgqylxMk" opacity="1" fill="#333e48" fill-opacity="1"></use><g><use xlink:href="#bgqylxMk" opacity="1" fill-opacity="0" stroke="#000000" stroke-width="1" stroke-opacity="0"></use></g></g><g><use xlink:href="#cjUqbEV8G" opacity="1" fill="#65513c" fill-opacity="1"></use><g><use xlink:href="#cjUqbEV8G" opacity="1" fill-opacity="0" stroke="#000000" stroke-width="1" stroke-opacity="0"></use></g></g><g><use xlink:href="#cVFoIBwXr" opacity="1" fill="#ff9c9f" fill-opacity="1"></use><g><use xlink:href="#cVFoIBwXr" opacity="1" fill-opacity="0" stroke="#000000" stroke-width="1" stroke-opacity="0"></use></g></g><g><use xlink:href="#e7f3EoMLrW" opacity="1" fill="#ff9c9f" fill-opacity="1"></use><g><use xlink:href="#e7f3EoMLrW" opacity="1" fill-opacity="0" stroke="#000000" stroke-width="1" stroke-opacity="0"></use></g></g><g><use xlink:href="#k2LDeDfTMF" opacity="1" fill="#65513c" fill-opacity="1"></use><g><use xlink:href="#k2LDeDfTMF" opacity="1" fill-opacity="0" stroke="#000000" stroke-width="1" stroke-opacity="0"></use></g></g><g><use xlink:href="#a1pivD5Cy" opacity="1" fill="#ff9c9f" fill-opacity="1"></use><g><use xlink:href="#a1pivD5Cy" opacity="1" fill-opacity="0" stroke="#000000" stroke-width="1" stroke-opacity="0"></use></g></g><g><use xlink:href="#b3nKWx5IT4" opacity="1" fill="#65513c" fill-opacity="1"></use><g><use xlink:href="#b3nKWx5IT4" opacity="1" fill-opacity="0" stroke="#000000" stroke-width="1" stroke-opacity="0"></use></g></g><g><use xlink:href="#fzWLQzQgp" opacity="1" fill="#f6c37a" fill-opacity="1"></use><g><use xlink:href="#fzWLQzQgp" opacity="1" fill-opacity="0" stroke="#000000" stroke-width="1" stroke-opacity="0"></use></g></g><g><use xlink:href="#kfLjdWEDZ" opacity="1" fill="#f4b459" fill-opacity="1"></use><g><use xlink:href="#kfLjdWEDZ" opacity="1" fill-opacity="0" stroke="#000000" stroke-width="1" stroke-opacity="0"></use></g></g><g><use xlink:href="#d8AZN2Wlq" opacity="1" fill="#324d5b" fill-opacity="1"></use><g><use xlink:href="#d8AZN2Wlq" opacity="1" fill-opacity="0" stroke="#000000" stroke-width="1" stroke-opacity="0"></use></g></g><g><use xlink:href="#bheMDP3ry" opacity="1" fill="#e4e7e7" fill-opacity="1"></use><g><use xlink:href="#bheMDP3ry" opacity="1" fill-opacity="0" stroke="#000000" stroke-width="1" stroke-opacity="0"></use></g></g><g><use xlink:href="#b3JWbwzxME" opacity="1" fill="#cdd0d0" fill-opacity="1"></use><g><use xlink:href="#b3JWbwzxME" opacity="1" fill-opacity="0" stroke="#000000" stroke-width="1" stroke-opacity="0"></use></g></g><g><use xlink:href="#a2CfBw1fvZ" opacity="1" fill="#2494bc" fill-opacity="1"></use><g><use xlink:href="#a2CfBw1fvZ" opacity="1" fill-opacity="0" stroke="#000000" stroke-width="1" stroke-opacity="0"></use></g></g><g><use xlink:href="#duUwHE3zO" opacity="1" fill="#f4bf27" fill-opacity="1"></use></g><g><use xlink:href="#gmJIwTgQJ" opacity="1" fill="#005b90" fill-opacity="1"></use></g><g><use xlink:href="#a3vjUDWvt" opacity="1" fill="#c84044" fill-opacity="1"></use></g><g><use xlink:href="#cEY8l8KuA" opacity="1" fill="#c84044" fill-opacity="1"></use></g><g><use xlink:href="#d4bl0CaB8d" opacity="1" fill="#f4bf27" fill-opacity="1"></use></g><g><use xlink:href="#d10ebQgLtL" opacity="1" fill="#f4bf27" fill-opacity="1"></use></g><g><use xlink:href="#f10zBh3uZg" opacity="1" fill="#005b90" fill-opacity="1"></use></g><g><use xlink:href="#bjCpYRqOU" opacity="1" fill="#c84044" fill-opacity="1"></use></g><g><use xlink:href="#a1pqadJM4C" opacity="1" fill="#005b90" fill-opacity="1"></use></g><g><use xlink:href="#l4FiI4ImQ" opacity="1" fill="#005b90" fill-opacity="1"></use></g><g><use xlink:href="#aSsiDIC3j" opacity="1" fill="#f4bf27" fill-opacity="1"></use></g><g><use xlink:href="#a2n7C6MEmG" opacity="1" fill="#c84044" fill-opacity="1"></use></g><g><use xlink:href="#d4oalNoUT3" opacity="1" fill="#005b90" fill-opacity="1"></use></g><g><use xlink:href="#lxVwDl8m3" opacity="1" fill="#c84044" fill-opacity="1"></use></g></g></g></svg>