<svg xmlns="http://www.w3.org/2000/svg" xmlns:xlink="http://www.w3.org/1999/xlink" width="382" height="97" viewBox="0 0 382 97">
  <defs>
    <path id="a" d="M63.317 42.29c0-3.86-.506-7.333-1.517-10.428-1.012-3.096-2.462-5.71-4.362-7.852-1.903-2.142-4.222-3.784-6.97-4.935-2.74-1.133-5.87-1.713-9.372-1.713-3.545 0-6.694.58-9.461 1.713-2.763 1.151-5.096 2.793-6.996 4.935-1.894 2.142-3.354 4.756-4.365 7.852-1.011 3.095-1.518 6.568-1.518 10.427 0 3.899.507 7.39 1.518 10.485 1.011 3.081 2.471 5.7 4.365 7.852 1.9 2.137 4.233 3.775 6.996 4.907 2.767 1.113 5.916 1.69 9.461 1.69 3.503 0 6.633-.577 9.372-1.69 2.748-1.132 5.067-2.77 6.97-4.907 1.9-2.152 3.35-4.77 4.362-7.852 1.011-3.095 1.517-6.586 1.517-10.485m18.757 0c0 3.36-.349 6.583-1.06 9.674-.701 3.095-1.712 6.002-3.034 8.71a36.568 36.568 0 0 1-4.882 7.56 36.197 36.197 0 0 1-6.58 6.161L86.527 96H71.452c-2.166 0-4.136-.25-5.911-.778-1.77-.51-3.34-1.562-4.714-3.133l-9.815-10.881a57.054 57.054 0 0 1-4.848.745c-1.646.18-3.33.274-5.068.274-6.145 0-11.747-1.02-16.81-3.058-5.052-2.038-9.38-4.85-12.978-8.436-3.593-3.596-6.384-7.824-8.345-12.683C.993 53.19 0 47.943 0 42.29c0-5.643.992-10.9 2.963-15.76 1.961-4.86 4.752-9.079 8.345-12.655 3.598-3.567 7.926-6.38 12.979-8.413C29.349 3.428 34.95 2.41 41.097 2.41c6.14 0 11.737 1.02 16.776 3.076 5.039 2.053 9.352 4.87 12.93 8.447 3.574 3.571 6.347 7.785 8.317 12.645 1.971 4.87 2.954 10.107 2.954 15.712zM159 81h-18.439V48.025h-32.113V81H90V3h18.448v32.603h32.113V3H159v78zm51.343-.856c-1.587 0-2.784-.21-3.591-.631-.817-.426-1.492-1.31-2.024-2.661l-1.186-3.025a55.979 55.979 0 0 1-4.048 3.086 26.254 26.254 0 0 1-4.018 2.25 20.38 20.38 0 0 1-4.427 1.388c-1.568.299-3.306.449-5.206.449-2.565 0-4.874-.327-6.963-.982-2.09-.664-3.857-1.636-5.32-2.908-1.453-1.282-2.584-2.872-3.373-4.77-.788-1.908-1.187-4.096-1.187-6.584 0-1.955.504-3.955 1.51-6.013 1.007-2.066 2.756-3.946 5.235-5.63 2.488-1.693 5.832-3.104 10.041-4.237 4.209-1.14 9.51-1.711 15.922-1.711v-2.36c0-3.25-.675-5.599-2.024-7.047-1.358-1.45-3.268-2.17-5.747-2.17-1.985 0-3.6.215-4.854.635a22.248 22.248 0 0 0-3.382 1.43 43.912 43.912 0 0 1-2.888 1.442c-.932.425-2.052.636-3.345.636-1.15 0-2.128-.281-2.935-.823a6.207 6.207 0 0 1-1.919-2.049l-3.02-5.153c3.381-2.936 7.134-5.125 11.257-6.565 4.113-1.42 8.53-2.141 13.242-2.141 3.382 0 6.432.542 9.149 1.618 2.716 1.08 5.015 2.58 6.906 4.517 1.88 1.935 3.334 4.218 4.341 6.873 1.007 2.666 1.511 5.565 1.511 8.717v34.419h-7.657zm-19.218-10.04c2.156 0 4.047-.373 5.67-1.112 1.616-.743 3.25-1.945 4.913-3.614v-7.543c-3.344 0-6.099.215-8.256.645-2.156.43-3.875.963-5.13 1.61-1.254.64-2.127 1.374-2.621 2.197a5.156 5.156 0 0 0-.723 2.674c0 1.899.513 3.227 1.559 3.993 1.044.767 2.574 1.15 4.588 1.15zm79-31.136c-.504.6-.981 1.08-1.457 1.437-.466.356-1.133.534-2 .534a4.36 4.36 0 0 1-2.247-.591c-.657-.384-1.418-.826-2.247-1.296-.829-.488-1.8-.929-2.914-1.314-1.114-.394-2.513-.582-4.16-.582-2.058 0-3.838.367-5.333 1.118a9.78 9.78 0 0 0-3.704 3.195c-.972 1.395-1.694 3.084-2.162 5.093-.466 2.01-.714 4.277-.714 6.797 0 5.304 1.048 9.369 3.114 12.222 2.076 2.835 4.932 4.262 8.58 4.262 1.942 0 3.494-.24 4.617-.723 1.143-.478 2.105-1.019 2.895-1.595.79-.592 1.523-1.127 2.2-1.63.656-.497 1.495-.746 2.504-.746 1.333 0 2.342.479 3.028 1.436L275 72.5c-1.733 1.962-3.552 3.553-5.466 4.778a27.115 27.115 0 0 1-5.865 2.877c-2 .7-4.018 1.178-6.027 1.44-2.019.268-3.99.405-5.904.405-3.418 0-6.694-.643-9.817-1.92a23.904 23.904 0 0 1-8.218-5.572c-2.361-2.44-4.237-5.435-5.627-8.992-1.39-3.549-2.076-7.605-2.076-12.157 0-3.97.59-7.698 1.81-11.17 1.2-3.465 2.99-6.469 5.36-9.013 2.352-2.534 5.276-4.534 8.75-5.998 3.486-1.455 7.514-2.178 12.094-2.178 4.4 0 8.255.685 11.569 2.074 3.323 1.39 6.313 3.417 8.988 6.083l-4.446 5.81zM298.24.179v45.13h2.498c1.053 0 1.866-.141 2.42-.425.565-.284 1.091-.815 1.599-1.562l10.658-15.71c.612-.929 1.35-1.61 2.2-2.041.852-.43 1.924-.644 3.235-.644h15.444L321.72 44.78a16.086 16.086 0 0 1-2.258 2.47 18.462 18.462 0 0 1-2.64 1.933c1.635 1.217 3.051 2.84 4.247 4.848l15.874 26.67h-15.223c-1.273 0-2.364-.194-3.291-.62-.92-.407-1.675-1.127-2.259-2.168l-10.65-19.744c-.506-.9-1.023-1.477-1.569-1.751-.544-.266-1.368-.408-2.448-.408h-3.264v24.692h-16.85V.179h16.85zm79.467 36.95c-.44.69-.887 1.172-1.383 1.455-.486.285-1.107.436-1.87.436-.79 0-1.582-.17-2.373-.51-.801-.341-1.66-.71-2.575-1.107a30.129 30.129 0 0 0-3.118-1.097c-1.153-.34-2.479-.51-3.956-.51-2.127 0-3.758.401-4.902 1.21-1.134.804-1.706 1.919-1.706 3.356 0 1.04.371 1.901 1.116 2.577.734.676 1.716 1.281 2.945 1.801 1.23.52 2.623 1.012 4.177 1.475 1.545.474 3.137.984 4.758 1.551a43.876 43.876 0 0 1 4.777 2.014c1.545.78 2.937 1.72 4.166 2.856 1.23 1.125 2.213 2.486 2.947 4.103.743 1.617 1.115 3.556 1.115 5.806 0 2.751-.514 5.295-1.525 7.621-1.011 2.336-2.508 4.335-4.52 6.023-1.992 1.674-4.472 2.988-7.418 3.914-2.946.936-6.321 1.4-10.155 1.4-1.916 0-3.823-.18-5.74-.54a39.577 39.577 0 0 1-5.558-1.455 31.276 31.276 0 0 1-4.949-2.166c-1.516-.84-2.813-1.749-3.9-2.713l3.9-6.127c.467-.71 1.03-1.281 1.679-1.693.648-.411 1.496-.615 2.554-.615.973 0 1.84.218 2.622.644.773.425 1.612.889 2.518 1.399.906.492 1.954.964 3.166 1.39 1.21.435 2.736.653 4.576.653 1.307 0 2.403-.142 3.3-.412.905-.27 1.63-.629 2.173-1.102.543-.463.944-.973 1.192-1.55a4.25 4.25 0 0 0 .373-1.778c0-1.106-.373-2.024-1.126-2.742-.763-.718-1.764-1.323-2.985-1.844-1.23-.52-2.632-1.002-4.195-1.456a75.542 75.542 0 0 1-4.796-1.532 37.942 37.942 0 0 1-4.796-2.06 16.809 16.809 0 0 1-4.195-3.064c-1.23-1.24-2.222-2.752-2.975-4.539-.763-1.787-1.145-3.962-1.145-6.505 0-2.355.458-4.61 1.383-6.733.925-2.136 2.298-4.008 4.148-5.616 1.84-1.607 4.148-2.89 6.932-3.839 2.774-.95 6.026-1.418 9.744-1.418 2.021 0 3.986.18 5.884.53 1.887.358 3.67.86 5.329 1.502 1.66.653 3.175 1.405 4.558 2.28 1.363.889 2.575 1.843 3.614 2.874l-3.785 5.853z"/>
  </defs>
  <g fill="none" fill-rule="evenodd">
    <mask id="b" fill="#fff">
      <use xlink:href="#a"/>
    </mask>
    <use fill="#ffffff" xlink:href="#a"/>
    <g fill="#ffffff" fill-rule="nonzero" mask="url(#b)">
      <path d="M-18 0h429v96H-18z"/>
    </g>
  </g>
</svg>
