<svg xmlns="http://www.w3.org/2000/svg" width="87" height="45" viewBox="0 0 87 45">
  <g fill="none" fill-rule="evenodd">
    <path fill="#FEDB00" d="M27.22 35.845l1.758 1.803 12.885 3.93-7.52-8.384z"/>
    <path fill="#C8102E" d="M52.65 33.194l-7.513 8.384 12.901-3.937 1.742-1.794zM39.954 17.795l-4.637 14.474 7.408 8.282v-17.04l-1.832-5.715z"/>
    <path fill="#00205B" d="M45.965 17.798l-1.862 5.708v17.045l7.58-8.295-4.718-14.461zM75.918 23.05l-1.543-.293-13.733 14.107 7.269-2.214 4.202 8.981 4.55-14.49z"/>
    <path fill="#C8102E" d="M56.507 16.555L50.49 9.41l-2.764 2.887-1.384 4.299z"/>
    <path fill="#FEDB00" d="M75.45 18.847l-4.058-5.843-6.788 6.603 11.198 2.123zM46.343 42.631L71.323 45l-4.086-8.726z"/>
    <path fill="#C8102E" d="M75.802 11.251l1.821 14.928L87 8.042zM12.623 22.757l-1.542.292-.744 6.093 4.55 14.49 4.205-8.982 7.266 2.218z"/>
    <path fill="#00205B" d="M40.485 16.597l-1.411-4.423-2.621-2.763-5.96 7.145z"/>
    <path fill="#FEDB00" d="M11.37 21.73l11.198-2.123-6.787-6.603-4.058 5.843z"/>
    <path fill="#00205B" d="M15.677 45l24.98-2.369-20.883-6.357zM9.377 26.179l1.821-14.928L0 8.041z"/>
    <path fill="#FEDB00" d="M43.498 0l-5.08 5.551 5.08 15.837L48.582 5.55 43.498 0z"/>
  </g>
</svg>
