<svg xmlns="http://www.w3.org/2000/svg" xmlns:xlink="http://www.w3.org/1999/xlink" width="87" height="45" viewBox="0 0 87 45">
  <defs>
    <path id="a" d="M27.22 35.845l7.124-2.651 7.52 8.384-12.886-3.93-1.758-1.803zm25.43-2.651l7.13 2.653-1.742 1.794-12.901 3.937 7.514-8.384zm-12.696-15.4l.939.002 1.832 5.715v17.04l-7.408-8.282 4.637-14.474zm6.01.004l1-.003 4.72 14.461-7.581 8.295V23.506l1.862-5.708zm29.954 5.251l.745 6.093-4.55 14.49-4.202-8.982-7.27 2.214 13.734-14.107 1.543.292zm-19.411-6.494l-10.164.042 1.384-4.3 2.764-2.886 6.016 7.144zm18.943 2.292l.352 2.883-11.198-2.123 6.788-6.603 4.058 5.843zM46.343 42.631l20.894-6.357L71.323 45l-24.98-2.369zm29.459-31.38L87 8.041 77.623 26.18 75.802 11.25zm-63.18 11.506l13.736 14.11-7.266-2.217-4.205 8.981-4.55-14.49.744-6.092 1.542-.292zm27.863-6.16l-9.992-.041 5.96-7.145 2.62 2.763 1.412 4.423zM11.37 21.73l.353-2.883 4.058-5.843 6.787 6.603L11.37 21.73zM15.677 45l4.097-8.726 20.883 6.357L15.677 45zm-6.3-18.821L0 8.042l11.198 3.21-1.821 14.927zM43.498 0l5.084 5.551-5.084 15.837-5.08-15.837L43.498 0z"/>
  </defs>
  <g fill="none" fill-rule="evenodd">
    <mask id="b" fill="#fff">
      <use xlink:href="#a"/>
    </mask>
    <use fill="#FFF" xlink:href="#a"/>
    <g fill="#FFF" fill-rule="nonzero" mask="url(#b)">
      <path d="M0 0h87v45H0z"/>
    </g>
  </g>
</svg>
